M48
; DRILL file {KiCad (5.1.5)-3} date 2020/06/20 18:16:40
; FORMAT={-:-/ absolute / metric / decimal}
; #@! TF.CreationDate,2020-06-20T18:16:40+09:00
; #@! TF.GenerationSoftware,Kicad,Pcbnew,(5.1.5)-3
FMAT,2
METRIC
T1C0.300
T2C0.600
T3C0.889
T4C0.900
T5C0.600
T6C3.200
%
G90
G05
T1
X117.856Y-117.094
X117.856Y-122.428
X120.269Y-80.391
X120.777Y-113.284
X121.412Y-73.787
X122.428Y-91.948
X123.063Y-88.773
X123.317Y-85.344
X123.317Y-96.393
X123.317Y-100.457
X123.317Y-105.664
X123.571Y-80.772
X123.825Y-86.741
X123.825Y-106.934
X124.46Y-92.456
X125.222Y-111.633
X125.222Y-117.094
X125.222Y-122.428
X125.73Y-92.329
X127.127Y-93.726
X127.127Y-106.68
X127.599Y-85.725
X127.635Y-69.469
X127.889Y-87.884
X127.889Y-110.871
X127.889Y-117.221
X128.016Y-81.788
X128.651Y-67.437
X128.651Y-73.533
X128.778Y-94.488
X128.905Y-65.278
X129.197Y-119.977
X129.921Y-106.172
X130.556Y-78.359
X130.683Y-79.629
X131.064Y-71.374
X132.969Y-103.124
X132.969Y-110.871
X132.969Y-118.364
X133.093Y-82.357
X133.223Y-93.853
X133.258Y-95.631
X133.604Y-75.438
X133.731Y-88.392
X133.858Y-91.313
X135.255Y-94.488
X135.89Y-110.236
X136.717Y-81.534
X136.717Y-89.408
X136.717Y-96.012
X136.779Y-85.344
X136.779Y-86.487
X136.779Y-90.805
X137.414Y-97.79
X137.414Y-102.616
X137.414Y-107.569
X139.319Y-109.474
X139.446Y-114.3
X139.446Y-118.364
X139.573Y-93.853
X139.954Y-94.615
X139.989Y-87.757
X140.335Y-112.522
X140.462Y-122.428
X140.843Y-105.791
X140.843Y-111.379
X140.97Y-86.995
X141.605Y-75.819
X142.113Y-81.153
X142.113Y-107.823
X142.367Y-91.567
X142.494Y-78.867
X142.494Y-79.667
X142.621Y-95.504
X142.621Y-97.028
X142.748Y-102.616
X144.526Y-113.538
X145.034Y-100.33
X145.288Y-88.9
X145.796Y-97.282
X146.304Y-105.029
X146.939Y-122.428
X147.066Y-107.823
X147.066Y-113.665
X147.193Y-75.819
X147.828Y-102.743
X148.209Y-91.694
X149.479Y-113.538
X149.733Y-85.979
X151.13Y-88.9
X151.384Y-107.823
X152.019Y-82.55
X152.4Y-75.819
X152.4Y-114.046
X152.781Y-107.442
X152.781Y-110.49
X152.908Y-99.695
X153.035Y-104.14
X153.035Y-112.776
X153.09Y-122.5
X153.543Y-91.694
X154.051Y-108.839
X154.813Y-112.268
X155.575Y-117.602
X157.226Y-94.234
X157.226Y-104.013
X157.226Y-107.188
X158.242Y-110.871
X158.932Y-122.5
X159.512Y-106.172
X159.639Y-79.375
X160.655Y-110.998
X161.29Y-105.791
X161.417Y-86.487
X161.798Y-99.441
X162.56Y-65.405
X162.56Y-71.501
X162.56Y-77.724
X162.56Y-83.82
X163.068Y-115.951
X163.322Y-87.63
X163.322Y-88.519
X163.957Y-84.963
X164.084Y-91.313
X164.211Y-97.917
X164.211Y-100.33
X164.465Y-102.616
X164.719Y-90.297
X165.354Y-93.726
X165.481Y-121.92
X165.608Y-114.427
X166.243Y-115.697
X166.751Y-90.678
X167.005Y-98.933
X167.132Y-103.124
X168.783Y-65.405
X168.91Y-71.501
X168.91Y-77.724
X168.91Y-83.82
X169.291Y-103.251
X169.291Y-109.22
X169.291Y-115.57
X169.291Y-122.428
X169.672Y-93.726
X169.926Y-96.647
X172.847Y-100.965
X172.974Y-95.377
X173.863Y-109.347
X175.514Y-92.71
X175.514Y-105.918
X175.514Y-115.443
X175.514Y-122.428
X175.768Y-71.501
X175.768Y-77.47
X175.768Y-83.82
T3
X118.618Y-106.934
X118.618Y-109.474
X118.618Y-112.014
X118.618Y-93.853
X118.618Y-96.393
X118.618Y-98.933
X118.618Y-101.473
X118.618Y-75.692
X118.618Y-78.232
X118.618Y-80.772
X118.618Y-83.312
X118.618Y-85.852
X118.618Y-88.392
T4
X174.879Y-97.028
X174.879Y-99.568
X135.128Y-121.412
X137.668Y-121.412
X174.879Y-88.265
X174.879Y-90.805
T5
X143.922Y-117.676
X149.702Y-117.676
T6
X120.75Y-119.57
X172.75Y-119.58
X120.75Y-67.58
X172.75Y-67.58
T2
G00X142.492Y-117.746
M15
G01X142.492Y-116.646
M16
G05
G00X142.492Y-121.766
M15
G01X142.492Y-120.966
M16
G05
G00X151.132Y-117.746
M15
G01X151.132Y-116.646
M16
G05
G00X151.132Y-121.766
M15
G01X151.132Y-120.966
M16
G05
T0
M30
