G04 #@! TF.GenerationSoftware,KiCad,Pcbnew,(5.1.5)-3*
G04 #@! TF.CreationDate,2020-06-20T18:16:28+09:00*
G04 #@! TF.ProjectId,esp32-mp3-board,65737033-322d-46d7-9033-2d626f617264,rev?*
G04 #@! TF.SameCoordinates,Original*
G04 #@! TF.FileFunction,Copper,L1,Top*
G04 #@! TF.FilePolarity,Positive*
%FSLAX46Y46*%
G04 Gerber Fmt 4.6, Leading zero omitted, Abs format (unit mm)*
G04 Created by KiCad (PCBNEW (5.1.5)-3) date 2020-06-20 18:16:28*
%MOMM*%
%LPD*%
G04 APERTURE LIST*
%ADD10R,1.500000X1.000000*%
%ADD11O,0.900000X2.000000*%
%ADD12O,0.900000X1.700000*%
%ADD13R,0.300000X1.160000*%
%ADD14R,0.600000X1.160000*%
%ADD15R,1.220000X0.650000*%
%ADD16R,0.900000X1.000000*%
%ADD17R,0.650000X1.060000*%
%ADD18R,5.000000X5.000000*%
%ADD19R,2.000000X0.900000*%
%ADD20R,0.900000X2.000000*%
%ADD21R,0.900000X0.900000*%
%ADD22R,1.397000X1.397000*%
%ADD23R,1.651000X1.651000*%
%ADD24C,1.651000*%
%ADD25R,0.889000X0.889000*%
%ADD26R,0.750000X0.300000*%
%ADD27R,0.300000X0.750000*%
%ADD28C,0.100000*%
%ADD29R,1.200000X0.900000*%
%ADD30C,0.600000*%
%ADD31C,0.400000*%
%ADD32C,0.200000*%
%ADD33C,0.254000*%
G04 APERTURE END LIST*
D10*
X167420000Y-121600000D03*
X167420000Y-120000000D03*
X167420000Y-118400000D03*
X162520000Y-121600000D03*
X162520000Y-120000000D03*
X162520000Y-118400000D03*
X126074000Y-65456000D03*
X126074000Y-67056000D03*
X126074000Y-68656000D03*
X130974000Y-65456000D03*
X130974000Y-67056000D03*
X130974000Y-68656000D03*
D11*
X142492000Y-117196000D03*
X151132000Y-117196000D03*
D12*
X142492000Y-121366000D03*
X151132000Y-121366000D03*
D13*
X146062000Y-116616000D03*
X146562000Y-116616000D03*
X147062000Y-116616000D03*
X145062000Y-116616000D03*
X145562000Y-116616000D03*
X148062000Y-116616000D03*
X147562000Y-116616000D03*
X148562000Y-116616000D03*
D14*
X144412000Y-116616000D03*
X144412000Y-116616000D03*
X143612000Y-116616000D03*
X143612000Y-116616000D03*
X149212000Y-116616000D03*
X150012000Y-116616000D03*
X149212000Y-116616000D03*
X150012000Y-116616000D03*
D15*
X132247000Y-88392000D03*
X129627000Y-89342000D03*
X129627000Y-87442000D03*
X129510001Y-81347001D03*
X129510001Y-83247001D03*
X132130001Y-82297001D03*
D16*
X126982000Y-119977000D03*
X126982000Y-121577000D03*
X131082000Y-119977000D03*
X131082000Y-121577000D03*
D17*
X160462000Y-107485000D03*
X159512000Y-107485000D03*
X158562000Y-107485000D03*
X158562000Y-109685000D03*
X160462000Y-109685000D03*
D18*
X146066000Y-83827000D03*
D19*
X138566000Y-76327000D03*
X138566000Y-77597000D03*
X138566000Y-78867000D03*
X138566000Y-80137000D03*
X138566000Y-81407000D03*
X138566000Y-82677000D03*
X138566000Y-83947000D03*
X138566000Y-85217000D03*
X138566000Y-86487000D03*
X138566000Y-87757000D03*
X138566000Y-89027000D03*
X138566000Y-90297000D03*
X138566000Y-91567000D03*
X138566000Y-92837000D03*
D20*
X141351000Y-93837000D03*
X142621000Y-93837000D03*
X143891000Y-93837000D03*
X145161000Y-93837000D03*
X146431000Y-93837000D03*
X147701000Y-93837000D03*
X148971000Y-93837000D03*
X150241000Y-93837000D03*
X151511000Y-93837000D03*
X152781000Y-93837000D03*
D19*
X155566000Y-92837000D03*
X155566000Y-91567000D03*
X155566000Y-90297000D03*
X155566000Y-89027000D03*
X155566000Y-87757000D03*
X155566000Y-86487000D03*
X155566000Y-85217000D03*
X155566000Y-83947000D03*
X155566000Y-82677000D03*
X155566000Y-81407000D03*
X155566000Y-80137000D03*
X155566000Y-78867000D03*
X155566000Y-77597000D03*
X155566000Y-76327000D03*
D21*
X142367000Y-110871000D03*
X142367000Y-109347000D03*
X164211000Y-104902000D03*
X164211000Y-106426000D03*
X167259000Y-88011000D03*
X167259000Y-89535000D03*
X162687000Y-92456000D03*
X164211000Y-92456000D03*
X164211000Y-110109000D03*
X164211000Y-108585000D03*
X160528000Y-112141000D03*
X162052000Y-112141000D03*
X135636000Y-77724000D03*
X135636000Y-76200000D03*
X124968000Y-86868000D03*
X126492000Y-86868000D03*
X170307000Y-89535000D03*
X170307000Y-88011000D03*
X170307000Y-98425000D03*
X170307000Y-99949000D03*
D22*
X144526000Y-102870000D03*
X144526000Y-106172000D03*
D23*
X135128000Y-121412000D03*
D24*
X137668000Y-121412000D03*
D23*
X118618000Y-75692000D03*
D24*
X118618000Y-78232000D03*
X118618000Y-80772000D03*
X118618000Y-83312000D03*
X118618000Y-85852000D03*
X118618000Y-88392000D03*
X118618000Y-106934000D03*
X118618000Y-109474000D03*
D23*
X118618000Y-112014000D03*
X118618000Y-101473000D03*
D24*
X118618000Y-98933000D03*
X118618000Y-96393000D03*
X118618000Y-93853000D03*
D25*
X167132000Y-95377000D03*
X168656000Y-95377000D03*
X168656000Y-92456000D03*
X167132000Y-92456000D03*
X151638000Y-110871000D03*
X151638000Y-109347000D03*
X160274000Y-104394000D03*
X158750000Y-104394000D03*
X162687000Y-95377000D03*
X164211000Y-95377000D03*
X124968000Y-89662000D03*
X126492000Y-89662000D03*
X126492000Y-81280000D03*
X124968000Y-81280000D03*
X126492000Y-84074000D03*
X124968000Y-84074000D03*
X158369000Y-115951000D03*
X156845000Y-115951000D03*
X145034000Y-98679000D03*
X143510000Y-98679000D03*
D24*
X174879000Y-97028000D03*
D23*
X174879000Y-99568000D03*
X174879000Y-90805000D03*
D24*
X174879000Y-88265000D03*
D25*
X145542000Y-109347000D03*
X145542000Y-110871000D03*
X148590000Y-110871000D03*
X148590000Y-109347000D03*
D26*
X161755000Y-88739000D03*
X161755000Y-88239000D03*
X161755000Y-87239000D03*
X161755000Y-87739000D03*
D27*
X163975000Y-89499000D03*
X163475000Y-89499000D03*
X162975000Y-89499000D03*
X162475000Y-89499000D03*
X162475000Y-86519000D03*
X162975000Y-86519000D03*
X163475000Y-86519000D03*
X163975000Y-86519000D03*
D26*
X164675000Y-88779000D03*
X164675000Y-88279000D03*
X164675000Y-87779000D03*
X164675000Y-87279000D03*
G04 #@! TA.AperFunction,SMDPad,CuDef*
D28*
G36*
X149998691Y-98205053D02*
G01*
X150019926Y-98208203D01*
X150040750Y-98213419D01*
X150060962Y-98220651D01*
X150080368Y-98229830D01*
X150098781Y-98240866D01*
X150116024Y-98253654D01*
X150131930Y-98268070D01*
X150146346Y-98283976D01*
X150159134Y-98301219D01*
X150170170Y-98319632D01*
X150179349Y-98339038D01*
X150186581Y-98359250D01*
X150191797Y-98380074D01*
X150194947Y-98401309D01*
X150196000Y-98422750D01*
X150196000Y-98935250D01*
X150194947Y-98956691D01*
X150191797Y-98977926D01*
X150186581Y-98998750D01*
X150179349Y-99018962D01*
X150170170Y-99038368D01*
X150159134Y-99056781D01*
X150146346Y-99074024D01*
X150131930Y-99089930D01*
X150116024Y-99104346D01*
X150098781Y-99117134D01*
X150080368Y-99128170D01*
X150060962Y-99137349D01*
X150040750Y-99144581D01*
X150019926Y-99149797D01*
X149998691Y-99152947D01*
X149977250Y-99154000D01*
X149539750Y-99154000D01*
X149518309Y-99152947D01*
X149497074Y-99149797D01*
X149476250Y-99144581D01*
X149456038Y-99137349D01*
X149436632Y-99128170D01*
X149418219Y-99117134D01*
X149400976Y-99104346D01*
X149385070Y-99089930D01*
X149370654Y-99074024D01*
X149357866Y-99056781D01*
X149346830Y-99038368D01*
X149337651Y-99018962D01*
X149330419Y-98998750D01*
X149325203Y-98977926D01*
X149322053Y-98956691D01*
X149321000Y-98935250D01*
X149321000Y-98422750D01*
X149322053Y-98401309D01*
X149325203Y-98380074D01*
X149330419Y-98359250D01*
X149337651Y-98339038D01*
X149346830Y-98319632D01*
X149357866Y-98301219D01*
X149370654Y-98283976D01*
X149385070Y-98268070D01*
X149400976Y-98253654D01*
X149418219Y-98240866D01*
X149436632Y-98229830D01*
X149456038Y-98220651D01*
X149476250Y-98213419D01*
X149497074Y-98208203D01*
X149518309Y-98205053D01*
X149539750Y-98204000D01*
X149977250Y-98204000D01*
X149998691Y-98205053D01*
G37*
G04 #@! TD.AperFunction*
G04 #@! TA.AperFunction,SMDPad,CuDef*
G36*
X148423691Y-98205053D02*
G01*
X148444926Y-98208203D01*
X148465750Y-98213419D01*
X148485962Y-98220651D01*
X148505368Y-98229830D01*
X148523781Y-98240866D01*
X148541024Y-98253654D01*
X148556930Y-98268070D01*
X148571346Y-98283976D01*
X148584134Y-98301219D01*
X148595170Y-98319632D01*
X148604349Y-98339038D01*
X148611581Y-98359250D01*
X148616797Y-98380074D01*
X148619947Y-98401309D01*
X148621000Y-98422750D01*
X148621000Y-98935250D01*
X148619947Y-98956691D01*
X148616797Y-98977926D01*
X148611581Y-98998750D01*
X148604349Y-99018962D01*
X148595170Y-99038368D01*
X148584134Y-99056781D01*
X148571346Y-99074024D01*
X148556930Y-99089930D01*
X148541024Y-99104346D01*
X148523781Y-99117134D01*
X148505368Y-99128170D01*
X148485962Y-99137349D01*
X148465750Y-99144581D01*
X148444926Y-99149797D01*
X148423691Y-99152947D01*
X148402250Y-99154000D01*
X147964750Y-99154000D01*
X147943309Y-99152947D01*
X147922074Y-99149797D01*
X147901250Y-99144581D01*
X147881038Y-99137349D01*
X147861632Y-99128170D01*
X147843219Y-99117134D01*
X147825976Y-99104346D01*
X147810070Y-99089930D01*
X147795654Y-99074024D01*
X147782866Y-99056781D01*
X147771830Y-99038368D01*
X147762651Y-99018962D01*
X147755419Y-98998750D01*
X147750203Y-98977926D01*
X147747053Y-98956691D01*
X147746000Y-98935250D01*
X147746000Y-98422750D01*
X147747053Y-98401309D01*
X147750203Y-98380074D01*
X147755419Y-98359250D01*
X147762651Y-98339038D01*
X147771830Y-98319632D01*
X147782866Y-98301219D01*
X147795654Y-98283976D01*
X147810070Y-98268070D01*
X147825976Y-98253654D01*
X147843219Y-98240866D01*
X147861632Y-98229830D01*
X147881038Y-98220651D01*
X147901250Y-98213419D01*
X147922074Y-98208203D01*
X147943309Y-98205053D01*
X147964750Y-98204000D01*
X148402250Y-98204000D01*
X148423691Y-98205053D01*
G37*
G04 #@! TD.AperFunction*
D29*
X149733000Y-102871000D03*
X149733000Y-106171000D03*
D30*
X160655000Y-110998000D03*
X159512000Y-106172000D03*
X123825000Y-86741000D03*
X140843000Y-111379000D03*
X158242000Y-110871000D03*
X161290000Y-105791000D03*
X164084000Y-91313000D03*
X163322000Y-87630000D03*
X163322000Y-88519000D03*
X159639000Y-79375000D03*
X152019000Y-82550000D03*
X161798000Y-99441000D03*
X142113000Y-107823000D03*
X127635000Y-69469000D03*
X128905000Y-65278000D03*
X131064000Y-71374000D03*
X133604000Y-75438000D03*
X141605000Y-75819000D03*
X147193000Y-75819000D03*
X152400000Y-75819000D03*
X162560000Y-65405000D03*
X168783000Y-65405000D03*
X162560000Y-71501000D03*
X168910000Y-71501000D03*
X175768000Y-71501000D03*
X175768000Y-77470000D03*
X162560000Y-77724000D03*
X168910000Y-77724000D03*
X175768000Y-83820000D03*
X168910000Y-83820000D03*
X162560000Y-83820000D03*
X120269000Y-80391000D03*
X128016000Y-81788000D03*
X123571000Y-80772000D03*
X123317000Y-85344000D03*
X123063000Y-88773000D03*
X122428000Y-91948000D03*
X123317000Y-96393000D03*
X123317000Y-100457000D03*
X123317000Y-105664000D03*
X125222000Y-111633000D03*
X125222000Y-117094000D03*
X117856000Y-117094000D03*
X125222000Y-122428000D03*
X117856000Y-122428000D03*
X120777000Y-113284000D03*
X132969000Y-103124000D03*
X132969000Y-110871000D03*
X132969000Y-118364000D03*
X127889000Y-110871000D03*
X129921000Y-106172000D03*
X127889000Y-117221000D03*
X129197000Y-119977000D03*
X139446000Y-118364000D03*
X140462000Y-122428000D03*
X146939000Y-122428000D03*
X153089999Y-122500001D03*
X158931999Y-122500001D03*
X155575000Y-117602000D03*
X166243000Y-115697000D03*
X165481000Y-121920000D03*
X169291000Y-122428000D03*
X175514000Y-122428000D03*
X175514000Y-115443000D03*
X169291000Y-115570000D03*
X169291000Y-109220000D03*
X169291000Y-103251000D03*
X175514000Y-105918000D03*
X173863000Y-109347000D03*
X172847000Y-100965000D03*
X165354000Y-93726000D03*
X157226000Y-94234000D03*
X152908000Y-99695000D03*
X145034000Y-100330000D03*
X145796000Y-97282000D03*
X153543000Y-91694000D03*
X142367000Y-91567000D03*
X148209000Y-91694000D03*
X149733000Y-85979000D03*
X142113000Y-81153000D03*
X151130000Y-88900000D03*
X145288000Y-88900000D03*
X175514000Y-92710000D03*
X172974000Y-95377000D03*
X169926000Y-96647000D03*
X149479000Y-113538000D03*
X144526000Y-113538000D03*
X151384000Y-107823000D03*
X147066000Y-107823000D03*
X147066000Y-113665000D03*
X137414000Y-97790000D03*
X137414000Y-102616000D03*
X137414000Y-107569000D03*
X139319000Y-109474000D03*
X142748000Y-102616000D03*
X140843000Y-105791000D03*
X147828000Y-102743000D03*
X146304000Y-105029000D03*
X153035000Y-104140000D03*
X157226000Y-104013000D03*
X157226000Y-107188000D03*
X154051000Y-108839000D03*
X154813000Y-112268000D03*
X135890000Y-110236000D03*
X139446000Y-114300000D03*
X152400000Y-114046000D03*
X167005000Y-98933000D03*
X164465000Y-102616000D03*
X167132000Y-103124000D03*
X128651000Y-73533000D03*
X136717010Y-96012000D03*
X135254996Y-94488000D03*
X128651000Y-67437000D03*
X140335000Y-112522000D03*
X153035000Y-112776000D03*
X121412000Y-73787000D03*
X166751000Y-90678000D03*
X164719000Y-90297000D03*
X164211000Y-97917000D03*
X164211000Y-100330000D03*
X165608000Y-114427000D03*
X163068000Y-115950990D03*
X152781000Y-107442000D03*
X152781000Y-110490002D03*
X133731000Y-88392000D03*
X136717010Y-89408000D03*
X127889000Y-87884000D03*
X127599239Y-85725000D03*
X136717010Y-81534000D03*
X133092968Y-82356767D03*
X136779000Y-85344000D03*
X124460000Y-92456000D03*
X136779000Y-86487000D03*
X125730000Y-92329000D03*
X139988990Y-87757000D03*
X163957000Y-84963000D03*
X140970000Y-86995000D03*
X161417000Y-86487000D03*
X136779000Y-90805000D03*
X127127000Y-106680000D03*
X133858000Y-91313008D03*
X123825010Y-106934000D03*
X142621000Y-95504000D03*
X142621002Y-97028000D03*
X142494000Y-79667013D03*
X130683000Y-79629000D03*
X142494000Y-78867000D03*
X130556000Y-78359000D03*
X139954000Y-94615000D03*
X133257990Y-95631000D03*
X128778000Y-94488000D03*
X139573000Y-93853000D03*
X127127000Y-93726000D03*
X133223000Y-93853000D03*
X169672000Y-93726000D03*
D31*
X151638000Y-109347000D02*
X148590000Y-109347000D01*
X148590000Y-109347000D02*
X145542000Y-109347000D01*
X142494000Y-109347000D02*
X142367000Y-109474000D01*
X145542000Y-109347000D02*
X142494000Y-109347000D01*
X142446000Y-121412000D02*
X142492000Y-121366000D01*
X137668000Y-121412000D02*
X142446000Y-121412000D01*
X163361000Y-108585000D02*
X164211000Y-108585000D01*
X159682000Y-108585000D02*
X163361000Y-108585000D01*
X159512000Y-108415000D02*
X159682000Y-108585000D01*
X159512000Y-107485000D02*
X159512000Y-108415000D01*
X160528000Y-112141000D02*
X160528000Y-111125000D01*
X160528000Y-111125000D02*
X160655000Y-110998000D01*
X159512000Y-106172000D02*
X159512000Y-107485000D01*
X170307000Y-88011000D02*
X167259000Y-88011000D01*
D32*
X167027000Y-87779000D02*
X167259000Y-88011000D01*
X164675000Y-87779000D02*
X167027000Y-87779000D01*
D31*
X124968000Y-86868000D02*
X123952000Y-86868000D01*
X123952000Y-86868000D02*
X123825000Y-86741000D01*
X143072000Y-116616000D02*
X142492000Y-117196000D01*
X143612000Y-116616000D02*
X143072000Y-116616000D01*
X150552000Y-116616000D02*
X151132000Y-117196000D01*
X150012000Y-116616000D02*
X150552000Y-116616000D01*
X141766990Y-115070990D02*
X141766990Y-112302990D01*
X141766990Y-112302990D02*
X140843000Y-111379000D01*
X142492000Y-117196000D02*
X142492000Y-115796000D01*
X142492000Y-115796000D02*
X141766990Y-115070990D01*
X127832000Y-119977000D02*
X129197000Y-119977000D01*
X126982000Y-119977000D02*
X127832000Y-119977000D01*
X136233000Y-119977000D02*
X137668000Y-121412000D01*
X131082000Y-119977000D02*
X136233000Y-119977000D01*
X143342000Y-121366000D02*
X151132000Y-121366000D01*
X142492000Y-121366000D02*
X143342000Y-121366000D01*
X168570001Y-122420001D02*
X168490001Y-122500001D01*
X168570001Y-119300001D02*
X168570001Y-122420001D01*
X168490001Y-122500001D02*
X158931999Y-122500001D01*
X167420000Y-118400000D02*
X167670000Y-118400000D01*
X167670000Y-118400000D02*
X168570001Y-119300001D01*
X151132000Y-122430000D02*
X151132000Y-121366000D01*
X151202001Y-122500001D02*
X151132000Y-122430000D01*
X164211000Y-104902000D02*
X162179000Y-104902000D01*
X162179000Y-104902000D02*
X161290000Y-105791000D01*
X168570000Y-118400000D02*
X169037000Y-117933000D01*
X167420000Y-118400000D02*
X168570000Y-118400000D01*
X176104501Y-110865499D02*
X169037000Y-117933000D01*
X176024501Y-98342499D02*
X176104501Y-98422499D01*
X171239501Y-98342499D02*
X176024501Y-98342499D01*
X176104501Y-98422499D02*
X176104501Y-110865499D01*
X171157000Y-98425000D02*
X171239501Y-98342499D01*
X170307000Y-98425000D02*
X171157000Y-98425000D01*
X164211000Y-92456000D02*
X164211000Y-91440000D01*
X164211000Y-91440000D02*
X164084000Y-91313000D01*
D32*
X162975000Y-87283000D02*
X163322000Y-87630000D01*
X162975000Y-86519000D02*
X162975000Y-87283000D01*
X161755000Y-88239000D02*
X163042000Y-88239000D01*
X163042000Y-88239000D02*
X163322000Y-88519000D01*
X170307000Y-87361000D02*
X170307000Y-88011000D01*
X159273000Y-76327000D02*
X170307000Y-87361000D01*
X155566000Y-76327000D02*
X159273000Y-76327000D01*
X162975000Y-84675998D02*
X163668999Y-83981999D01*
X162975000Y-86519000D02*
X162975000Y-84675998D01*
X163668999Y-83981999D02*
X164245001Y-83981999D01*
X167259000Y-87361000D02*
X167259000Y-88011000D01*
X167259000Y-86995998D02*
X167259000Y-87361000D01*
X164245001Y-83981999D02*
X167259000Y-86995998D01*
D31*
X142367000Y-109347000D02*
X142367000Y-108077000D01*
X142367000Y-108077000D02*
X142113000Y-107823000D01*
X164211000Y-93726000D02*
X164211000Y-92456000D01*
X165608000Y-95651229D02*
X165608000Y-95123000D01*
X168155992Y-98199221D02*
X165608000Y-95651229D01*
X168155992Y-117051992D02*
X168155992Y-98199221D01*
X165608000Y-95123000D02*
X164211000Y-93726000D01*
X169037000Y-117933000D02*
X168155992Y-117051992D01*
X129197000Y-119977000D02*
X131082000Y-119977000D01*
X153089999Y-122500001D02*
X151202001Y-122500001D01*
X158931999Y-122500001D02*
X153089999Y-122500001D01*
X156337000Y-110871000D02*
X158242000Y-110871000D01*
X155575000Y-110871000D02*
X156337000Y-110871000D01*
X151638000Y-109347000D02*
X154051000Y-109347000D01*
X154051000Y-109347000D02*
X155575000Y-110871000D01*
X138439000Y-76200000D02*
X135636000Y-76200000D01*
X138566000Y-76327000D02*
X138439000Y-76200000D01*
D32*
X147746000Y-98679000D02*
X145034000Y-98679000D01*
X148183500Y-98679000D02*
X147746000Y-98679000D01*
D31*
X145624500Y-102870000D02*
X147148500Y-101346000D01*
X144526000Y-102870000D02*
X145624500Y-102870000D01*
X147148500Y-101346000D02*
X163195000Y-101346000D01*
X163195000Y-101346000D02*
X164465000Y-102616000D01*
X167170000Y-120000000D02*
X167420000Y-120000000D01*
X166270000Y-119100000D02*
X167170000Y-120000000D01*
X166269999Y-117579999D02*
X166270000Y-119100000D01*
X167431999Y-116417999D02*
X166269999Y-117579999D01*
X167431999Y-103423999D02*
X167431999Y-116417999D01*
X167132000Y-103124000D02*
X167431999Y-103423999D01*
X144526000Y-101771500D02*
X138766500Y-96012000D01*
X144526000Y-102870000D02*
X144526000Y-101771500D01*
X137141274Y-96012000D02*
X136717010Y-96012000D01*
X138766500Y-96012000D02*
X137141274Y-96012000D01*
X130974000Y-67056000D02*
X129032000Y-67056000D01*
X129032000Y-67056000D02*
X128651000Y-67437000D01*
X135254996Y-94063736D02*
X135254996Y-94488000D01*
X135043978Y-93852718D02*
X135254996Y-94063736D01*
X128651000Y-73533000D02*
X135043978Y-79925978D01*
X135043978Y-79925978D02*
X135043978Y-93852718D01*
X160462000Y-110048000D02*
X158369000Y-112141000D01*
X160462000Y-109685000D02*
X160462000Y-110048000D01*
X162052000Y-111275000D02*
X160462000Y-109685000D01*
X162052000Y-112141000D02*
X162052000Y-111275000D01*
X162052000Y-111379000D02*
X162052000Y-112141000D01*
X164211000Y-110109000D02*
X163322000Y-110109000D01*
X163322000Y-110109000D02*
X162052000Y-111379000D01*
X158369000Y-112991000D02*
X158369000Y-112141000D01*
X153035000Y-112776000D02*
X153797000Y-113538000D01*
X157822000Y-113538000D02*
X158369000Y-112991000D01*
X153797000Y-113538000D02*
X157822000Y-113538000D01*
X137166000Y-77597000D02*
X138566000Y-77597000D01*
X164211000Y-121059000D02*
X163670000Y-121600000D01*
X163670000Y-121600000D02*
X162520000Y-121600000D01*
X164211000Y-113450000D02*
X164211000Y-121059000D01*
X162902000Y-112141000D02*
X164211000Y-113450000D01*
X162052000Y-112141000D02*
X162902000Y-112141000D01*
D32*
X163975000Y-89499000D02*
X163975000Y-90406000D01*
X162687000Y-91694000D02*
X162687000Y-92456000D01*
X163975000Y-90406000D02*
X162687000Y-91694000D01*
X162433000Y-92202000D02*
X162687000Y-92456000D01*
X162433000Y-91440000D02*
X162433000Y-92202000D01*
X163475000Y-89499000D02*
X163475000Y-90398000D01*
X163475000Y-90398000D02*
X162433000Y-91440000D01*
D31*
X164211000Y-94869000D02*
X164211000Y-95377000D01*
X162687000Y-92456000D02*
X162687000Y-93345000D01*
X162687000Y-93345000D02*
X164211000Y-94869000D01*
X167259000Y-89535000D02*
X167259000Y-90170000D01*
X167259000Y-90170000D02*
X166751000Y-90678000D01*
X164302000Y-89499000D02*
X163975000Y-89499000D01*
X164719000Y-90297000D02*
X164719000Y-89916000D01*
X164719000Y-89916000D02*
X164302000Y-89499000D01*
X163975000Y-89499000D02*
X163525001Y-89499000D01*
X118618000Y-98933000D02*
X123759999Y-93791001D01*
X123759999Y-93791001D02*
X123759999Y-90025501D01*
X124123500Y-89662000D02*
X124968000Y-89662000D01*
X123759999Y-90025501D02*
X124123500Y-89662000D01*
X126924000Y-68656000D02*
X126074000Y-68656000D01*
X127508000Y-64770000D02*
X127508000Y-68072000D01*
X121412000Y-73787000D02*
X123698000Y-71501000D01*
X127508000Y-68072000D02*
X126924000Y-68656000D01*
X123698000Y-71501000D02*
X123698000Y-65659000D01*
X123698000Y-65659000D02*
X124841000Y-64516000D01*
X124841000Y-64516000D02*
X127254000Y-64516000D01*
X127254000Y-64516000D02*
X127508000Y-64770000D01*
X124968000Y-88900000D02*
X124968000Y-89662000D01*
X120205499Y-84137499D02*
X124968000Y-88900000D01*
X118618000Y-83312000D02*
X119443499Y-84137499D01*
X119443499Y-84137499D02*
X120205499Y-84137499D01*
X136525000Y-77597000D02*
X136525000Y-78232000D01*
X136525000Y-77597000D02*
X137166000Y-77597000D01*
X136780194Y-77979194D02*
X136526194Y-77979194D01*
X137166000Y-77597000D02*
X136780194Y-77979194D01*
X136780194Y-77979194D02*
X136525000Y-78232000D01*
X136526194Y-77979194D02*
X136144000Y-77597000D01*
X136144000Y-77597000D02*
X136525000Y-77597000D01*
X133731000Y-77597000D02*
X136144000Y-77597000D01*
X126074000Y-68656000D02*
X126074000Y-69940000D01*
X126074000Y-69940000D02*
X133731000Y-77597000D01*
X140035001Y-112222001D02*
X140335000Y-112522000D01*
X135643989Y-79113011D02*
X135643989Y-92612113D01*
X135643989Y-92612113D02*
X136017000Y-92985124D01*
X136017000Y-92985124D02*
X136017000Y-108204000D01*
X136525000Y-78232000D02*
X135643989Y-79113011D01*
X136017000Y-108204000D02*
X140035001Y-112222001D01*
X164211000Y-95377000D02*
X164211000Y-97917000D01*
X164510999Y-100629999D02*
X164211000Y-100330000D01*
X165165001Y-101284001D02*
X164510999Y-100629999D01*
X165165001Y-110004999D02*
X165165001Y-101284001D01*
X164211000Y-110109000D02*
X165061000Y-110109000D01*
X165061000Y-110109000D02*
X165165001Y-110004999D01*
D32*
X161570000Y-120000000D02*
X162520000Y-120000000D01*
X160249500Y-120000000D02*
X161570000Y-120000000D01*
X156845000Y-116595500D02*
X160249500Y-120000000D01*
X156845000Y-115951000D02*
X156845000Y-116595500D01*
X158369000Y-115951000D02*
X163067990Y-115951000D01*
X163067990Y-115951000D02*
X163068000Y-115950990D01*
X166497000Y-101298000D02*
X166497000Y-113538000D01*
X166497000Y-113538000D02*
X165608000Y-114427000D01*
X155566000Y-91567000D02*
X156766000Y-91567000D01*
X156766000Y-91567000D02*
X166497000Y-101298000D01*
X145562000Y-110891000D02*
X145562000Y-116616000D01*
X145542000Y-110871000D02*
X145562000Y-110891000D01*
X148562000Y-110899000D02*
X148562000Y-116616000D01*
X148590000Y-110871000D02*
X148562000Y-110899000D01*
D31*
X142494000Y-106172000D02*
X144526000Y-106172000D01*
X142367000Y-110871000D02*
X141605000Y-110871000D01*
X140843000Y-107823000D02*
X142494000Y-106172000D01*
X140843000Y-110109000D02*
X140843000Y-107823000D01*
X141605000Y-110871000D02*
X140843000Y-110109000D01*
X149732000Y-106172000D02*
X149733000Y-106171000D01*
X144526000Y-106172000D02*
X149732000Y-106172000D01*
X149733000Y-106171000D02*
X151510000Y-106171000D01*
X151510000Y-106171000D02*
X152781000Y-107442000D01*
X151638000Y-110871000D02*
X152482500Y-110871000D01*
X152482500Y-110871000D02*
X152781000Y-110572500D01*
X152781000Y-110572500D02*
X152781000Y-110490002D01*
X142367000Y-113030000D02*
X142367000Y-110871000D01*
X144412000Y-116616000D02*
X144412000Y-115075000D01*
X144412000Y-115075000D02*
X142367000Y-113030000D01*
X151638000Y-112141000D02*
X151638000Y-110871000D01*
X151638000Y-112966500D02*
X151638000Y-112141000D01*
X149212000Y-116616000D02*
X149212000Y-115392500D01*
X149212000Y-115392500D02*
X151638000Y-112966500D01*
D32*
X133731000Y-88392000D02*
X132247000Y-88392000D01*
X136144000Y-90405274D02*
X136717010Y-89832264D01*
X136144000Y-92405002D02*
X136144000Y-90405274D01*
X139877998Y-96139000D02*
X136144000Y-92405002D01*
X152914000Y-96139000D02*
X139877998Y-96139000D01*
X155566000Y-92837000D02*
X155566000Y-93487000D01*
X136717010Y-89832264D02*
X136717010Y-89408000D01*
X155566000Y-93487000D02*
X152914000Y-96139000D01*
X129347000Y-89342000D02*
X129627000Y-89342000D01*
X127889000Y-87884000D02*
X129347000Y-89342000D01*
X127174975Y-85725000D02*
X127599239Y-85725000D01*
X124968000Y-84074000D02*
X124968000Y-84718500D01*
X124968000Y-84718500D02*
X125974500Y-85725000D01*
X125974500Y-85725000D02*
X127174975Y-85725000D01*
X129159000Y-75692000D02*
X134092989Y-80625989D01*
X129912000Y-89342000D02*
X129627000Y-89342000D01*
X134092989Y-85161011D02*
X129912000Y-89342000D01*
X118618000Y-75692000D02*
X129159000Y-75692000D01*
X134092989Y-80625989D02*
X134092989Y-85161011D01*
X124968000Y-80635500D02*
X125281510Y-80321990D01*
X124968000Y-81280000D02*
X124968000Y-80635500D01*
X133692978Y-82003978D02*
X133692978Y-84186022D01*
X133692978Y-84186022D02*
X130437000Y-87442000D01*
X125281510Y-80321990D02*
X132010990Y-80321990D01*
X132010990Y-80321990D02*
X133692978Y-82003978D01*
X130437000Y-87442000D02*
X129627000Y-87442000D01*
X127308002Y-84074000D02*
X127136500Y-84074000D01*
X127136500Y-84074000D02*
X126492000Y-84074000D01*
X129510001Y-81872001D02*
X127308002Y-84074000D01*
X129510001Y-81347001D02*
X129510001Y-81872001D01*
X126982000Y-121577000D02*
X131082000Y-121577000D01*
X134963000Y-121577000D02*
X135128000Y-121412000D01*
X131082000Y-121577000D02*
X134963000Y-121577000D01*
X131705001Y-83247001D02*
X132130001Y-82822001D01*
X132130001Y-82822001D02*
X132130001Y-82297001D01*
X126492000Y-87518000D02*
X126492000Y-89662000D01*
X126492000Y-86868000D02*
X126492000Y-87518000D01*
X138566000Y-78867000D02*
X137366000Y-78867000D01*
X136717010Y-79515990D02*
X136717010Y-81109736D01*
X136717010Y-81109736D02*
X136717010Y-81534000D01*
X137366000Y-78867000D02*
X136717010Y-79515990D01*
X129510001Y-83247001D02*
X129510001Y-84738003D01*
X127142000Y-86868000D02*
X126492000Y-86868000D01*
X127380004Y-86868000D02*
X127142000Y-86868000D01*
X129510001Y-84738003D02*
X127380004Y-86868000D01*
X130320001Y-83247001D02*
X129510001Y-83247001D01*
X130683000Y-82884002D02*
X130320001Y-83247001D01*
X127136500Y-81280000D02*
X127694500Y-80722000D01*
X126492000Y-81280000D02*
X127136500Y-81280000D01*
X130360002Y-80722000D02*
X130683000Y-81044998D01*
X130683000Y-81044998D02*
X130683000Y-82884002D01*
X127694500Y-80722000D02*
X130360002Y-80722000D01*
X131001999Y-83247001D02*
X131705001Y-83247001D01*
X129510001Y-83247001D02*
X131001999Y-83247001D01*
X130769999Y-82971001D02*
X130683000Y-82884002D01*
X131001999Y-83203001D02*
X130769999Y-82971001D01*
X130769999Y-82971001D02*
X130556000Y-83185000D01*
X131001999Y-83247001D02*
X131001999Y-83203001D01*
X131001999Y-83247001D02*
X130872001Y-83247001D01*
X130872001Y-83247001D02*
X130810000Y-83185000D01*
X133033202Y-82297001D02*
X133092968Y-82356767D01*
X132130001Y-82297001D02*
X133033202Y-82297001D01*
X126332000Y-121577000D02*
X126982000Y-121577000D01*
X126238000Y-121483000D02*
X126332000Y-121577000D01*
X125984000Y-121229000D02*
X126238000Y-121483000D01*
X126492000Y-89662000D02*
X126492000Y-118491000D01*
X125984000Y-118999000D02*
X125984000Y-121229000D01*
X126492000Y-118491000D02*
X125984000Y-118999000D01*
D31*
X160274000Y-103549500D02*
X160274000Y-104394000D01*
X159595500Y-102871000D02*
X160274000Y-103549500D01*
X149733000Y-102871000D02*
X159595500Y-102871000D01*
X160462000Y-105852000D02*
X160462000Y-107485000D01*
X160274000Y-105664000D02*
X160462000Y-105852000D01*
X160274000Y-105664000D02*
X160274000Y-104394000D01*
X164211000Y-106426000D02*
X163068000Y-106426000D01*
X162009000Y-107485000D02*
X160462000Y-107485000D01*
X163068000Y-106426000D02*
X162009000Y-107485000D01*
D32*
X158750000Y-107297000D02*
X158562000Y-107485000D01*
X158750000Y-104394000D02*
X158750000Y-107297000D01*
X138566000Y-85217000D02*
X136906000Y-85217000D01*
X136906000Y-85217000D02*
X136779000Y-85344000D01*
X118618000Y-109474000D02*
X123063000Y-109474000D01*
X124460000Y-108077000D02*
X124460000Y-92456000D01*
X123063000Y-109474000D02*
X124460000Y-108077000D01*
X138566000Y-86487000D02*
X136779000Y-86487000D01*
X119643500Y-112014000D02*
X118618000Y-112014000D01*
X125430001Y-109519999D02*
X122936000Y-112014000D01*
X122936000Y-112014000D02*
X119643500Y-112014000D01*
X125730000Y-92329000D02*
X125430001Y-92628999D01*
X125430001Y-92628999D02*
X125430001Y-109519999D01*
X138566000Y-87757000D02*
X139988990Y-87757000D01*
X163576000Y-84963000D02*
X163957000Y-84963000D01*
X163475000Y-86519000D02*
X163475000Y-85064000D01*
X163475000Y-85064000D02*
X163576000Y-84963000D01*
X140843000Y-86995000D02*
X140970000Y-86995000D01*
X140589000Y-87249000D02*
X140843000Y-86995000D01*
X139953002Y-89027000D02*
X140589000Y-88391002D01*
X140589000Y-88391002D02*
X140589000Y-87249000D01*
X138566000Y-89027000D02*
X139953002Y-89027000D01*
X161449000Y-86519000D02*
X161417000Y-86487000D01*
X162475000Y-86519000D02*
X161449000Y-86519000D01*
X138566000Y-90297000D02*
X137287000Y-90297000D01*
X137287000Y-90297000D02*
X136779000Y-90805000D01*
X133858000Y-99949000D02*
X133858000Y-92363999D01*
X127127000Y-106680000D02*
X133858000Y-99949000D01*
X133858000Y-92363999D02*
X133858000Y-91313008D01*
X118618000Y-106934000D02*
X123825010Y-106934000D01*
X142621000Y-93837000D02*
X142621000Y-95504000D01*
X143510000Y-98679000D02*
X143510000Y-97916998D01*
X143510000Y-97916998D02*
X142921001Y-97327999D01*
X142921001Y-97327999D02*
X142621002Y-97028000D01*
X161153000Y-87239000D02*
X161755000Y-87239000D01*
X155566000Y-82677000D02*
X156591000Y-82677000D01*
X156591000Y-82677000D02*
X161153000Y-87239000D01*
X153670000Y-81407000D02*
X151930013Y-79667013D01*
X155566000Y-81407000D02*
X153670000Y-81407000D01*
X142918264Y-79667013D02*
X142494000Y-79667013D01*
X151930013Y-79667013D02*
X142918264Y-79667013D01*
X119761000Y-79629000D02*
X130683000Y-79629000D01*
X118618000Y-80772000D02*
X119761000Y-79629000D01*
X155566000Y-80137000D02*
X153700001Y-80137000D01*
X142918264Y-78867000D02*
X142494000Y-78867000D01*
X152430001Y-78867000D02*
X142918264Y-78867000D01*
X153700001Y-80137000D02*
X152430001Y-78867000D01*
X130429000Y-78232000D02*
X130556000Y-78359000D01*
X118618000Y-78232000D02*
X130429000Y-78232000D01*
X140273009Y-94295991D02*
X140253999Y-94315001D01*
X140273010Y-92009990D02*
X140273009Y-94295991D01*
X141970013Y-90312987D02*
X140273010Y-92009990D01*
X141970013Y-84705315D02*
X141970013Y-90312987D01*
X140716000Y-83451302D02*
X141970013Y-84705315D01*
X140716000Y-79756998D02*
X140716000Y-83451302D01*
X140253999Y-94315001D02*
X139954000Y-94615000D01*
X142205999Y-78266999D02*
X140716000Y-79756998D01*
X153680999Y-78867000D02*
X153080998Y-78266999D01*
X155566000Y-78867000D02*
X153680999Y-78867000D01*
X153080998Y-78266999D02*
X142205999Y-78266999D01*
X133257990Y-95631000D02*
X129921000Y-95631000D01*
X129921000Y-95631000D02*
X128778000Y-94488000D01*
X133096000Y-93726000D02*
X133223000Y-93853000D01*
X127127000Y-93726000D02*
X133096000Y-93726000D01*
X142310298Y-77597000D02*
X140315989Y-79591309D01*
X141570002Y-84871004D02*
X141570002Y-89569998D01*
X141570002Y-89569998D02*
X139872999Y-91267001D01*
X139872999Y-91267001D02*
X139872999Y-93553001D01*
X140315989Y-79591309D02*
X140315989Y-83616991D01*
X139872999Y-93553001D02*
X139573000Y-93853000D01*
X140315989Y-83616991D02*
X141570002Y-84871004D01*
X155566000Y-77597000D02*
X142310298Y-77597000D01*
X173609000Y-89535000D02*
X174879000Y-88265000D01*
X170307000Y-89535000D02*
X173609000Y-89535000D01*
X170307000Y-90185000D02*
X170307000Y-89535000D01*
X170307000Y-91449500D02*
X170307000Y-90185000D01*
X169300500Y-92456000D02*
X170307000Y-91449500D01*
X168656000Y-92456000D02*
X169300500Y-92456000D01*
X169672000Y-93472000D02*
X168656000Y-92456000D01*
X169672000Y-93726000D02*
X169672000Y-93472000D01*
X171332500Y-95377000D02*
X169300500Y-95377000D01*
X174879000Y-91830500D02*
X171332500Y-95377000D01*
X174879000Y-90805000D02*
X174879000Y-91830500D01*
X169300500Y-95377000D02*
X168656000Y-95377000D01*
X169657000Y-99949000D02*
X170307000Y-99949000D01*
X168656000Y-98948000D02*
X169657000Y-99949000D01*
X168656000Y-95377000D02*
X168656000Y-98948000D01*
X174498000Y-99949000D02*
X174879000Y-99568000D01*
X170307000Y-99949000D02*
X174498000Y-99949000D01*
X167132000Y-94732500D02*
X167132000Y-95377000D01*
X164675000Y-88779000D02*
X165233000Y-88779000D01*
X165481000Y-89027000D02*
X165481000Y-92285998D01*
X165233000Y-88779000D02*
X165481000Y-89027000D01*
X165481000Y-92285998D02*
X167132000Y-93936998D01*
X167132000Y-93936998D02*
X167132000Y-94732500D01*
X167132000Y-92456000D02*
X166487500Y-92456000D01*
X165881011Y-88861311D02*
X165298700Y-88279000D01*
X165881011Y-91849511D02*
X165881011Y-88861311D01*
X165250000Y-88279000D02*
X164675000Y-88279000D01*
X165298700Y-88279000D02*
X165250000Y-88279000D01*
X166487500Y-92456000D02*
X165881011Y-91849511D01*
X162042500Y-95377000D02*
X162687000Y-95377000D01*
X161755000Y-95089500D02*
X162042500Y-95377000D01*
X161755000Y-88739000D02*
X161755000Y-95089500D01*
X143764000Y-119253000D02*
X143637000Y-119253000D01*
X141986000Y-119253000D02*
X143764000Y-119253000D01*
X125124000Y-67056000D02*
X125023999Y-67156001D01*
X134493000Y-80263002D02*
X134493000Y-111760000D01*
X125023999Y-70794001D02*
X134493000Y-80263002D01*
X126074000Y-67056000D02*
X125124000Y-67056000D01*
X125023999Y-67156001D02*
X125023999Y-70794001D01*
X134493000Y-111760000D02*
X141986000Y-119253000D01*
X155702000Y-114681000D02*
X151130000Y-119253000D01*
X163159000Y-118400000D02*
X163668001Y-117890999D01*
X162686012Y-114681000D02*
X155702000Y-114681000D01*
X151130000Y-119253000D02*
X143764000Y-119253000D01*
X162520000Y-118400000D02*
X163159000Y-118400000D01*
X163668001Y-117890999D02*
X163668001Y-115662989D01*
X163668001Y-115662989D02*
X162686012Y-114681000D01*
D33*
G36*
X164446271Y-91196068D02*
G01*
X164626911Y-91232000D01*
X164746001Y-91232000D01*
X164746001Y-91376300D01*
X164661000Y-91367928D01*
X164496750Y-91371000D01*
X164338000Y-91529750D01*
X164338000Y-92329000D01*
X164358000Y-92329000D01*
X164358000Y-92583000D01*
X164338000Y-92583000D01*
X164338000Y-93382250D01*
X164496750Y-93541000D01*
X164661000Y-93544072D01*
X164785482Y-93531812D01*
X164905180Y-93495502D01*
X165015494Y-93436537D01*
X165112185Y-93357185D01*
X165191537Y-93260494D01*
X165250502Y-93150180D01*
X165263357Y-93107802D01*
X166397000Y-94241445D01*
X166397000Y-94367757D01*
X166333006Y-94401963D01*
X166236315Y-94481315D01*
X166156963Y-94578006D01*
X166097998Y-94688320D01*
X166061688Y-94808018D01*
X166049428Y-94932500D01*
X166049428Y-95821500D01*
X166061688Y-95945982D01*
X166097998Y-96065680D01*
X166156963Y-96175994D01*
X166236315Y-96272685D01*
X166333006Y-96352037D01*
X166443320Y-96411002D01*
X166563018Y-96447312D01*
X166687500Y-96459572D01*
X167576500Y-96459572D01*
X167700982Y-96447312D01*
X167820680Y-96411002D01*
X167894000Y-96371811D01*
X167921000Y-96386243D01*
X167921001Y-98911885D01*
X167917444Y-98948000D01*
X167931635Y-99092085D01*
X167971845Y-99224636D01*
X167973664Y-99230633D01*
X168041914Y-99358320D01*
X168133763Y-99470238D01*
X168161808Y-99493254D01*
X169111746Y-100443193D01*
X169134762Y-100471238D01*
X169242049Y-100559287D01*
X169267498Y-100643180D01*
X169326463Y-100753494D01*
X169405815Y-100850185D01*
X169502506Y-100929537D01*
X169612820Y-100988502D01*
X169732518Y-101024812D01*
X169857000Y-101037072D01*
X170757000Y-101037072D01*
X170881482Y-101024812D01*
X171001180Y-100988502D01*
X171111494Y-100929537D01*
X171208185Y-100850185D01*
X171287537Y-100753494D01*
X171324683Y-100684000D01*
X173488757Y-100684000D01*
X173522963Y-100747994D01*
X173602315Y-100844685D01*
X173699006Y-100924037D01*
X173809320Y-100983002D01*
X173929018Y-101019312D01*
X174053500Y-101031572D01*
X175704500Y-101031572D01*
X175828982Y-101019312D01*
X175948680Y-100983002D01*
X176058994Y-100924037D01*
X176090000Y-100898591D01*
X176090000Y-122920000D01*
X117410000Y-122920000D01*
X117410000Y-119349872D01*
X118515000Y-119349872D01*
X118515000Y-119790128D01*
X118600890Y-120221925D01*
X118769369Y-120628669D01*
X119013962Y-120994729D01*
X119325271Y-121306038D01*
X119691331Y-121550631D01*
X120098075Y-121719110D01*
X120529872Y-121805000D01*
X120970128Y-121805000D01*
X121401925Y-121719110D01*
X121808669Y-121550631D01*
X122174729Y-121306038D01*
X122486038Y-120994729D01*
X122730631Y-120628669D01*
X122899110Y-120221925D01*
X122985000Y-119790128D01*
X122985000Y-119349872D01*
X122899110Y-118918075D01*
X122730631Y-118511331D01*
X122486038Y-118145271D01*
X122174729Y-117833962D01*
X121808669Y-117589369D01*
X121401925Y-117420890D01*
X120970128Y-117335000D01*
X120529872Y-117335000D01*
X120098075Y-117420890D01*
X119691331Y-117589369D01*
X119325271Y-117833962D01*
X119013962Y-118145271D01*
X118769369Y-118511331D01*
X118600890Y-118918075D01*
X118515000Y-119349872D01*
X117410000Y-119349872D01*
X117410000Y-113347053D01*
X117438006Y-113370037D01*
X117548320Y-113429002D01*
X117668018Y-113465312D01*
X117792500Y-113477572D01*
X119443500Y-113477572D01*
X119567982Y-113465312D01*
X119687680Y-113429002D01*
X119797994Y-113370037D01*
X119894685Y-113290685D01*
X119974037Y-113193994D01*
X120033002Y-113083680D01*
X120069312Y-112963982D01*
X120081572Y-112839500D01*
X120081572Y-112749000D01*
X122899895Y-112749000D01*
X122936000Y-112752556D01*
X122972105Y-112749000D01*
X123080085Y-112738365D01*
X123218633Y-112696337D01*
X123346320Y-112628087D01*
X123458238Y-112536238D01*
X123481259Y-112508188D01*
X124991447Y-110998000D01*
X125757001Y-110998000D01*
X125757001Y-118186552D01*
X125489808Y-118453746D01*
X125461762Y-118476763D01*
X125369913Y-118588681D01*
X125301663Y-118716368D01*
X125286485Y-118766403D01*
X125259635Y-118854915D01*
X125245444Y-118999000D01*
X125249000Y-119035105D01*
X125249001Y-121192885D01*
X125245444Y-121229000D01*
X125259635Y-121373085D01*
X125292524Y-121481502D01*
X125301664Y-121511633D01*
X125369914Y-121639320D01*
X125461763Y-121751238D01*
X125489808Y-121774254D01*
X125786741Y-122071187D01*
X125809762Y-122099238D01*
X125903712Y-122176341D01*
X125906188Y-122201482D01*
X125942498Y-122321180D01*
X126001463Y-122431494D01*
X126080815Y-122528185D01*
X126177506Y-122607537D01*
X126287820Y-122666502D01*
X126407518Y-122702812D01*
X126532000Y-122715072D01*
X127432000Y-122715072D01*
X127556482Y-122702812D01*
X127676180Y-122666502D01*
X127786494Y-122607537D01*
X127883185Y-122528185D01*
X127962537Y-122431494D01*
X128021502Y-122321180D01*
X128024287Y-122312000D01*
X130039713Y-122312000D01*
X130042498Y-122321180D01*
X130101463Y-122431494D01*
X130180815Y-122528185D01*
X130277506Y-122607537D01*
X130387820Y-122666502D01*
X130507518Y-122702812D01*
X130632000Y-122715072D01*
X131532000Y-122715072D01*
X131656482Y-122702812D01*
X131776180Y-122666502D01*
X131886494Y-122607537D01*
X131983185Y-122528185D01*
X132062537Y-122431494D01*
X132121502Y-122321180D01*
X132124287Y-122312000D01*
X133671765Y-122312000D01*
X133676688Y-122361982D01*
X133712998Y-122481680D01*
X133771963Y-122591994D01*
X133851315Y-122688685D01*
X133948006Y-122768037D01*
X134058320Y-122827002D01*
X134178018Y-122863312D01*
X134302500Y-122875572D01*
X135953500Y-122875572D01*
X136077982Y-122863312D01*
X136197680Y-122827002D01*
X136307994Y-122768037D01*
X136404685Y-122688685D01*
X136484037Y-122591994D01*
X136543002Y-122481680D01*
X136560829Y-122422909D01*
X136836696Y-122422909D01*
X136911367Y-122669481D01*
X137171228Y-122792931D01*
X137450180Y-122863313D01*
X137737502Y-122877921D01*
X138022154Y-122836194D01*
X138293196Y-122739737D01*
X138424633Y-122669481D01*
X138499304Y-122422909D01*
X137668000Y-121591605D01*
X136836696Y-122422909D01*
X136560829Y-122422909D01*
X136579312Y-122361982D01*
X136591572Y-122237500D01*
X136591572Y-122223462D01*
X136657091Y-122243304D01*
X137488395Y-121412000D01*
X137847605Y-121412000D01*
X138678909Y-122243304D01*
X138925481Y-122168633D01*
X139048931Y-121908772D01*
X139119313Y-121629820D01*
X139126269Y-121493000D01*
X141407000Y-121493000D01*
X141407000Y-121893000D01*
X141452624Y-122102233D01*
X141538191Y-122298545D01*
X141660413Y-122474391D01*
X141814592Y-122623014D01*
X141994803Y-122738702D01*
X142197999Y-122810408D01*
X142365000Y-122683502D01*
X142365000Y-121493000D01*
X142619000Y-121493000D01*
X142619000Y-122683502D01*
X142786001Y-122810408D01*
X142989197Y-122738702D01*
X143169408Y-122623014D01*
X143323587Y-122474391D01*
X143445809Y-122298545D01*
X143531376Y-122102233D01*
X143577000Y-121893000D01*
X143577000Y-121493000D01*
X150047000Y-121493000D01*
X150047000Y-121893000D01*
X150092624Y-122102233D01*
X150178191Y-122298545D01*
X150300413Y-122474391D01*
X150454592Y-122623014D01*
X150634803Y-122738702D01*
X150837999Y-122810408D01*
X151005000Y-122683502D01*
X151005000Y-121493000D01*
X151259000Y-121493000D01*
X151259000Y-122683502D01*
X151426001Y-122810408D01*
X151629197Y-122738702D01*
X151809408Y-122623014D01*
X151963587Y-122474391D01*
X152085809Y-122298545D01*
X152171376Y-122102233D01*
X152217000Y-121893000D01*
X152217000Y-121493000D01*
X151259000Y-121493000D01*
X151005000Y-121493000D01*
X150047000Y-121493000D01*
X143577000Y-121493000D01*
X142619000Y-121493000D01*
X142365000Y-121493000D01*
X141407000Y-121493000D01*
X139126269Y-121493000D01*
X139133921Y-121342498D01*
X139092194Y-121057846D01*
X138995737Y-120786804D01*
X138925481Y-120655367D01*
X138678909Y-120580696D01*
X137847605Y-121412000D01*
X137488395Y-121412000D01*
X136657091Y-120580696D01*
X136591572Y-120600538D01*
X136591572Y-120586500D01*
X136579312Y-120462018D01*
X136560830Y-120401091D01*
X136836696Y-120401091D01*
X137668000Y-121232395D01*
X138499304Y-120401091D01*
X138424633Y-120154519D01*
X138164772Y-120031069D01*
X137885820Y-119960687D01*
X137598498Y-119946079D01*
X137313846Y-119987806D01*
X137042804Y-120084263D01*
X136911367Y-120154519D01*
X136836696Y-120401091D01*
X136560830Y-120401091D01*
X136543002Y-120342320D01*
X136484037Y-120232006D01*
X136404685Y-120135315D01*
X136307994Y-120055963D01*
X136197680Y-119996998D01*
X136077982Y-119960688D01*
X135953500Y-119948428D01*
X134302500Y-119948428D01*
X134178018Y-119960688D01*
X134058320Y-119996998D01*
X133948006Y-120055963D01*
X133851315Y-120135315D01*
X133771963Y-120232006D01*
X133712998Y-120342320D01*
X133676688Y-120462018D01*
X133664428Y-120586500D01*
X133664428Y-120842000D01*
X132124287Y-120842000D01*
X132121502Y-120832820D01*
X132091665Y-120777000D01*
X132121502Y-120721180D01*
X132157812Y-120601482D01*
X132170072Y-120477000D01*
X132167000Y-120262750D01*
X132008250Y-120104000D01*
X131209000Y-120104000D01*
X131209000Y-120124000D01*
X130955000Y-120124000D01*
X130955000Y-120104000D01*
X130155750Y-120104000D01*
X129997000Y-120262750D01*
X129993928Y-120477000D01*
X130006188Y-120601482D01*
X130042498Y-120721180D01*
X130072335Y-120777000D01*
X130042498Y-120832820D01*
X130039713Y-120842000D01*
X128024287Y-120842000D01*
X128021502Y-120832820D01*
X127991665Y-120777000D01*
X128021502Y-120721180D01*
X128057812Y-120601482D01*
X128070072Y-120477000D01*
X128067000Y-120262750D01*
X127908250Y-120104000D01*
X127109000Y-120104000D01*
X127109000Y-120124000D01*
X126855000Y-120124000D01*
X126855000Y-120104000D01*
X126835000Y-120104000D01*
X126835000Y-119850000D01*
X126855000Y-119850000D01*
X126855000Y-119830000D01*
X127109000Y-119830000D01*
X127109000Y-119850000D01*
X127908250Y-119850000D01*
X128067000Y-119691250D01*
X128070072Y-119477000D01*
X129993928Y-119477000D01*
X129997000Y-119691250D01*
X130155750Y-119850000D01*
X130955000Y-119850000D01*
X130955000Y-119000750D01*
X131209000Y-119000750D01*
X131209000Y-119850000D01*
X132008250Y-119850000D01*
X132167000Y-119691250D01*
X132170072Y-119477000D01*
X132157812Y-119352518D01*
X132121502Y-119232820D01*
X132062537Y-119122506D01*
X131983185Y-119025815D01*
X131886494Y-118946463D01*
X131776180Y-118887498D01*
X131656482Y-118851188D01*
X131532000Y-118838928D01*
X131367750Y-118842000D01*
X131209000Y-119000750D01*
X130955000Y-119000750D01*
X130796250Y-118842000D01*
X130632000Y-118838928D01*
X130507518Y-118851188D01*
X130387820Y-118887498D01*
X130277506Y-118946463D01*
X130180815Y-119025815D01*
X130101463Y-119122506D01*
X130042498Y-119232820D01*
X130006188Y-119352518D01*
X129993928Y-119477000D01*
X128070072Y-119477000D01*
X128057812Y-119352518D01*
X128021502Y-119232820D01*
X128006363Y-119204497D01*
X128006333Y-119204399D01*
X127994597Y-119182443D01*
X127994532Y-119182364D01*
X127962537Y-119122506D01*
X127883185Y-119025815D01*
X127786494Y-118946463D01*
X127734021Y-118918415D01*
X127227000Y-118411394D01*
X127227000Y-107613426D01*
X127399729Y-107579068D01*
X127569889Y-107508586D01*
X127723028Y-107406262D01*
X127853262Y-107276028D01*
X127955586Y-107122889D01*
X128026068Y-106952729D01*
X128058932Y-106787514D01*
X132611447Y-102235000D01*
X133758001Y-102235000D01*
X133758001Y-111723885D01*
X133754444Y-111760000D01*
X133768635Y-111904085D01*
X133801978Y-112014000D01*
X133810664Y-112042633D01*
X133878914Y-112170320D01*
X133970763Y-112282238D01*
X133998808Y-112305254D01*
X141440746Y-119747193D01*
X141463762Y-119775238D01*
X141478000Y-119786923D01*
X141478000Y-120571548D01*
X141452624Y-120629767D01*
X141407000Y-120839000D01*
X141407000Y-121239000D01*
X142365000Y-121239000D01*
X142365000Y-121219000D01*
X142619000Y-121219000D01*
X142619000Y-121239000D01*
X143577000Y-121239000D01*
X143577000Y-120839000D01*
X143531376Y-120629767D01*
X143510000Y-120580725D01*
X143510000Y-119988000D01*
X150114000Y-119988000D01*
X150114000Y-120580725D01*
X150092624Y-120629767D01*
X150047000Y-120839000D01*
X150047000Y-121239000D01*
X151005000Y-121239000D01*
X151005000Y-121219000D01*
X151259000Y-121219000D01*
X151259000Y-121239000D01*
X152217000Y-121239000D01*
X152217000Y-120839000D01*
X152171376Y-120629767D01*
X152146000Y-120571548D01*
X152146000Y-119276446D01*
X154836447Y-116586000D01*
X155794714Y-116586000D01*
X155810998Y-116639680D01*
X155869963Y-116749994D01*
X155949315Y-116846685D01*
X156046006Y-116926037D01*
X156156320Y-116985002D01*
X156232892Y-117008230D01*
X156322763Y-117117738D01*
X156350808Y-117140754D01*
X159704246Y-120494193D01*
X159727262Y-120522238D01*
X159839180Y-120614087D01*
X159966867Y-120682337D01*
X160047389Y-120706763D01*
X160105414Y-120724365D01*
X160249499Y-120738556D01*
X160285604Y-120735000D01*
X161177713Y-120735000D01*
X161180498Y-120744180D01*
X161210335Y-120800000D01*
X161180498Y-120855820D01*
X161144188Y-120975518D01*
X161131928Y-121100000D01*
X161131928Y-122100000D01*
X161144188Y-122224482D01*
X161180498Y-122344180D01*
X161239463Y-122454494D01*
X161318815Y-122551185D01*
X161415506Y-122630537D01*
X161525820Y-122689502D01*
X161645518Y-122725812D01*
X161770000Y-122738072D01*
X163270000Y-122738072D01*
X163394482Y-122725812D01*
X163514180Y-122689502D01*
X163624494Y-122630537D01*
X163721185Y-122551185D01*
X163800537Y-122454494D01*
X163816511Y-122424610D01*
X163833689Y-122422918D01*
X163991087Y-122375172D01*
X164136146Y-122297636D01*
X164263291Y-122193291D01*
X164289445Y-122161422D01*
X164772426Y-121678442D01*
X164804291Y-121652291D01*
X164908636Y-121525146D01*
X164986172Y-121380087D01*
X165033918Y-121222689D01*
X165046000Y-121100019D01*
X165046000Y-121100018D01*
X165050040Y-121059000D01*
X165046000Y-121017982D01*
X165046000Y-116057606D01*
X165751915Y-115351691D01*
X165880729Y-115326068D01*
X165905036Y-115316000D01*
X166597000Y-115316000D01*
X166597000Y-116072130D01*
X165708572Y-116960559D01*
X165676708Y-116986709D01*
X165572364Y-117113853D01*
X165572363Y-117113854D01*
X165494827Y-117258913D01*
X165447081Y-117416311D01*
X165430959Y-117579999D01*
X165434999Y-117621018D01*
X165435001Y-119058972D01*
X165430960Y-119100000D01*
X165447082Y-119263688D01*
X165494828Y-119421086D01*
X165572364Y-119566145D01*
X165572365Y-119566146D01*
X165676710Y-119693291D01*
X165708574Y-119719441D01*
X166031928Y-120042795D01*
X166031928Y-120500000D01*
X166044188Y-120624482D01*
X166080498Y-120744180D01*
X166110335Y-120800000D01*
X166080498Y-120855820D01*
X166044188Y-120975518D01*
X166031928Y-121100000D01*
X166031928Y-122100000D01*
X166044188Y-122224482D01*
X166080498Y-122344180D01*
X166139463Y-122454494D01*
X166218815Y-122551185D01*
X166315506Y-122630537D01*
X166425820Y-122689502D01*
X166545518Y-122725812D01*
X166670000Y-122738072D01*
X168170000Y-122738072D01*
X168294482Y-122725812D01*
X168414180Y-122689502D01*
X168524494Y-122630537D01*
X168621185Y-122551185D01*
X168700537Y-122454494D01*
X168759502Y-122344180D01*
X168795812Y-122224482D01*
X168808072Y-122100000D01*
X168808072Y-121100000D01*
X168795812Y-120975518D01*
X168759502Y-120855820D01*
X168729665Y-120800000D01*
X168759502Y-120744180D01*
X168795812Y-120624482D01*
X168808072Y-120500000D01*
X168808072Y-119500000D01*
X168795812Y-119375518D01*
X168791066Y-119359872D01*
X170515000Y-119359872D01*
X170515000Y-119800128D01*
X170600890Y-120231925D01*
X170769369Y-120638669D01*
X171013962Y-121004729D01*
X171325271Y-121316038D01*
X171691331Y-121560631D01*
X172098075Y-121729110D01*
X172529872Y-121815000D01*
X172970128Y-121815000D01*
X173401925Y-121729110D01*
X173808669Y-121560631D01*
X174174729Y-121316038D01*
X174486038Y-121004729D01*
X174730631Y-120638669D01*
X174899110Y-120231925D01*
X174985000Y-119800128D01*
X174985000Y-119359872D01*
X174899110Y-118928075D01*
X174730631Y-118521331D01*
X174486038Y-118155271D01*
X174174729Y-117843962D01*
X173808669Y-117599369D01*
X173401925Y-117430890D01*
X172970128Y-117345000D01*
X172529872Y-117345000D01*
X172098075Y-117430890D01*
X171691331Y-117599369D01*
X171325271Y-117843962D01*
X171013962Y-118155271D01*
X170769369Y-118521331D01*
X170600890Y-118928075D01*
X170515000Y-119359872D01*
X168791066Y-119359872D01*
X168759502Y-119255820D01*
X168729665Y-119200000D01*
X168759502Y-119144180D01*
X168795812Y-119024482D01*
X168808072Y-118900000D01*
X168805000Y-118685750D01*
X168646250Y-118527000D01*
X167547000Y-118527000D01*
X167547000Y-118547000D01*
X167293000Y-118547000D01*
X167293000Y-118527000D01*
X167273000Y-118527000D01*
X167273000Y-118273000D01*
X167293000Y-118273000D01*
X167293000Y-118253000D01*
X167547000Y-118253000D01*
X167547000Y-118273000D01*
X168646250Y-118273000D01*
X168805000Y-118114250D01*
X168808072Y-117900000D01*
X168795812Y-117775518D01*
X168759502Y-117655820D01*
X168700537Y-117545506D01*
X168621185Y-117448815D01*
X168524494Y-117369463D01*
X168414180Y-117310498D01*
X168294482Y-117274188D01*
X168170000Y-117261928D01*
X167766266Y-117264600D01*
X167993425Y-117037441D01*
X168025290Y-117011290D01*
X168129635Y-116884145D01*
X168207171Y-116739086D01*
X168254917Y-116581688D01*
X168266999Y-116459018D01*
X168271039Y-116418000D01*
X168266999Y-116376981D01*
X168266999Y-103465017D01*
X168271039Y-103423999D01*
X168259952Y-103311428D01*
X168254917Y-103260310D01*
X168207171Y-103102912D01*
X168129635Y-102957853D01*
X168025290Y-102830708D01*
X168021140Y-102827302D01*
X167960586Y-102681111D01*
X167858262Y-102527972D01*
X167728028Y-102397738D01*
X167574889Y-102295414D01*
X167404729Y-102224932D01*
X167232000Y-102190574D01*
X167232000Y-101334096D01*
X167235555Y-101297999D01*
X167232000Y-101261902D01*
X167232000Y-101261895D01*
X167221365Y-101153915D01*
X167179337Y-101015367D01*
X167111087Y-100887680D01*
X167080315Y-100850185D01*
X167042253Y-100803806D01*
X167042250Y-100803803D01*
X167019237Y-100775762D01*
X166991198Y-100752751D01*
X164844368Y-98605922D01*
X164937262Y-98513028D01*
X165039586Y-98359889D01*
X165110068Y-98189729D01*
X165146000Y-98009089D01*
X165146000Y-97824911D01*
X165110068Y-97644271D01*
X165046000Y-97489596D01*
X165046000Y-96322488D01*
X165106685Y-96272685D01*
X165186037Y-96175994D01*
X165245002Y-96065680D01*
X165281312Y-95945982D01*
X165293572Y-95821500D01*
X165293572Y-94932500D01*
X165281312Y-94808018D01*
X165245002Y-94688320D01*
X165186037Y-94578006D01*
X165106685Y-94481315D01*
X165009994Y-94401963D01*
X164899680Y-94342998D01*
X164846200Y-94326775D01*
X164804291Y-94275709D01*
X164772428Y-94249560D01*
X163994559Y-93471691D01*
X164084000Y-93382250D01*
X164084000Y-92583000D01*
X164064000Y-92583000D01*
X164064000Y-92329000D01*
X164084000Y-92329000D01*
X164084000Y-91529750D01*
X163987348Y-91433098D01*
X164289369Y-91131078D01*
X164446271Y-91196068D01*
G37*
X164446271Y-91196068D02*
X164626911Y-91232000D01*
X164746001Y-91232000D01*
X164746001Y-91376300D01*
X164661000Y-91367928D01*
X164496750Y-91371000D01*
X164338000Y-91529750D01*
X164338000Y-92329000D01*
X164358000Y-92329000D01*
X164358000Y-92583000D01*
X164338000Y-92583000D01*
X164338000Y-93382250D01*
X164496750Y-93541000D01*
X164661000Y-93544072D01*
X164785482Y-93531812D01*
X164905180Y-93495502D01*
X165015494Y-93436537D01*
X165112185Y-93357185D01*
X165191537Y-93260494D01*
X165250502Y-93150180D01*
X165263357Y-93107802D01*
X166397000Y-94241445D01*
X166397000Y-94367757D01*
X166333006Y-94401963D01*
X166236315Y-94481315D01*
X166156963Y-94578006D01*
X166097998Y-94688320D01*
X166061688Y-94808018D01*
X166049428Y-94932500D01*
X166049428Y-95821500D01*
X166061688Y-95945982D01*
X166097998Y-96065680D01*
X166156963Y-96175994D01*
X166236315Y-96272685D01*
X166333006Y-96352037D01*
X166443320Y-96411002D01*
X166563018Y-96447312D01*
X166687500Y-96459572D01*
X167576500Y-96459572D01*
X167700982Y-96447312D01*
X167820680Y-96411002D01*
X167894000Y-96371811D01*
X167921000Y-96386243D01*
X167921001Y-98911885D01*
X167917444Y-98948000D01*
X167931635Y-99092085D01*
X167971845Y-99224636D01*
X167973664Y-99230633D01*
X168041914Y-99358320D01*
X168133763Y-99470238D01*
X168161808Y-99493254D01*
X169111746Y-100443193D01*
X169134762Y-100471238D01*
X169242049Y-100559287D01*
X169267498Y-100643180D01*
X169326463Y-100753494D01*
X169405815Y-100850185D01*
X169502506Y-100929537D01*
X169612820Y-100988502D01*
X169732518Y-101024812D01*
X169857000Y-101037072D01*
X170757000Y-101037072D01*
X170881482Y-101024812D01*
X171001180Y-100988502D01*
X171111494Y-100929537D01*
X171208185Y-100850185D01*
X171287537Y-100753494D01*
X171324683Y-100684000D01*
X173488757Y-100684000D01*
X173522963Y-100747994D01*
X173602315Y-100844685D01*
X173699006Y-100924037D01*
X173809320Y-100983002D01*
X173929018Y-101019312D01*
X174053500Y-101031572D01*
X175704500Y-101031572D01*
X175828982Y-101019312D01*
X175948680Y-100983002D01*
X176058994Y-100924037D01*
X176090000Y-100898591D01*
X176090000Y-122920000D01*
X117410000Y-122920000D01*
X117410000Y-119349872D01*
X118515000Y-119349872D01*
X118515000Y-119790128D01*
X118600890Y-120221925D01*
X118769369Y-120628669D01*
X119013962Y-120994729D01*
X119325271Y-121306038D01*
X119691331Y-121550631D01*
X120098075Y-121719110D01*
X120529872Y-121805000D01*
X120970128Y-121805000D01*
X121401925Y-121719110D01*
X121808669Y-121550631D01*
X122174729Y-121306038D01*
X122486038Y-120994729D01*
X122730631Y-120628669D01*
X122899110Y-120221925D01*
X122985000Y-119790128D01*
X122985000Y-119349872D01*
X122899110Y-118918075D01*
X122730631Y-118511331D01*
X122486038Y-118145271D01*
X122174729Y-117833962D01*
X121808669Y-117589369D01*
X121401925Y-117420890D01*
X120970128Y-117335000D01*
X120529872Y-117335000D01*
X120098075Y-117420890D01*
X119691331Y-117589369D01*
X119325271Y-117833962D01*
X119013962Y-118145271D01*
X118769369Y-118511331D01*
X118600890Y-118918075D01*
X118515000Y-119349872D01*
X117410000Y-119349872D01*
X117410000Y-113347053D01*
X117438006Y-113370037D01*
X117548320Y-113429002D01*
X117668018Y-113465312D01*
X117792500Y-113477572D01*
X119443500Y-113477572D01*
X119567982Y-113465312D01*
X119687680Y-113429002D01*
X119797994Y-113370037D01*
X119894685Y-113290685D01*
X119974037Y-113193994D01*
X120033002Y-113083680D01*
X120069312Y-112963982D01*
X120081572Y-112839500D01*
X120081572Y-112749000D01*
X122899895Y-112749000D01*
X122936000Y-112752556D01*
X122972105Y-112749000D01*
X123080085Y-112738365D01*
X123218633Y-112696337D01*
X123346320Y-112628087D01*
X123458238Y-112536238D01*
X123481259Y-112508188D01*
X124991447Y-110998000D01*
X125757001Y-110998000D01*
X125757001Y-118186552D01*
X125489808Y-118453746D01*
X125461762Y-118476763D01*
X125369913Y-118588681D01*
X125301663Y-118716368D01*
X125286485Y-118766403D01*
X125259635Y-118854915D01*
X125245444Y-118999000D01*
X125249000Y-119035105D01*
X125249001Y-121192885D01*
X125245444Y-121229000D01*
X125259635Y-121373085D01*
X125292524Y-121481502D01*
X125301664Y-121511633D01*
X125369914Y-121639320D01*
X125461763Y-121751238D01*
X125489808Y-121774254D01*
X125786741Y-122071187D01*
X125809762Y-122099238D01*
X125903712Y-122176341D01*
X125906188Y-122201482D01*
X125942498Y-122321180D01*
X126001463Y-122431494D01*
X126080815Y-122528185D01*
X126177506Y-122607537D01*
X126287820Y-122666502D01*
X126407518Y-122702812D01*
X126532000Y-122715072D01*
X127432000Y-122715072D01*
X127556482Y-122702812D01*
X127676180Y-122666502D01*
X127786494Y-122607537D01*
X127883185Y-122528185D01*
X127962537Y-122431494D01*
X128021502Y-122321180D01*
X128024287Y-122312000D01*
X130039713Y-122312000D01*
X130042498Y-122321180D01*
X130101463Y-122431494D01*
X130180815Y-122528185D01*
X130277506Y-122607537D01*
X130387820Y-122666502D01*
X130507518Y-122702812D01*
X130632000Y-122715072D01*
X131532000Y-122715072D01*
X131656482Y-122702812D01*
X131776180Y-122666502D01*
X131886494Y-122607537D01*
X131983185Y-122528185D01*
X132062537Y-122431494D01*
X132121502Y-122321180D01*
X132124287Y-122312000D01*
X133671765Y-122312000D01*
X133676688Y-122361982D01*
X133712998Y-122481680D01*
X133771963Y-122591994D01*
X133851315Y-122688685D01*
X133948006Y-122768037D01*
X134058320Y-122827002D01*
X134178018Y-122863312D01*
X134302500Y-122875572D01*
X135953500Y-122875572D01*
X136077982Y-122863312D01*
X136197680Y-122827002D01*
X136307994Y-122768037D01*
X136404685Y-122688685D01*
X136484037Y-122591994D01*
X136543002Y-122481680D01*
X136560829Y-122422909D01*
X136836696Y-122422909D01*
X136911367Y-122669481D01*
X137171228Y-122792931D01*
X137450180Y-122863313D01*
X137737502Y-122877921D01*
X138022154Y-122836194D01*
X138293196Y-122739737D01*
X138424633Y-122669481D01*
X138499304Y-122422909D01*
X137668000Y-121591605D01*
X136836696Y-122422909D01*
X136560829Y-122422909D01*
X136579312Y-122361982D01*
X136591572Y-122237500D01*
X136591572Y-122223462D01*
X136657091Y-122243304D01*
X137488395Y-121412000D01*
X137847605Y-121412000D01*
X138678909Y-122243304D01*
X138925481Y-122168633D01*
X139048931Y-121908772D01*
X139119313Y-121629820D01*
X139126269Y-121493000D01*
X141407000Y-121493000D01*
X141407000Y-121893000D01*
X141452624Y-122102233D01*
X141538191Y-122298545D01*
X141660413Y-122474391D01*
X141814592Y-122623014D01*
X141994803Y-122738702D01*
X142197999Y-122810408D01*
X142365000Y-122683502D01*
X142365000Y-121493000D01*
X142619000Y-121493000D01*
X142619000Y-122683502D01*
X142786001Y-122810408D01*
X142989197Y-122738702D01*
X143169408Y-122623014D01*
X143323587Y-122474391D01*
X143445809Y-122298545D01*
X143531376Y-122102233D01*
X143577000Y-121893000D01*
X143577000Y-121493000D01*
X150047000Y-121493000D01*
X150047000Y-121893000D01*
X150092624Y-122102233D01*
X150178191Y-122298545D01*
X150300413Y-122474391D01*
X150454592Y-122623014D01*
X150634803Y-122738702D01*
X150837999Y-122810408D01*
X151005000Y-122683502D01*
X151005000Y-121493000D01*
X151259000Y-121493000D01*
X151259000Y-122683502D01*
X151426001Y-122810408D01*
X151629197Y-122738702D01*
X151809408Y-122623014D01*
X151963587Y-122474391D01*
X152085809Y-122298545D01*
X152171376Y-122102233D01*
X152217000Y-121893000D01*
X152217000Y-121493000D01*
X151259000Y-121493000D01*
X151005000Y-121493000D01*
X150047000Y-121493000D01*
X143577000Y-121493000D01*
X142619000Y-121493000D01*
X142365000Y-121493000D01*
X141407000Y-121493000D01*
X139126269Y-121493000D01*
X139133921Y-121342498D01*
X139092194Y-121057846D01*
X138995737Y-120786804D01*
X138925481Y-120655367D01*
X138678909Y-120580696D01*
X137847605Y-121412000D01*
X137488395Y-121412000D01*
X136657091Y-120580696D01*
X136591572Y-120600538D01*
X136591572Y-120586500D01*
X136579312Y-120462018D01*
X136560830Y-120401091D01*
X136836696Y-120401091D01*
X137668000Y-121232395D01*
X138499304Y-120401091D01*
X138424633Y-120154519D01*
X138164772Y-120031069D01*
X137885820Y-119960687D01*
X137598498Y-119946079D01*
X137313846Y-119987806D01*
X137042804Y-120084263D01*
X136911367Y-120154519D01*
X136836696Y-120401091D01*
X136560830Y-120401091D01*
X136543002Y-120342320D01*
X136484037Y-120232006D01*
X136404685Y-120135315D01*
X136307994Y-120055963D01*
X136197680Y-119996998D01*
X136077982Y-119960688D01*
X135953500Y-119948428D01*
X134302500Y-119948428D01*
X134178018Y-119960688D01*
X134058320Y-119996998D01*
X133948006Y-120055963D01*
X133851315Y-120135315D01*
X133771963Y-120232006D01*
X133712998Y-120342320D01*
X133676688Y-120462018D01*
X133664428Y-120586500D01*
X133664428Y-120842000D01*
X132124287Y-120842000D01*
X132121502Y-120832820D01*
X132091665Y-120777000D01*
X132121502Y-120721180D01*
X132157812Y-120601482D01*
X132170072Y-120477000D01*
X132167000Y-120262750D01*
X132008250Y-120104000D01*
X131209000Y-120104000D01*
X131209000Y-120124000D01*
X130955000Y-120124000D01*
X130955000Y-120104000D01*
X130155750Y-120104000D01*
X129997000Y-120262750D01*
X129993928Y-120477000D01*
X130006188Y-120601482D01*
X130042498Y-120721180D01*
X130072335Y-120777000D01*
X130042498Y-120832820D01*
X130039713Y-120842000D01*
X128024287Y-120842000D01*
X128021502Y-120832820D01*
X127991665Y-120777000D01*
X128021502Y-120721180D01*
X128057812Y-120601482D01*
X128070072Y-120477000D01*
X128067000Y-120262750D01*
X127908250Y-120104000D01*
X127109000Y-120104000D01*
X127109000Y-120124000D01*
X126855000Y-120124000D01*
X126855000Y-120104000D01*
X126835000Y-120104000D01*
X126835000Y-119850000D01*
X126855000Y-119850000D01*
X126855000Y-119830000D01*
X127109000Y-119830000D01*
X127109000Y-119850000D01*
X127908250Y-119850000D01*
X128067000Y-119691250D01*
X128070072Y-119477000D01*
X129993928Y-119477000D01*
X129997000Y-119691250D01*
X130155750Y-119850000D01*
X130955000Y-119850000D01*
X130955000Y-119000750D01*
X131209000Y-119000750D01*
X131209000Y-119850000D01*
X132008250Y-119850000D01*
X132167000Y-119691250D01*
X132170072Y-119477000D01*
X132157812Y-119352518D01*
X132121502Y-119232820D01*
X132062537Y-119122506D01*
X131983185Y-119025815D01*
X131886494Y-118946463D01*
X131776180Y-118887498D01*
X131656482Y-118851188D01*
X131532000Y-118838928D01*
X131367750Y-118842000D01*
X131209000Y-119000750D01*
X130955000Y-119000750D01*
X130796250Y-118842000D01*
X130632000Y-118838928D01*
X130507518Y-118851188D01*
X130387820Y-118887498D01*
X130277506Y-118946463D01*
X130180815Y-119025815D01*
X130101463Y-119122506D01*
X130042498Y-119232820D01*
X130006188Y-119352518D01*
X129993928Y-119477000D01*
X128070072Y-119477000D01*
X128057812Y-119352518D01*
X128021502Y-119232820D01*
X128006363Y-119204497D01*
X128006333Y-119204399D01*
X127994597Y-119182443D01*
X127994532Y-119182364D01*
X127962537Y-119122506D01*
X127883185Y-119025815D01*
X127786494Y-118946463D01*
X127734021Y-118918415D01*
X127227000Y-118411394D01*
X127227000Y-107613426D01*
X127399729Y-107579068D01*
X127569889Y-107508586D01*
X127723028Y-107406262D01*
X127853262Y-107276028D01*
X127955586Y-107122889D01*
X128026068Y-106952729D01*
X128058932Y-106787514D01*
X132611447Y-102235000D01*
X133758001Y-102235000D01*
X133758001Y-111723885D01*
X133754444Y-111760000D01*
X133768635Y-111904085D01*
X133801978Y-112014000D01*
X133810664Y-112042633D01*
X133878914Y-112170320D01*
X133970763Y-112282238D01*
X133998808Y-112305254D01*
X141440746Y-119747193D01*
X141463762Y-119775238D01*
X141478000Y-119786923D01*
X141478000Y-120571548D01*
X141452624Y-120629767D01*
X141407000Y-120839000D01*
X141407000Y-121239000D01*
X142365000Y-121239000D01*
X142365000Y-121219000D01*
X142619000Y-121219000D01*
X142619000Y-121239000D01*
X143577000Y-121239000D01*
X143577000Y-120839000D01*
X143531376Y-120629767D01*
X143510000Y-120580725D01*
X143510000Y-119988000D01*
X150114000Y-119988000D01*
X150114000Y-120580725D01*
X150092624Y-120629767D01*
X150047000Y-120839000D01*
X150047000Y-121239000D01*
X151005000Y-121239000D01*
X151005000Y-121219000D01*
X151259000Y-121219000D01*
X151259000Y-121239000D01*
X152217000Y-121239000D01*
X152217000Y-120839000D01*
X152171376Y-120629767D01*
X152146000Y-120571548D01*
X152146000Y-119276446D01*
X154836447Y-116586000D01*
X155794714Y-116586000D01*
X155810998Y-116639680D01*
X155869963Y-116749994D01*
X155949315Y-116846685D01*
X156046006Y-116926037D01*
X156156320Y-116985002D01*
X156232892Y-117008230D01*
X156322763Y-117117738D01*
X156350808Y-117140754D01*
X159704246Y-120494193D01*
X159727262Y-120522238D01*
X159839180Y-120614087D01*
X159966867Y-120682337D01*
X160047389Y-120706763D01*
X160105414Y-120724365D01*
X160249499Y-120738556D01*
X160285604Y-120735000D01*
X161177713Y-120735000D01*
X161180498Y-120744180D01*
X161210335Y-120800000D01*
X161180498Y-120855820D01*
X161144188Y-120975518D01*
X161131928Y-121100000D01*
X161131928Y-122100000D01*
X161144188Y-122224482D01*
X161180498Y-122344180D01*
X161239463Y-122454494D01*
X161318815Y-122551185D01*
X161415506Y-122630537D01*
X161525820Y-122689502D01*
X161645518Y-122725812D01*
X161770000Y-122738072D01*
X163270000Y-122738072D01*
X163394482Y-122725812D01*
X163514180Y-122689502D01*
X163624494Y-122630537D01*
X163721185Y-122551185D01*
X163800537Y-122454494D01*
X163816511Y-122424610D01*
X163833689Y-122422918D01*
X163991087Y-122375172D01*
X164136146Y-122297636D01*
X164263291Y-122193291D01*
X164289445Y-122161422D01*
X164772426Y-121678442D01*
X164804291Y-121652291D01*
X164908636Y-121525146D01*
X164986172Y-121380087D01*
X165033918Y-121222689D01*
X165046000Y-121100019D01*
X165046000Y-121100018D01*
X165050040Y-121059000D01*
X165046000Y-121017982D01*
X165046000Y-116057606D01*
X165751915Y-115351691D01*
X165880729Y-115326068D01*
X165905036Y-115316000D01*
X166597000Y-115316000D01*
X166597000Y-116072130D01*
X165708572Y-116960559D01*
X165676708Y-116986709D01*
X165572364Y-117113853D01*
X165572363Y-117113854D01*
X165494827Y-117258913D01*
X165447081Y-117416311D01*
X165430959Y-117579999D01*
X165434999Y-117621018D01*
X165435001Y-119058972D01*
X165430960Y-119100000D01*
X165447082Y-119263688D01*
X165494828Y-119421086D01*
X165572364Y-119566145D01*
X165572365Y-119566146D01*
X165676710Y-119693291D01*
X165708574Y-119719441D01*
X166031928Y-120042795D01*
X166031928Y-120500000D01*
X166044188Y-120624482D01*
X166080498Y-120744180D01*
X166110335Y-120800000D01*
X166080498Y-120855820D01*
X166044188Y-120975518D01*
X166031928Y-121100000D01*
X166031928Y-122100000D01*
X166044188Y-122224482D01*
X166080498Y-122344180D01*
X166139463Y-122454494D01*
X166218815Y-122551185D01*
X166315506Y-122630537D01*
X166425820Y-122689502D01*
X166545518Y-122725812D01*
X166670000Y-122738072D01*
X168170000Y-122738072D01*
X168294482Y-122725812D01*
X168414180Y-122689502D01*
X168524494Y-122630537D01*
X168621185Y-122551185D01*
X168700537Y-122454494D01*
X168759502Y-122344180D01*
X168795812Y-122224482D01*
X168808072Y-122100000D01*
X168808072Y-121100000D01*
X168795812Y-120975518D01*
X168759502Y-120855820D01*
X168729665Y-120800000D01*
X168759502Y-120744180D01*
X168795812Y-120624482D01*
X168808072Y-120500000D01*
X168808072Y-119500000D01*
X168795812Y-119375518D01*
X168791066Y-119359872D01*
X170515000Y-119359872D01*
X170515000Y-119800128D01*
X170600890Y-120231925D01*
X170769369Y-120638669D01*
X171013962Y-121004729D01*
X171325271Y-121316038D01*
X171691331Y-121560631D01*
X172098075Y-121729110D01*
X172529872Y-121815000D01*
X172970128Y-121815000D01*
X173401925Y-121729110D01*
X173808669Y-121560631D01*
X174174729Y-121316038D01*
X174486038Y-121004729D01*
X174730631Y-120638669D01*
X174899110Y-120231925D01*
X174985000Y-119800128D01*
X174985000Y-119359872D01*
X174899110Y-118928075D01*
X174730631Y-118521331D01*
X174486038Y-118155271D01*
X174174729Y-117843962D01*
X173808669Y-117599369D01*
X173401925Y-117430890D01*
X172970128Y-117345000D01*
X172529872Y-117345000D01*
X172098075Y-117430890D01*
X171691331Y-117599369D01*
X171325271Y-117843962D01*
X171013962Y-118155271D01*
X170769369Y-118521331D01*
X170600890Y-118928075D01*
X170515000Y-119359872D01*
X168791066Y-119359872D01*
X168759502Y-119255820D01*
X168729665Y-119200000D01*
X168759502Y-119144180D01*
X168795812Y-119024482D01*
X168808072Y-118900000D01*
X168805000Y-118685750D01*
X168646250Y-118527000D01*
X167547000Y-118527000D01*
X167547000Y-118547000D01*
X167293000Y-118547000D01*
X167293000Y-118527000D01*
X167273000Y-118527000D01*
X167273000Y-118273000D01*
X167293000Y-118273000D01*
X167293000Y-118253000D01*
X167547000Y-118253000D01*
X167547000Y-118273000D01*
X168646250Y-118273000D01*
X168805000Y-118114250D01*
X168808072Y-117900000D01*
X168795812Y-117775518D01*
X168759502Y-117655820D01*
X168700537Y-117545506D01*
X168621185Y-117448815D01*
X168524494Y-117369463D01*
X168414180Y-117310498D01*
X168294482Y-117274188D01*
X168170000Y-117261928D01*
X167766266Y-117264600D01*
X167993425Y-117037441D01*
X168025290Y-117011290D01*
X168129635Y-116884145D01*
X168207171Y-116739086D01*
X168254917Y-116581688D01*
X168266999Y-116459018D01*
X168271039Y-116418000D01*
X168266999Y-116376981D01*
X168266999Y-103465017D01*
X168271039Y-103423999D01*
X168259952Y-103311428D01*
X168254917Y-103260310D01*
X168207171Y-103102912D01*
X168129635Y-102957853D01*
X168025290Y-102830708D01*
X168021140Y-102827302D01*
X167960586Y-102681111D01*
X167858262Y-102527972D01*
X167728028Y-102397738D01*
X167574889Y-102295414D01*
X167404729Y-102224932D01*
X167232000Y-102190574D01*
X167232000Y-101334096D01*
X167235555Y-101297999D01*
X167232000Y-101261902D01*
X167232000Y-101261895D01*
X167221365Y-101153915D01*
X167179337Y-101015367D01*
X167111087Y-100887680D01*
X167080315Y-100850185D01*
X167042253Y-100803806D01*
X167042250Y-100803803D01*
X167019237Y-100775762D01*
X166991198Y-100752751D01*
X164844368Y-98605922D01*
X164937262Y-98513028D01*
X165039586Y-98359889D01*
X165110068Y-98189729D01*
X165146000Y-98009089D01*
X165146000Y-97824911D01*
X165110068Y-97644271D01*
X165046000Y-97489596D01*
X165046000Y-96322488D01*
X165106685Y-96272685D01*
X165186037Y-96175994D01*
X165245002Y-96065680D01*
X165281312Y-95945982D01*
X165293572Y-95821500D01*
X165293572Y-94932500D01*
X165281312Y-94808018D01*
X165245002Y-94688320D01*
X165186037Y-94578006D01*
X165106685Y-94481315D01*
X165009994Y-94401963D01*
X164899680Y-94342998D01*
X164846200Y-94326775D01*
X164804291Y-94275709D01*
X164772428Y-94249560D01*
X163994559Y-93471691D01*
X164084000Y-93382250D01*
X164084000Y-92583000D01*
X164064000Y-92583000D01*
X164064000Y-92329000D01*
X164084000Y-92329000D01*
X164084000Y-91529750D01*
X163987348Y-91433098D01*
X164289369Y-91131078D01*
X164446271Y-91196068D01*
G36*
X143339187Y-101765555D02*
G01*
X143296963Y-101817006D01*
X143237998Y-101927320D01*
X143201688Y-102047018D01*
X143189428Y-102171500D01*
X143189428Y-103568500D01*
X143201688Y-103692982D01*
X143237998Y-103812680D01*
X143296963Y-103922994D01*
X143376315Y-104019685D01*
X143473006Y-104099037D01*
X143583320Y-104158002D01*
X143703018Y-104194312D01*
X143827500Y-104206572D01*
X145224500Y-104206572D01*
X145348982Y-104194312D01*
X145468680Y-104158002D01*
X145578994Y-104099037D01*
X145675685Y-104019685D01*
X145755037Y-103922994D01*
X145814002Y-103812680D01*
X145850312Y-103692982D01*
X145852232Y-103673491D01*
X145945587Y-103645172D01*
X146090646Y-103567636D01*
X146217791Y-103463291D01*
X146243946Y-103431421D01*
X147494368Y-102181000D01*
X148542230Y-102181000D01*
X148507188Y-102296518D01*
X148494928Y-102421000D01*
X148494928Y-103321000D01*
X148507188Y-103445482D01*
X148543498Y-103565180D01*
X148602463Y-103675494D01*
X148681815Y-103772185D01*
X148778506Y-103851537D01*
X148888820Y-103910502D01*
X149008518Y-103946812D01*
X149133000Y-103959072D01*
X150333000Y-103959072D01*
X150457482Y-103946812D01*
X150577180Y-103910502D01*
X150687494Y-103851537D01*
X150784185Y-103772185D01*
X150838501Y-103706000D01*
X157715792Y-103706000D01*
X157679688Y-103825018D01*
X157667428Y-103949500D01*
X157667428Y-104838500D01*
X157679688Y-104962982D01*
X157715998Y-105082680D01*
X157774963Y-105192994D01*
X157854315Y-105289685D01*
X157951006Y-105369037D01*
X158015000Y-105403243D01*
X158015001Y-106358770D01*
X157992820Y-106365498D01*
X157882506Y-106424463D01*
X157785815Y-106503815D01*
X157706463Y-106600506D01*
X157647498Y-106710820D01*
X157611188Y-106830518D01*
X157598928Y-106955000D01*
X157598928Y-108015000D01*
X157607000Y-108096959D01*
X157607000Y-109073041D01*
X157598928Y-109155000D01*
X157598928Y-110215000D01*
X157611188Y-110339482D01*
X157647498Y-110459180D01*
X157706463Y-110569494D01*
X157785815Y-110666185D01*
X157882506Y-110745537D01*
X157992820Y-110804502D01*
X158112518Y-110840812D01*
X158237000Y-110853072D01*
X158476061Y-110853072D01*
X157807574Y-111521559D01*
X157775710Y-111547709D01*
X157749562Y-111579571D01*
X157671364Y-111674855D01*
X157593828Y-111819914D01*
X157546082Y-111977312D01*
X157529960Y-112141000D01*
X157534000Y-112182018D01*
X157534000Y-112645132D01*
X157476133Y-112703000D01*
X154142868Y-112703000D01*
X153927654Y-112487786D01*
X153863586Y-112333111D01*
X153761262Y-112179972D01*
X153670000Y-112088710D01*
X153670000Y-110787038D01*
X153680068Y-110762731D01*
X153716000Y-110582091D01*
X153716000Y-110397913D01*
X153680068Y-110217273D01*
X153609586Y-110047113D01*
X153507262Y-109893974D01*
X153377028Y-109763740D01*
X153223889Y-109661416D01*
X153053729Y-109590934D01*
X152873089Y-109555002D01*
X152688911Y-109555002D01*
X152647908Y-109563158D01*
X152558750Y-109474000D01*
X151765000Y-109474000D01*
X151765000Y-109494000D01*
X151511000Y-109494000D01*
X151511000Y-109474000D01*
X150717250Y-109474000D01*
X150558500Y-109632750D01*
X150555428Y-109791500D01*
X150567688Y-109915982D01*
X150603998Y-110035680D01*
X150643189Y-110109000D01*
X150603998Y-110182320D01*
X150567688Y-110302018D01*
X150555428Y-110426500D01*
X150555428Y-111315500D01*
X150567688Y-111439982D01*
X150603998Y-111559680D01*
X150662963Y-111669994D01*
X150742315Y-111766685D01*
X150803000Y-111816488D01*
X150803000Y-112620632D01*
X149297000Y-114126633D01*
X149297000Y-111895210D01*
X149388994Y-111846037D01*
X149485685Y-111766685D01*
X149565037Y-111669994D01*
X149624002Y-111559680D01*
X149660312Y-111439982D01*
X149672572Y-111315500D01*
X149672572Y-110426500D01*
X149660312Y-110302018D01*
X149624002Y-110182320D01*
X149584811Y-110109000D01*
X149624002Y-110035680D01*
X149660312Y-109915982D01*
X149672572Y-109791500D01*
X149669500Y-109632750D01*
X149510750Y-109474000D01*
X148717000Y-109474000D01*
X148717000Y-109494000D01*
X148463000Y-109494000D01*
X148463000Y-109474000D01*
X147669250Y-109474000D01*
X147510500Y-109632750D01*
X147507428Y-109791500D01*
X147519688Y-109915982D01*
X147555998Y-110035680D01*
X147595189Y-110109000D01*
X147555998Y-110182320D01*
X147519688Y-110302018D01*
X147507428Y-110426500D01*
X147507428Y-111315500D01*
X147519688Y-111439982D01*
X147555998Y-111559680D01*
X147614963Y-111669994D01*
X147694315Y-111766685D01*
X147791006Y-111846037D01*
X147827000Y-111865277D01*
X147827001Y-115406299D01*
X147812000Y-115407777D01*
X147712000Y-115397928D01*
X147412000Y-115397928D01*
X147312000Y-115407777D01*
X147212000Y-115397928D01*
X146912000Y-115397928D01*
X146812000Y-115407777D01*
X146712000Y-115397928D01*
X146412000Y-115397928D01*
X146312000Y-115407777D01*
X146297000Y-115406299D01*
X146297000Y-111869553D01*
X146340994Y-111846037D01*
X146437685Y-111766685D01*
X146517037Y-111669994D01*
X146576002Y-111559680D01*
X146612312Y-111439982D01*
X146624572Y-111315500D01*
X146624572Y-110426500D01*
X146612312Y-110302018D01*
X146576002Y-110182320D01*
X146536811Y-110109000D01*
X146576002Y-110035680D01*
X146612312Y-109915982D01*
X146624572Y-109791500D01*
X146621500Y-109632750D01*
X146462750Y-109474000D01*
X145669000Y-109474000D01*
X145669000Y-109494000D01*
X145415000Y-109494000D01*
X145415000Y-109474000D01*
X144621250Y-109474000D01*
X144462500Y-109632750D01*
X144459428Y-109791500D01*
X144471688Y-109915982D01*
X144507998Y-110035680D01*
X144547189Y-110109000D01*
X144507998Y-110182320D01*
X144471688Y-110302018D01*
X144459428Y-110426500D01*
X144459428Y-111315500D01*
X144471688Y-111439982D01*
X144507998Y-111559680D01*
X144566963Y-111669994D01*
X144646315Y-111766685D01*
X144743006Y-111846037D01*
X144827000Y-111890934D01*
X144827001Y-114309132D01*
X143202000Y-112684133D01*
X143202000Y-111826501D01*
X143268185Y-111772185D01*
X143347537Y-111675494D01*
X143406502Y-111565180D01*
X143442812Y-111445482D01*
X143455072Y-111321000D01*
X143455072Y-110421000D01*
X143442812Y-110296518D01*
X143406502Y-110176820D01*
X143370251Y-110109000D01*
X143406502Y-110041180D01*
X143442812Y-109921482D01*
X143455072Y-109797000D01*
X143452000Y-109632750D01*
X143293250Y-109474000D01*
X142494000Y-109474000D01*
X142494000Y-109494000D01*
X142240000Y-109494000D01*
X142240000Y-109474000D01*
X142220000Y-109474000D01*
X142220000Y-109220000D01*
X142240000Y-109220000D01*
X142240000Y-108420750D01*
X142494000Y-108420750D01*
X142494000Y-109220000D01*
X143293250Y-109220000D01*
X143452000Y-109061250D01*
X143454969Y-108902500D01*
X144459428Y-108902500D01*
X144462500Y-109061250D01*
X144621250Y-109220000D01*
X145415000Y-109220000D01*
X145415000Y-108426250D01*
X145669000Y-108426250D01*
X145669000Y-109220000D01*
X146462750Y-109220000D01*
X146621500Y-109061250D01*
X146624572Y-108902500D01*
X147507428Y-108902500D01*
X147510500Y-109061250D01*
X147669250Y-109220000D01*
X148463000Y-109220000D01*
X148463000Y-108426250D01*
X148717000Y-108426250D01*
X148717000Y-109220000D01*
X149510750Y-109220000D01*
X149669500Y-109061250D01*
X149672572Y-108902500D01*
X150555428Y-108902500D01*
X150558500Y-109061250D01*
X150717250Y-109220000D01*
X151511000Y-109220000D01*
X151511000Y-108426250D01*
X151765000Y-108426250D01*
X151765000Y-109220000D01*
X152558750Y-109220000D01*
X152717500Y-109061250D01*
X152720572Y-108902500D01*
X152708312Y-108778018D01*
X152672002Y-108658320D01*
X152613037Y-108548006D01*
X152533685Y-108451315D01*
X152436994Y-108371963D01*
X152326680Y-108312998D01*
X152206982Y-108276688D01*
X152082500Y-108264428D01*
X151923750Y-108267500D01*
X151765000Y-108426250D01*
X151511000Y-108426250D01*
X151352250Y-108267500D01*
X151193500Y-108264428D01*
X151069018Y-108276688D01*
X150949320Y-108312998D01*
X150839006Y-108371963D01*
X150742315Y-108451315D01*
X150662963Y-108548006D01*
X150603998Y-108658320D01*
X150567688Y-108778018D01*
X150555428Y-108902500D01*
X149672572Y-108902500D01*
X149660312Y-108778018D01*
X149624002Y-108658320D01*
X149565037Y-108548006D01*
X149485685Y-108451315D01*
X149388994Y-108371963D01*
X149278680Y-108312998D01*
X149158982Y-108276688D01*
X149034500Y-108264428D01*
X148875750Y-108267500D01*
X148717000Y-108426250D01*
X148463000Y-108426250D01*
X148304250Y-108267500D01*
X148145500Y-108264428D01*
X148021018Y-108276688D01*
X147901320Y-108312998D01*
X147791006Y-108371963D01*
X147694315Y-108451315D01*
X147614963Y-108548006D01*
X147555998Y-108658320D01*
X147519688Y-108778018D01*
X147507428Y-108902500D01*
X146624572Y-108902500D01*
X146612312Y-108778018D01*
X146576002Y-108658320D01*
X146517037Y-108548006D01*
X146437685Y-108451315D01*
X146340994Y-108371963D01*
X146230680Y-108312998D01*
X146110982Y-108276688D01*
X145986500Y-108264428D01*
X145827750Y-108267500D01*
X145669000Y-108426250D01*
X145415000Y-108426250D01*
X145256250Y-108267500D01*
X145097500Y-108264428D01*
X144973018Y-108276688D01*
X144853320Y-108312998D01*
X144743006Y-108371963D01*
X144646315Y-108451315D01*
X144566963Y-108548006D01*
X144507998Y-108658320D01*
X144471688Y-108778018D01*
X144459428Y-108902500D01*
X143454969Y-108902500D01*
X143455072Y-108897000D01*
X143442812Y-108772518D01*
X143406502Y-108652820D01*
X143347537Y-108542506D01*
X143268185Y-108445815D01*
X143171494Y-108366463D01*
X143061180Y-108307498D01*
X142941482Y-108271188D01*
X142817000Y-108258928D01*
X142652750Y-108262000D01*
X142494000Y-108420750D01*
X142240000Y-108420750D01*
X142081250Y-108262000D01*
X141917000Y-108258928D01*
X141792518Y-108271188D01*
X141678000Y-108305927D01*
X141678000Y-108168867D01*
X142839869Y-107007000D01*
X143205334Y-107007000D01*
X143237998Y-107114680D01*
X143296963Y-107224994D01*
X143376315Y-107321685D01*
X143473006Y-107401037D01*
X143583320Y-107460002D01*
X143703018Y-107496312D01*
X143827500Y-107508572D01*
X145224500Y-107508572D01*
X145348982Y-107496312D01*
X145468680Y-107460002D01*
X145578994Y-107401037D01*
X145675685Y-107321685D01*
X145755037Y-107224994D01*
X145814002Y-107114680D01*
X145846666Y-107007000D01*
X148628319Y-107007000D01*
X148681815Y-107072185D01*
X148778506Y-107151537D01*
X148888820Y-107210502D01*
X149008518Y-107246812D01*
X149133000Y-107259072D01*
X150333000Y-107259072D01*
X150457482Y-107246812D01*
X150577180Y-107210502D01*
X150687494Y-107151537D01*
X150784185Y-107072185D01*
X150838501Y-107006000D01*
X151164133Y-107006000D01*
X151888346Y-107730214D01*
X151952414Y-107884889D01*
X152054738Y-108038028D01*
X152184972Y-108168262D01*
X152338111Y-108270586D01*
X152508271Y-108341068D01*
X152688911Y-108377000D01*
X152873089Y-108377000D01*
X153053729Y-108341068D01*
X153223889Y-108270586D01*
X153377028Y-108168262D01*
X153507262Y-108038028D01*
X153609586Y-107884889D01*
X153680068Y-107714729D01*
X153716000Y-107534089D01*
X153716000Y-107349911D01*
X153680068Y-107169271D01*
X153609586Y-106999111D01*
X153507262Y-106845972D01*
X153377028Y-106715738D01*
X153223889Y-106613414D01*
X153069214Y-106549346D01*
X152129446Y-105609579D01*
X152103291Y-105577709D01*
X151976146Y-105473364D01*
X151831087Y-105395828D01*
X151673689Y-105348082D01*
X151551019Y-105336000D01*
X151551018Y-105336000D01*
X151510000Y-105331960D01*
X151468982Y-105336000D01*
X150838501Y-105336000D01*
X150784185Y-105269815D01*
X150687494Y-105190463D01*
X150577180Y-105131498D01*
X150457482Y-105095188D01*
X150333000Y-105082928D01*
X149133000Y-105082928D01*
X149008518Y-105095188D01*
X148888820Y-105131498D01*
X148778506Y-105190463D01*
X148681815Y-105269815D01*
X148626678Y-105337000D01*
X145846666Y-105337000D01*
X145814002Y-105229320D01*
X145755037Y-105119006D01*
X145675685Y-105022315D01*
X145578994Y-104942963D01*
X145468680Y-104883998D01*
X145348982Y-104847688D01*
X145224500Y-104835428D01*
X143827500Y-104835428D01*
X143703018Y-104847688D01*
X143583320Y-104883998D01*
X143473006Y-104942963D01*
X143376315Y-105022315D01*
X143296963Y-105119006D01*
X143237998Y-105229320D01*
X143205334Y-105337000D01*
X142535018Y-105337000D01*
X142494000Y-105332960D01*
X142452982Y-105337000D01*
X142452981Y-105337000D01*
X142330311Y-105349082D01*
X142209090Y-105385854D01*
X142172913Y-105396828D01*
X142027854Y-105474364D01*
X141933788Y-105551562D01*
X141900709Y-105578709D01*
X141874563Y-105610568D01*
X140281574Y-107203559D01*
X140249710Y-107229709D01*
X140196877Y-107294086D01*
X140145364Y-107356855D01*
X140067828Y-107501914D01*
X140020082Y-107659312D01*
X140003960Y-107823000D01*
X140008001Y-107864028D01*
X140008000Y-110067981D01*
X140003960Y-110109000D01*
X140008000Y-110150018D01*
X140020082Y-110272688D01*
X140067828Y-110430086D01*
X140145364Y-110575145D01*
X140249709Y-110702291D01*
X140281578Y-110728445D01*
X140985563Y-111432431D01*
X141011709Y-111464291D01*
X141043568Y-111490437D01*
X141043570Y-111490439D01*
X141127941Y-111559680D01*
X141138854Y-111568636D01*
X141283913Y-111646172D01*
X141388415Y-111677872D01*
X141465815Y-111772185D01*
X141532001Y-111826502D01*
X141532000Y-112988981D01*
X141527960Y-113030000D01*
X141532000Y-113071018D01*
X141544082Y-113193688D01*
X141591828Y-113351086D01*
X141669364Y-113496145D01*
X141773709Y-113623291D01*
X141805579Y-113649446D01*
X142621000Y-114464868D01*
X142621000Y-115726978D01*
X142619000Y-115728498D01*
X142619000Y-117069000D01*
X142639000Y-117069000D01*
X142639000Y-117323000D01*
X142619000Y-117323000D01*
X142619000Y-117343000D01*
X142365000Y-117343000D01*
X142365000Y-117323000D01*
X141407000Y-117323000D01*
X141407000Y-117634553D01*
X140291447Y-116519000D01*
X141407000Y-116519000D01*
X141407000Y-117069000D01*
X142365000Y-117069000D01*
X142365000Y-115728498D01*
X142197999Y-115601592D01*
X141994803Y-115673298D01*
X141814592Y-115788986D01*
X141660413Y-115937609D01*
X141538191Y-116113455D01*
X141452624Y-116309767D01*
X141407000Y-116519000D01*
X140291447Y-116519000D01*
X135228000Y-111455554D01*
X135228000Y-109474000D01*
X136106133Y-109474000D01*
X139442347Y-112810216D01*
X139506414Y-112964889D01*
X139608738Y-113118028D01*
X139738972Y-113248262D01*
X139892111Y-113350586D01*
X140062271Y-113421068D01*
X140242911Y-113457000D01*
X140427089Y-113457000D01*
X140607729Y-113421068D01*
X140777889Y-113350586D01*
X140931028Y-113248262D01*
X141061262Y-113118028D01*
X141163586Y-112964889D01*
X141234068Y-112794729D01*
X141270000Y-112614089D01*
X141270000Y-112429911D01*
X141234068Y-112249271D01*
X141163586Y-112079111D01*
X141061262Y-111925972D01*
X140931028Y-111795738D01*
X140777889Y-111693414D01*
X140623216Y-111629347D01*
X136852000Y-107858133D01*
X136852000Y-96938466D01*
X136989739Y-96911068D01*
X137144414Y-96847000D01*
X138420633Y-96847000D01*
X143339187Y-101765555D01*
G37*
X143339187Y-101765555D02*
X143296963Y-101817006D01*
X143237998Y-101927320D01*
X143201688Y-102047018D01*
X143189428Y-102171500D01*
X143189428Y-103568500D01*
X143201688Y-103692982D01*
X143237998Y-103812680D01*
X143296963Y-103922994D01*
X143376315Y-104019685D01*
X143473006Y-104099037D01*
X143583320Y-104158002D01*
X143703018Y-104194312D01*
X143827500Y-104206572D01*
X145224500Y-104206572D01*
X145348982Y-104194312D01*
X145468680Y-104158002D01*
X145578994Y-104099037D01*
X145675685Y-104019685D01*
X145755037Y-103922994D01*
X145814002Y-103812680D01*
X145850312Y-103692982D01*
X145852232Y-103673491D01*
X145945587Y-103645172D01*
X146090646Y-103567636D01*
X146217791Y-103463291D01*
X146243946Y-103431421D01*
X147494368Y-102181000D01*
X148542230Y-102181000D01*
X148507188Y-102296518D01*
X148494928Y-102421000D01*
X148494928Y-103321000D01*
X148507188Y-103445482D01*
X148543498Y-103565180D01*
X148602463Y-103675494D01*
X148681815Y-103772185D01*
X148778506Y-103851537D01*
X148888820Y-103910502D01*
X149008518Y-103946812D01*
X149133000Y-103959072D01*
X150333000Y-103959072D01*
X150457482Y-103946812D01*
X150577180Y-103910502D01*
X150687494Y-103851537D01*
X150784185Y-103772185D01*
X150838501Y-103706000D01*
X157715792Y-103706000D01*
X157679688Y-103825018D01*
X157667428Y-103949500D01*
X157667428Y-104838500D01*
X157679688Y-104962982D01*
X157715998Y-105082680D01*
X157774963Y-105192994D01*
X157854315Y-105289685D01*
X157951006Y-105369037D01*
X158015000Y-105403243D01*
X158015001Y-106358770D01*
X157992820Y-106365498D01*
X157882506Y-106424463D01*
X157785815Y-106503815D01*
X157706463Y-106600506D01*
X157647498Y-106710820D01*
X157611188Y-106830518D01*
X157598928Y-106955000D01*
X157598928Y-108015000D01*
X157607000Y-108096959D01*
X157607000Y-109073041D01*
X157598928Y-109155000D01*
X157598928Y-110215000D01*
X157611188Y-110339482D01*
X157647498Y-110459180D01*
X157706463Y-110569494D01*
X157785815Y-110666185D01*
X157882506Y-110745537D01*
X157992820Y-110804502D01*
X158112518Y-110840812D01*
X158237000Y-110853072D01*
X158476061Y-110853072D01*
X157807574Y-111521559D01*
X157775710Y-111547709D01*
X157749562Y-111579571D01*
X157671364Y-111674855D01*
X157593828Y-111819914D01*
X157546082Y-111977312D01*
X157529960Y-112141000D01*
X157534000Y-112182018D01*
X157534000Y-112645132D01*
X157476133Y-112703000D01*
X154142868Y-112703000D01*
X153927654Y-112487786D01*
X153863586Y-112333111D01*
X153761262Y-112179972D01*
X153670000Y-112088710D01*
X153670000Y-110787038D01*
X153680068Y-110762731D01*
X153716000Y-110582091D01*
X153716000Y-110397913D01*
X153680068Y-110217273D01*
X153609586Y-110047113D01*
X153507262Y-109893974D01*
X153377028Y-109763740D01*
X153223889Y-109661416D01*
X153053729Y-109590934D01*
X152873089Y-109555002D01*
X152688911Y-109555002D01*
X152647908Y-109563158D01*
X152558750Y-109474000D01*
X151765000Y-109474000D01*
X151765000Y-109494000D01*
X151511000Y-109494000D01*
X151511000Y-109474000D01*
X150717250Y-109474000D01*
X150558500Y-109632750D01*
X150555428Y-109791500D01*
X150567688Y-109915982D01*
X150603998Y-110035680D01*
X150643189Y-110109000D01*
X150603998Y-110182320D01*
X150567688Y-110302018D01*
X150555428Y-110426500D01*
X150555428Y-111315500D01*
X150567688Y-111439982D01*
X150603998Y-111559680D01*
X150662963Y-111669994D01*
X150742315Y-111766685D01*
X150803000Y-111816488D01*
X150803000Y-112620632D01*
X149297000Y-114126633D01*
X149297000Y-111895210D01*
X149388994Y-111846037D01*
X149485685Y-111766685D01*
X149565037Y-111669994D01*
X149624002Y-111559680D01*
X149660312Y-111439982D01*
X149672572Y-111315500D01*
X149672572Y-110426500D01*
X149660312Y-110302018D01*
X149624002Y-110182320D01*
X149584811Y-110109000D01*
X149624002Y-110035680D01*
X149660312Y-109915982D01*
X149672572Y-109791500D01*
X149669500Y-109632750D01*
X149510750Y-109474000D01*
X148717000Y-109474000D01*
X148717000Y-109494000D01*
X148463000Y-109494000D01*
X148463000Y-109474000D01*
X147669250Y-109474000D01*
X147510500Y-109632750D01*
X147507428Y-109791500D01*
X147519688Y-109915982D01*
X147555998Y-110035680D01*
X147595189Y-110109000D01*
X147555998Y-110182320D01*
X147519688Y-110302018D01*
X147507428Y-110426500D01*
X147507428Y-111315500D01*
X147519688Y-111439982D01*
X147555998Y-111559680D01*
X147614963Y-111669994D01*
X147694315Y-111766685D01*
X147791006Y-111846037D01*
X147827000Y-111865277D01*
X147827001Y-115406299D01*
X147812000Y-115407777D01*
X147712000Y-115397928D01*
X147412000Y-115397928D01*
X147312000Y-115407777D01*
X147212000Y-115397928D01*
X146912000Y-115397928D01*
X146812000Y-115407777D01*
X146712000Y-115397928D01*
X146412000Y-115397928D01*
X146312000Y-115407777D01*
X146297000Y-115406299D01*
X146297000Y-111869553D01*
X146340994Y-111846037D01*
X146437685Y-111766685D01*
X146517037Y-111669994D01*
X146576002Y-111559680D01*
X146612312Y-111439982D01*
X146624572Y-111315500D01*
X146624572Y-110426500D01*
X146612312Y-110302018D01*
X146576002Y-110182320D01*
X146536811Y-110109000D01*
X146576002Y-110035680D01*
X146612312Y-109915982D01*
X146624572Y-109791500D01*
X146621500Y-109632750D01*
X146462750Y-109474000D01*
X145669000Y-109474000D01*
X145669000Y-109494000D01*
X145415000Y-109494000D01*
X145415000Y-109474000D01*
X144621250Y-109474000D01*
X144462500Y-109632750D01*
X144459428Y-109791500D01*
X144471688Y-109915982D01*
X144507998Y-110035680D01*
X144547189Y-110109000D01*
X144507998Y-110182320D01*
X144471688Y-110302018D01*
X144459428Y-110426500D01*
X144459428Y-111315500D01*
X144471688Y-111439982D01*
X144507998Y-111559680D01*
X144566963Y-111669994D01*
X144646315Y-111766685D01*
X144743006Y-111846037D01*
X144827000Y-111890934D01*
X144827001Y-114309132D01*
X143202000Y-112684133D01*
X143202000Y-111826501D01*
X143268185Y-111772185D01*
X143347537Y-111675494D01*
X143406502Y-111565180D01*
X143442812Y-111445482D01*
X143455072Y-111321000D01*
X143455072Y-110421000D01*
X143442812Y-110296518D01*
X143406502Y-110176820D01*
X143370251Y-110109000D01*
X143406502Y-110041180D01*
X143442812Y-109921482D01*
X143455072Y-109797000D01*
X143452000Y-109632750D01*
X143293250Y-109474000D01*
X142494000Y-109474000D01*
X142494000Y-109494000D01*
X142240000Y-109494000D01*
X142240000Y-109474000D01*
X142220000Y-109474000D01*
X142220000Y-109220000D01*
X142240000Y-109220000D01*
X142240000Y-108420750D01*
X142494000Y-108420750D01*
X142494000Y-109220000D01*
X143293250Y-109220000D01*
X143452000Y-109061250D01*
X143454969Y-108902500D01*
X144459428Y-108902500D01*
X144462500Y-109061250D01*
X144621250Y-109220000D01*
X145415000Y-109220000D01*
X145415000Y-108426250D01*
X145669000Y-108426250D01*
X145669000Y-109220000D01*
X146462750Y-109220000D01*
X146621500Y-109061250D01*
X146624572Y-108902500D01*
X147507428Y-108902500D01*
X147510500Y-109061250D01*
X147669250Y-109220000D01*
X148463000Y-109220000D01*
X148463000Y-108426250D01*
X148717000Y-108426250D01*
X148717000Y-109220000D01*
X149510750Y-109220000D01*
X149669500Y-109061250D01*
X149672572Y-108902500D01*
X150555428Y-108902500D01*
X150558500Y-109061250D01*
X150717250Y-109220000D01*
X151511000Y-109220000D01*
X151511000Y-108426250D01*
X151765000Y-108426250D01*
X151765000Y-109220000D01*
X152558750Y-109220000D01*
X152717500Y-109061250D01*
X152720572Y-108902500D01*
X152708312Y-108778018D01*
X152672002Y-108658320D01*
X152613037Y-108548006D01*
X152533685Y-108451315D01*
X152436994Y-108371963D01*
X152326680Y-108312998D01*
X152206982Y-108276688D01*
X152082500Y-108264428D01*
X151923750Y-108267500D01*
X151765000Y-108426250D01*
X151511000Y-108426250D01*
X151352250Y-108267500D01*
X151193500Y-108264428D01*
X151069018Y-108276688D01*
X150949320Y-108312998D01*
X150839006Y-108371963D01*
X150742315Y-108451315D01*
X150662963Y-108548006D01*
X150603998Y-108658320D01*
X150567688Y-108778018D01*
X150555428Y-108902500D01*
X149672572Y-108902500D01*
X149660312Y-108778018D01*
X149624002Y-108658320D01*
X149565037Y-108548006D01*
X149485685Y-108451315D01*
X149388994Y-108371963D01*
X149278680Y-108312998D01*
X149158982Y-108276688D01*
X149034500Y-108264428D01*
X148875750Y-108267500D01*
X148717000Y-108426250D01*
X148463000Y-108426250D01*
X148304250Y-108267500D01*
X148145500Y-108264428D01*
X148021018Y-108276688D01*
X147901320Y-108312998D01*
X147791006Y-108371963D01*
X147694315Y-108451315D01*
X147614963Y-108548006D01*
X147555998Y-108658320D01*
X147519688Y-108778018D01*
X147507428Y-108902500D01*
X146624572Y-108902500D01*
X146612312Y-108778018D01*
X146576002Y-108658320D01*
X146517037Y-108548006D01*
X146437685Y-108451315D01*
X146340994Y-108371963D01*
X146230680Y-108312998D01*
X146110982Y-108276688D01*
X145986500Y-108264428D01*
X145827750Y-108267500D01*
X145669000Y-108426250D01*
X145415000Y-108426250D01*
X145256250Y-108267500D01*
X145097500Y-108264428D01*
X144973018Y-108276688D01*
X144853320Y-108312998D01*
X144743006Y-108371963D01*
X144646315Y-108451315D01*
X144566963Y-108548006D01*
X144507998Y-108658320D01*
X144471688Y-108778018D01*
X144459428Y-108902500D01*
X143454969Y-108902500D01*
X143455072Y-108897000D01*
X143442812Y-108772518D01*
X143406502Y-108652820D01*
X143347537Y-108542506D01*
X143268185Y-108445815D01*
X143171494Y-108366463D01*
X143061180Y-108307498D01*
X142941482Y-108271188D01*
X142817000Y-108258928D01*
X142652750Y-108262000D01*
X142494000Y-108420750D01*
X142240000Y-108420750D01*
X142081250Y-108262000D01*
X141917000Y-108258928D01*
X141792518Y-108271188D01*
X141678000Y-108305927D01*
X141678000Y-108168867D01*
X142839869Y-107007000D01*
X143205334Y-107007000D01*
X143237998Y-107114680D01*
X143296963Y-107224994D01*
X143376315Y-107321685D01*
X143473006Y-107401037D01*
X143583320Y-107460002D01*
X143703018Y-107496312D01*
X143827500Y-107508572D01*
X145224500Y-107508572D01*
X145348982Y-107496312D01*
X145468680Y-107460002D01*
X145578994Y-107401037D01*
X145675685Y-107321685D01*
X145755037Y-107224994D01*
X145814002Y-107114680D01*
X145846666Y-107007000D01*
X148628319Y-107007000D01*
X148681815Y-107072185D01*
X148778506Y-107151537D01*
X148888820Y-107210502D01*
X149008518Y-107246812D01*
X149133000Y-107259072D01*
X150333000Y-107259072D01*
X150457482Y-107246812D01*
X150577180Y-107210502D01*
X150687494Y-107151537D01*
X150784185Y-107072185D01*
X150838501Y-107006000D01*
X151164133Y-107006000D01*
X151888346Y-107730214D01*
X151952414Y-107884889D01*
X152054738Y-108038028D01*
X152184972Y-108168262D01*
X152338111Y-108270586D01*
X152508271Y-108341068D01*
X152688911Y-108377000D01*
X152873089Y-108377000D01*
X153053729Y-108341068D01*
X153223889Y-108270586D01*
X153377028Y-108168262D01*
X153507262Y-108038028D01*
X153609586Y-107884889D01*
X153680068Y-107714729D01*
X153716000Y-107534089D01*
X153716000Y-107349911D01*
X153680068Y-107169271D01*
X153609586Y-106999111D01*
X153507262Y-106845972D01*
X153377028Y-106715738D01*
X153223889Y-106613414D01*
X153069214Y-106549346D01*
X152129446Y-105609579D01*
X152103291Y-105577709D01*
X151976146Y-105473364D01*
X151831087Y-105395828D01*
X151673689Y-105348082D01*
X151551019Y-105336000D01*
X151551018Y-105336000D01*
X151510000Y-105331960D01*
X151468982Y-105336000D01*
X150838501Y-105336000D01*
X150784185Y-105269815D01*
X150687494Y-105190463D01*
X150577180Y-105131498D01*
X150457482Y-105095188D01*
X150333000Y-105082928D01*
X149133000Y-105082928D01*
X149008518Y-105095188D01*
X148888820Y-105131498D01*
X148778506Y-105190463D01*
X148681815Y-105269815D01*
X148626678Y-105337000D01*
X145846666Y-105337000D01*
X145814002Y-105229320D01*
X145755037Y-105119006D01*
X145675685Y-105022315D01*
X145578994Y-104942963D01*
X145468680Y-104883998D01*
X145348982Y-104847688D01*
X145224500Y-104835428D01*
X143827500Y-104835428D01*
X143703018Y-104847688D01*
X143583320Y-104883998D01*
X143473006Y-104942963D01*
X143376315Y-105022315D01*
X143296963Y-105119006D01*
X143237998Y-105229320D01*
X143205334Y-105337000D01*
X142535018Y-105337000D01*
X142494000Y-105332960D01*
X142452982Y-105337000D01*
X142452981Y-105337000D01*
X142330311Y-105349082D01*
X142209090Y-105385854D01*
X142172913Y-105396828D01*
X142027854Y-105474364D01*
X141933788Y-105551562D01*
X141900709Y-105578709D01*
X141874563Y-105610568D01*
X140281574Y-107203559D01*
X140249710Y-107229709D01*
X140196877Y-107294086D01*
X140145364Y-107356855D01*
X140067828Y-107501914D01*
X140020082Y-107659312D01*
X140003960Y-107823000D01*
X140008001Y-107864028D01*
X140008000Y-110067981D01*
X140003960Y-110109000D01*
X140008000Y-110150018D01*
X140020082Y-110272688D01*
X140067828Y-110430086D01*
X140145364Y-110575145D01*
X140249709Y-110702291D01*
X140281578Y-110728445D01*
X140985563Y-111432431D01*
X141011709Y-111464291D01*
X141043568Y-111490437D01*
X141043570Y-111490439D01*
X141127941Y-111559680D01*
X141138854Y-111568636D01*
X141283913Y-111646172D01*
X141388415Y-111677872D01*
X141465815Y-111772185D01*
X141532001Y-111826502D01*
X141532000Y-112988981D01*
X141527960Y-113030000D01*
X141532000Y-113071018D01*
X141544082Y-113193688D01*
X141591828Y-113351086D01*
X141669364Y-113496145D01*
X141773709Y-113623291D01*
X141805579Y-113649446D01*
X142621000Y-114464868D01*
X142621000Y-115726978D01*
X142619000Y-115728498D01*
X142619000Y-117069000D01*
X142639000Y-117069000D01*
X142639000Y-117323000D01*
X142619000Y-117323000D01*
X142619000Y-117343000D01*
X142365000Y-117343000D01*
X142365000Y-117323000D01*
X141407000Y-117323000D01*
X141407000Y-117634553D01*
X140291447Y-116519000D01*
X141407000Y-116519000D01*
X141407000Y-117069000D01*
X142365000Y-117069000D01*
X142365000Y-115728498D01*
X142197999Y-115601592D01*
X141994803Y-115673298D01*
X141814592Y-115788986D01*
X141660413Y-115937609D01*
X141538191Y-116113455D01*
X141452624Y-116309767D01*
X141407000Y-116519000D01*
X140291447Y-116519000D01*
X135228000Y-111455554D01*
X135228000Y-109474000D01*
X136106133Y-109474000D01*
X139442347Y-112810216D01*
X139506414Y-112964889D01*
X139608738Y-113118028D01*
X139738972Y-113248262D01*
X139892111Y-113350586D01*
X140062271Y-113421068D01*
X140242911Y-113457000D01*
X140427089Y-113457000D01*
X140607729Y-113421068D01*
X140777889Y-113350586D01*
X140931028Y-113248262D01*
X141061262Y-113118028D01*
X141163586Y-112964889D01*
X141234068Y-112794729D01*
X141270000Y-112614089D01*
X141270000Y-112429911D01*
X141234068Y-112249271D01*
X141163586Y-112079111D01*
X141061262Y-111925972D01*
X140931028Y-111795738D01*
X140777889Y-111693414D01*
X140623216Y-111629347D01*
X136852000Y-107858133D01*
X136852000Y-96938466D01*
X136989739Y-96911068D01*
X137144414Y-96847000D01*
X138420633Y-96847000D01*
X143339187Y-101765555D01*
G36*
X152438972Y-113502262D02*
G01*
X152592111Y-113604586D01*
X152746786Y-113668654D01*
X152790203Y-113712071D01*
X152790667Y-113713601D01*
X152802403Y-113735557D01*
X152818197Y-113754803D01*
X154203474Y-115140080D01*
X152217000Y-117126554D01*
X152217000Y-116519000D01*
X152171376Y-116309767D01*
X152085809Y-116113455D01*
X151963587Y-115937609D01*
X151809408Y-115788986D01*
X151629197Y-115673298D01*
X151426001Y-115601592D01*
X151259000Y-115728498D01*
X151259000Y-117069000D01*
X151279000Y-117069000D01*
X151279000Y-117323000D01*
X151259000Y-117323000D01*
X151259000Y-117343000D01*
X151005000Y-117343000D01*
X151005000Y-117323000D01*
X150985000Y-117323000D01*
X150985000Y-117069000D01*
X151005000Y-117069000D01*
X151005000Y-115728498D01*
X150837999Y-115601592D01*
X150790663Y-115618297D01*
X150763185Y-115584815D01*
X150666494Y-115505463D01*
X150556180Y-115446498D01*
X150436482Y-115410188D01*
X150380676Y-115404692D01*
X152199428Y-113585940D01*
X152231291Y-113559791D01*
X152335636Y-113432646D01*
X152347382Y-113410672D01*
X152438972Y-113502262D01*
G37*
X152438972Y-113502262D02*
X152592111Y-113604586D01*
X152746786Y-113668654D01*
X152790203Y-113712071D01*
X152790667Y-113713601D01*
X152802403Y-113735557D01*
X152818197Y-113754803D01*
X154203474Y-115140080D01*
X152217000Y-117126554D01*
X152217000Y-116519000D01*
X152171376Y-116309767D01*
X152085809Y-116113455D01*
X151963587Y-115937609D01*
X151809408Y-115788986D01*
X151629197Y-115673298D01*
X151426001Y-115601592D01*
X151259000Y-115728498D01*
X151259000Y-117069000D01*
X151279000Y-117069000D01*
X151279000Y-117323000D01*
X151259000Y-117323000D01*
X151259000Y-117343000D01*
X151005000Y-117343000D01*
X151005000Y-117323000D01*
X150985000Y-117323000D01*
X150985000Y-117069000D01*
X151005000Y-117069000D01*
X151005000Y-115728498D01*
X150837999Y-115601592D01*
X150790663Y-115618297D01*
X150763185Y-115584815D01*
X150666494Y-115505463D01*
X150556180Y-115446498D01*
X150436482Y-115410188D01*
X150380676Y-115404692D01*
X152199428Y-113585940D01*
X152231291Y-113559791D01*
X152335636Y-113432646D01*
X152347382Y-113410672D01*
X152438972Y-113502262D01*
G36*
X160655000Y-112014000D02*
G01*
X160675000Y-112014000D01*
X160675000Y-112141000D01*
X160381000Y-112141000D01*
X160381000Y-112014000D01*
X160401000Y-112014000D01*
X160401000Y-111994000D01*
X160655000Y-111994000D01*
X160655000Y-112014000D01*
G37*
X160655000Y-112014000D02*
X160675000Y-112014000D01*
X160675000Y-112141000D01*
X160381000Y-112141000D01*
X160381000Y-112014000D01*
X160401000Y-112014000D01*
X160401000Y-111994000D01*
X160655000Y-111994000D01*
X160655000Y-112014000D01*
G36*
X160732941Y-111136809D02*
G01*
X160655002Y-111214748D01*
X160655002Y-111058870D01*
X160732941Y-111136809D01*
G37*
X160732941Y-111136809D02*
X160655002Y-111214748D01*
X160655002Y-111058870D01*
X160732941Y-111136809D01*
G36*
X160652132Y-111056000D02*
G01*
X160634868Y-111056000D01*
X160643500Y-111047368D01*
X160652132Y-111056000D01*
G37*
X160652132Y-111056000D02*
X160634868Y-111056000D01*
X160643500Y-111047368D01*
X160652132Y-111056000D01*
G36*
X159498828Y-105985086D02*
G01*
X159576364Y-106130145D01*
X159627000Y-106191846D01*
X159627000Y-106575481D01*
X159606463Y-106600506D01*
X159547498Y-106710820D01*
X159512000Y-106827841D01*
X159485000Y-106738834D01*
X159485000Y-105939501D01*
X159498828Y-105985086D01*
G37*
X159498828Y-105985086D02*
X159576364Y-106130145D01*
X159627000Y-106191846D01*
X159627000Y-106575481D01*
X159606463Y-106600506D01*
X159547498Y-106710820D01*
X159512000Y-106827841D01*
X159485000Y-106738834D01*
X159485000Y-105939501D01*
X159498828Y-105985086D01*
G36*
X123725000Y-106000576D02*
G01*
X123552281Y-106034932D01*
X123382121Y-106105414D01*
X123242059Y-106199000D01*
X119883418Y-106199000D01*
X119752445Y-106002985D01*
X119549015Y-105799555D01*
X119309806Y-105639721D01*
X119044012Y-105529626D01*
X118761847Y-105473500D01*
X118474153Y-105473500D01*
X118191988Y-105529626D01*
X118174186Y-105537000D01*
X117410000Y-105537000D01*
X117410000Y-102806053D01*
X117438006Y-102829037D01*
X117548320Y-102888002D01*
X117668018Y-102924312D01*
X117792500Y-102936572D01*
X118332250Y-102933500D01*
X118491000Y-102774750D01*
X118491000Y-101600000D01*
X118745000Y-101600000D01*
X118745000Y-102774750D01*
X118903750Y-102933500D01*
X119443500Y-102936572D01*
X119567982Y-102924312D01*
X119687680Y-102888002D01*
X119797994Y-102829037D01*
X119894685Y-102749685D01*
X119974037Y-102652994D01*
X120033002Y-102542680D01*
X120069312Y-102422982D01*
X120081572Y-102298500D01*
X120078500Y-101758750D01*
X119919750Y-101600000D01*
X118745000Y-101600000D01*
X118491000Y-101600000D01*
X118471000Y-101600000D01*
X118471000Y-101346000D01*
X118491000Y-101346000D01*
X118491000Y-101326000D01*
X118745000Y-101326000D01*
X118745000Y-101346000D01*
X119919750Y-101346000D01*
X120078500Y-101187250D01*
X120081572Y-100647500D01*
X120069312Y-100523018D01*
X120033002Y-100403320D01*
X119974037Y-100293006D01*
X119894685Y-100196315D01*
X119797994Y-100116963D01*
X119687680Y-100057998D01*
X119588537Y-100027923D01*
X119752445Y-99864015D01*
X119912279Y-99624806D01*
X120022374Y-99359012D01*
X120078500Y-99076847D01*
X120078500Y-98789153D01*
X120055972Y-98675896D01*
X123100869Y-95631000D01*
X123725001Y-95631000D01*
X123725000Y-106000576D01*
G37*
X123725000Y-106000576D02*
X123552281Y-106034932D01*
X123382121Y-106105414D01*
X123242059Y-106199000D01*
X119883418Y-106199000D01*
X119752445Y-106002985D01*
X119549015Y-105799555D01*
X119309806Y-105639721D01*
X119044012Y-105529626D01*
X118761847Y-105473500D01*
X118474153Y-105473500D01*
X118191988Y-105529626D01*
X118174186Y-105537000D01*
X117410000Y-105537000D01*
X117410000Y-102806053D01*
X117438006Y-102829037D01*
X117548320Y-102888002D01*
X117668018Y-102924312D01*
X117792500Y-102936572D01*
X118332250Y-102933500D01*
X118491000Y-102774750D01*
X118491000Y-101600000D01*
X118745000Y-101600000D01*
X118745000Y-102774750D01*
X118903750Y-102933500D01*
X119443500Y-102936572D01*
X119567982Y-102924312D01*
X119687680Y-102888002D01*
X119797994Y-102829037D01*
X119894685Y-102749685D01*
X119974037Y-102652994D01*
X120033002Y-102542680D01*
X120069312Y-102422982D01*
X120081572Y-102298500D01*
X120078500Y-101758750D01*
X119919750Y-101600000D01*
X118745000Y-101600000D01*
X118491000Y-101600000D01*
X118471000Y-101600000D01*
X118471000Y-101346000D01*
X118491000Y-101346000D01*
X118491000Y-101326000D01*
X118745000Y-101326000D01*
X118745000Y-101346000D01*
X119919750Y-101346000D01*
X120078500Y-101187250D01*
X120081572Y-100647500D01*
X120069312Y-100523018D01*
X120033002Y-100403320D01*
X119974037Y-100293006D01*
X119894685Y-100196315D01*
X119797994Y-100116963D01*
X119687680Y-100057998D01*
X119588537Y-100027923D01*
X119752445Y-99864015D01*
X119912279Y-99624806D01*
X120022374Y-99359012D01*
X120078500Y-99076847D01*
X120078500Y-98789153D01*
X120055972Y-98675896D01*
X123100869Y-95631000D01*
X123725001Y-95631000D01*
X123725000Y-106000576D01*
G36*
X163703883Y-99544330D02*
G01*
X163614972Y-99603738D01*
X163484738Y-99733972D01*
X163382414Y-99887111D01*
X163311932Y-100057271D01*
X163276000Y-100237911D01*
X163276000Y-100422089D01*
X163294838Y-100516793D01*
X163236019Y-100511000D01*
X163236018Y-100511000D01*
X163195000Y-100506960D01*
X163153982Y-100511000D01*
X147189507Y-100511000D01*
X147148499Y-100506961D01*
X147107491Y-100511000D01*
X147107481Y-100511000D01*
X146984811Y-100523082D01*
X146827413Y-100570828D01*
X146682354Y-100648364D01*
X146555209Y-100752709D01*
X146529059Y-100784574D01*
X145630445Y-101683188D01*
X145578994Y-101640963D01*
X145468680Y-101581998D01*
X145348982Y-101545688D01*
X145329491Y-101543768D01*
X145301172Y-101450413D01*
X145223636Y-101305354D01*
X145177747Y-101249438D01*
X145119291Y-101178209D01*
X145087427Y-101152059D01*
X144018000Y-100082632D01*
X144018000Y-99755318D01*
X144078982Y-99749312D01*
X144198680Y-99713002D01*
X144272000Y-99673811D01*
X144345320Y-99713002D01*
X144465018Y-99749312D01*
X144589500Y-99761572D01*
X145478500Y-99761572D01*
X145602982Y-99749312D01*
X145722680Y-99713002D01*
X145832994Y-99654037D01*
X145929685Y-99574685D01*
X146009037Y-99477994D01*
X146043243Y-99414000D01*
X147254565Y-99414000D01*
X147358885Y-99541115D01*
X147488725Y-99647671D01*
X147636858Y-99726850D01*
X147797592Y-99775608D01*
X147964750Y-99792072D01*
X148402250Y-99792072D01*
X148569408Y-99775608D01*
X148730142Y-99726850D01*
X148878275Y-99647671D01*
X148899930Y-99629900D01*
X148966506Y-99684537D01*
X149076820Y-99743502D01*
X149196518Y-99779812D01*
X149321000Y-99792072D01*
X149472750Y-99789000D01*
X149631500Y-99630250D01*
X149631500Y-98806000D01*
X149885500Y-98806000D01*
X149885500Y-99630250D01*
X150044250Y-99789000D01*
X150196000Y-99792072D01*
X150320482Y-99779812D01*
X150440180Y-99743502D01*
X150550494Y-99684537D01*
X150647185Y-99605185D01*
X150726537Y-99508494D01*
X150785502Y-99398180D01*
X150821812Y-99278482D01*
X150834072Y-99154000D01*
X150831000Y-98964750D01*
X150672250Y-98806000D01*
X149885500Y-98806000D01*
X149631500Y-98806000D01*
X149611500Y-98806000D01*
X149611500Y-98552000D01*
X149631500Y-98552000D01*
X149631500Y-97727750D01*
X149885500Y-97727750D01*
X149885500Y-98552000D01*
X150672250Y-98552000D01*
X150831000Y-98393250D01*
X150834072Y-98204000D01*
X150821812Y-98079518D01*
X150785502Y-97959820D01*
X150726537Y-97849506D01*
X150647185Y-97752815D01*
X150550494Y-97673463D01*
X150440180Y-97614498D01*
X150320482Y-97578188D01*
X150196000Y-97565928D01*
X150044250Y-97569000D01*
X149885500Y-97727750D01*
X149631500Y-97727750D01*
X149472750Y-97569000D01*
X149321000Y-97565928D01*
X149196518Y-97578188D01*
X149076820Y-97614498D01*
X148966506Y-97673463D01*
X148899930Y-97728100D01*
X148878275Y-97710329D01*
X148730142Y-97631150D01*
X148569408Y-97582392D01*
X148402250Y-97565928D01*
X147964750Y-97565928D01*
X147797592Y-97582392D01*
X147636858Y-97631150D01*
X147488725Y-97710329D01*
X147358885Y-97816885D01*
X147254565Y-97944000D01*
X146043243Y-97944000D01*
X146009037Y-97880006D01*
X145929685Y-97783315D01*
X145832994Y-97703963D01*
X145722680Y-97644998D01*
X145602982Y-97608688D01*
X145478500Y-97596428D01*
X144589500Y-97596428D01*
X144465018Y-97608688D01*
X144345320Y-97644998D01*
X144272000Y-97684189D01*
X144198680Y-97644998D01*
X144195247Y-97643956D01*
X144192337Y-97634365D01*
X144124087Y-97506678D01*
X144032238Y-97394760D01*
X144018000Y-97383075D01*
X144018000Y-96874000D01*
X152877895Y-96874000D01*
X152914000Y-96877556D01*
X152950105Y-96874000D01*
X153058085Y-96863365D01*
X153196633Y-96821337D01*
X153324320Y-96753087D01*
X153436238Y-96661238D01*
X153459259Y-96633188D01*
X156060193Y-94032254D01*
X156088238Y-94009238D01*
X156157311Y-93925072D01*
X156566000Y-93925072D01*
X156690482Y-93912812D01*
X156810180Y-93876502D01*
X156854148Y-93853000D01*
X158012554Y-93853000D01*
X163703883Y-99544330D01*
G37*
X163703883Y-99544330D02*
X163614972Y-99603738D01*
X163484738Y-99733972D01*
X163382414Y-99887111D01*
X163311932Y-100057271D01*
X163276000Y-100237911D01*
X163276000Y-100422089D01*
X163294838Y-100516793D01*
X163236019Y-100511000D01*
X163236018Y-100511000D01*
X163195000Y-100506960D01*
X163153982Y-100511000D01*
X147189507Y-100511000D01*
X147148499Y-100506961D01*
X147107491Y-100511000D01*
X147107481Y-100511000D01*
X146984811Y-100523082D01*
X146827413Y-100570828D01*
X146682354Y-100648364D01*
X146555209Y-100752709D01*
X146529059Y-100784574D01*
X145630445Y-101683188D01*
X145578994Y-101640963D01*
X145468680Y-101581998D01*
X145348982Y-101545688D01*
X145329491Y-101543768D01*
X145301172Y-101450413D01*
X145223636Y-101305354D01*
X145177747Y-101249438D01*
X145119291Y-101178209D01*
X145087427Y-101152059D01*
X144018000Y-100082632D01*
X144018000Y-99755318D01*
X144078982Y-99749312D01*
X144198680Y-99713002D01*
X144272000Y-99673811D01*
X144345320Y-99713002D01*
X144465018Y-99749312D01*
X144589500Y-99761572D01*
X145478500Y-99761572D01*
X145602982Y-99749312D01*
X145722680Y-99713002D01*
X145832994Y-99654037D01*
X145929685Y-99574685D01*
X146009037Y-99477994D01*
X146043243Y-99414000D01*
X147254565Y-99414000D01*
X147358885Y-99541115D01*
X147488725Y-99647671D01*
X147636858Y-99726850D01*
X147797592Y-99775608D01*
X147964750Y-99792072D01*
X148402250Y-99792072D01*
X148569408Y-99775608D01*
X148730142Y-99726850D01*
X148878275Y-99647671D01*
X148899930Y-99629900D01*
X148966506Y-99684537D01*
X149076820Y-99743502D01*
X149196518Y-99779812D01*
X149321000Y-99792072D01*
X149472750Y-99789000D01*
X149631500Y-99630250D01*
X149631500Y-98806000D01*
X149885500Y-98806000D01*
X149885500Y-99630250D01*
X150044250Y-99789000D01*
X150196000Y-99792072D01*
X150320482Y-99779812D01*
X150440180Y-99743502D01*
X150550494Y-99684537D01*
X150647185Y-99605185D01*
X150726537Y-99508494D01*
X150785502Y-99398180D01*
X150821812Y-99278482D01*
X150834072Y-99154000D01*
X150831000Y-98964750D01*
X150672250Y-98806000D01*
X149885500Y-98806000D01*
X149631500Y-98806000D01*
X149611500Y-98806000D01*
X149611500Y-98552000D01*
X149631500Y-98552000D01*
X149631500Y-97727750D01*
X149885500Y-97727750D01*
X149885500Y-98552000D01*
X150672250Y-98552000D01*
X150831000Y-98393250D01*
X150834072Y-98204000D01*
X150821812Y-98079518D01*
X150785502Y-97959820D01*
X150726537Y-97849506D01*
X150647185Y-97752815D01*
X150550494Y-97673463D01*
X150440180Y-97614498D01*
X150320482Y-97578188D01*
X150196000Y-97565928D01*
X150044250Y-97569000D01*
X149885500Y-97727750D01*
X149631500Y-97727750D01*
X149472750Y-97569000D01*
X149321000Y-97565928D01*
X149196518Y-97578188D01*
X149076820Y-97614498D01*
X148966506Y-97673463D01*
X148899930Y-97728100D01*
X148878275Y-97710329D01*
X148730142Y-97631150D01*
X148569408Y-97582392D01*
X148402250Y-97565928D01*
X147964750Y-97565928D01*
X147797592Y-97582392D01*
X147636858Y-97631150D01*
X147488725Y-97710329D01*
X147358885Y-97816885D01*
X147254565Y-97944000D01*
X146043243Y-97944000D01*
X146009037Y-97880006D01*
X145929685Y-97783315D01*
X145832994Y-97703963D01*
X145722680Y-97644998D01*
X145602982Y-97608688D01*
X145478500Y-97596428D01*
X144589500Y-97596428D01*
X144465018Y-97608688D01*
X144345320Y-97644998D01*
X144272000Y-97684189D01*
X144198680Y-97644998D01*
X144195247Y-97643956D01*
X144192337Y-97634365D01*
X144124087Y-97506678D01*
X144032238Y-97394760D01*
X144018000Y-97383075D01*
X144018000Y-96874000D01*
X152877895Y-96874000D01*
X152914000Y-96877556D01*
X152950105Y-96874000D01*
X153058085Y-96863365D01*
X153196633Y-96821337D01*
X153324320Y-96753087D01*
X153436238Y-96661238D01*
X153459259Y-96633188D01*
X156060193Y-94032254D01*
X156088238Y-94009238D01*
X156157311Y-93925072D01*
X156566000Y-93925072D01*
X156690482Y-93912812D01*
X156810180Y-93876502D01*
X156854148Y-93853000D01*
X158012554Y-93853000D01*
X163703883Y-99544330D01*
G36*
X176090000Y-96211559D02*
G01*
X176013445Y-96096985D01*
X175810015Y-95893555D01*
X175570806Y-95733721D01*
X175305012Y-95623626D01*
X175022847Y-95567500D01*
X174735153Y-95567500D01*
X174452988Y-95623626D01*
X174187194Y-95733721D01*
X173947985Y-95893555D01*
X173744555Y-96096985D01*
X173584721Y-96336194D01*
X173474626Y-96601988D01*
X173418500Y-96884153D01*
X173418500Y-97171847D01*
X173474626Y-97454012D01*
X173584721Y-97719806D01*
X173744555Y-97959015D01*
X173908463Y-98122923D01*
X173809320Y-98152998D01*
X173699006Y-98211963D01*
X173602315Y-98291315D01*
X173522963Y-98388006D01*
X173463998Y-98498320D01*
X173427688Y-98618018D01*
X173415428Y-98742500D01*
X173415428Y-99214000D01*
X171324683Y-99214000D01*
X171310251Y-99187000D01*
X171346502Y-99119180D01*
X171382812Y-98999482D01*
X171395072Y-98875000D01*
X171392000Y-98710750D01*
X171233250Y-98552000D01*
X170434000Y-98552000D01*
X170434000Y-98572000D01*
X170180000Y-98572000D01*
X170180000Y-98552000D01*
X170160000Y-98552000D01*
X170160000Y-98298000D01*
X170180000Y-98298000D01*
X170180000Y-97498750D01*
X170434000Y-97498750D01*
X170434000Y-98298000D01*
X171233250Y-98298000D01*
X171392000Y-98139250D01*
X171395072Y-97975000D01*
X171382812Y-97850518D01*
X171346502Y-97730820D01*
X171287537Y-97620506D01*
X171208185Y-97523815D01*
X171111494Y-97444463D01*
X171001180Y-97385498D01*
X170881482Y-97349188D01*
X170757000Y-97336928D01*
X170592750Y-97340000D01*
X170434000Y-97498750D01*
X170180000Y-97498750D01*
X170021250Y-97340000D01*
X169857000Y-97336928D01*
X169732518Y-97349188D01*
X169612820Y-97385498D01*
X169568852Y-97409000D01*
X169391000Y-97409000D01*
X169391000Y-96386243D01*
X169454994Y-96352037D01*
X169551685Y-96272685D01*
X169631037Y-96175994D01*
X169665243Y-96112000D01*
X171296395Y-96112000D01*
X171332500Y-96115556D01*
X171368605Y-96112000D01*
X171448928Y-96104089D01*
X171476585Y-96101365D01*
X171476588Y-96101364D01*
X171615133Y-96059337D01*
X171742820Y-95991087D01*
X171854738Y-95899238D01*
X171877759Y-95871187D01*
X175373193Y-92375754D01*
X175401238Y-92352738D01*
X175470311Y-92268572D01*
X175704500Y-92268572D01*
X175828982Y-92256312D01*
X175948680Y-92220002D01*
X176058994Y-92161037D01*
X176090001Y-92135591D01*
X176090000Y-96211559D01*
G37*
X176090000Y-96211559D02*
X176013445Y-96096985D01*
X175810015Y-95893555D01*
X175570806Y-95733721D01*
X175305012Y-95623626D01*
X175022847Y-95567500D01*
X174735153Y-95567500D01*
X174452988Y-95623626D01*
X174187194Y-95733721D01*
X173947985Y-95893555D01*
X173744555Y-96096985D01*
X173584721Y-96336194D01*
X173474626Y-96601988D01*
X173418500Y-96884153D01*
X173418500Y-97171847D01*
X173474626Y-97454012D01*
X173584721Y-97719806D01*
X173744555Y-97959015D01*
X173908463Y-98122923D01*
X173809320Y-98152998D01*
X173699006Y-98211963D01*
X173602315Y-98291315D01*
X173522963Y-98388006D01*
X173463998Y-98498320D01*
X173427688Y-98618018D01*
X173415428Y-98742500D01*
X173415428Y-99214000D01*
X171324683Y-99214000D01*
X171310251Y-99187000D01*
X171346502Y-99119180D01*
X171382812Y-98999482D01*
X171395072Y-98875000D01*
X171392000Y-98710750D01*
X171233250Y-98552000D01*
X170434000Y-98552000D01*
X170434000Y-98572000D01*
X170180000Y-98572000D01*
X170180000Y-98552000D01*
X170160000Y-98552000D01*
X170160000Y-98298000D01*
X170180000Y-98298000D01*
X170180000Y-97498750D01*
X170434000Y-97498750D01*
X170434000Y-98298000D01*
X171233250Y-98298000D01*
X171392000Y-98139250D01*
X171395072Y-97975000D01*
X171382812Y-97850518D01*
X171346502Y-97730820D01*
X171287537Y-97620506D01*
X171208185Y-97523815D01*
X171111494Y-97444463D01*
X171001180Y-97385498D01*
X170881482Y-97349188D01*
X170757000Y-97336928D01*
X170592750Y-97340000D01*
X170434000Y-97498750D01*
X170180000Y-97498750D01*
X170021250Y-97340000D01*
X169857000Y-97336928D01*
X169732518Y-97349188D01*
X169612820Y-97385498D01*
X169568852Y-97409000D01*
X169391000Y-97409000D01*
X169391000Y-96386243D01*
X169454994Y-96352037D01*
X169551685Y-96272685D01*
X169631037Y-96175994D01*
X169665243Y-96112000D01*
X171296395Y-96112000D01*
X171332500Y-96115556D01*
X171368605Y-96112000D01*
X171448928Y-96104089D01*
X171476585Y-96101365D01*
X171476588Y-96101364D01*
X171615133Y-96059337D01*
X171742820Y-95991087D01*
X171854738Y-95899238D01*
X171877759Y-95871187D01*
X175373193Y-92375754D01*
X175401238Y-92352738D01*
X175470311Y-92268572D01*
X175704500Y-92268572D01*
X175828982Y-92256312D01*
X175948680Y-92220002D01*
X176058994Y-92161037D01*
X176090001Y-92135591D01*
X176090000Y-96211559D01*
G36*
X153124746Y-81901193D02*
G01*
X153147762Y-81929238D01*
X153259680Y-82021087D01*
X153387367Y-82089337D01*
X153525915Y-82131365D01*
X153633895Y-82142000D01*
X153633904Y-82142000D01*
X153669999Y-82145555D01*
X153706094Y-82142000D01*
X153936299Y-82142000D01*
X153927928Y-82227000D01*
X153927928Y-83127000D01*
X153940188Y-83251482D01*
X153958546Y-83312000D01*
X153940188Y-83372518D01*
X153927928Y-83497000D01*
X153927928Y-84397000D01*
X153940188Y-84521482D01*
X153958546Y-84582000D01*
X153940188Y-84642518D01*
X153927928Y-84767000D01*
X153927928Y-85667000D01*
X153940188Y-85791482D01*
X153958546Y-85852000D01*
X153940188Y-85912518D01*
X153927928Y-86037000D01*
X153927928Y-86937000D01*
X153940188Y-87061482D01*
X153958546Y-87122000D01*
X153940188Y-87182518D01*
X153927928Y-87307000D01*
X153927928Y-88207000D01*
X153940188Y-88331482D01*
X153958546Y-88392000D01*
X153940188Y-88452518D01*
X153927928Y-88577000D01*
X153927928Y-89477000D01*
X153940188Y-89601482D01*
X153958546Y-89662000D01*
X153940188Y-89722518D01*
X153927928Y-89847000D01*
X153927928Y-90747000D01*
X153940188Y-90871482D01*
X153958546Y-90932000D01*
X153940188Y-90992518D01*
X153927928Y-91117000D01*
X153927928Y-92017000D01*
X153940188Y-92141482D01*
X153958546Y-92202000D01*
X153262192Y-92202000D01*
X153231000Y-92198928D01*
X152331000Y-92198928D01*
X152206518Y-92211188D01*
X152146000Y-92229546D01*
X152085482Y-92211188D01*
X151961000Y-92198928D01*
X151061000Y-92198928D01*
X150936518Y-92211188D01*
X150876000Y-92229546D01*
X150815482Y-92211188D01*
X150691000Y-92198928D01*
X149791000Y-92198928D01*
X149666518Y-92211188D01*
X149606000Y-92229546D01*
X149545482Y-92211188D01*
X149421000Y-92198928D01*
X148521000Y-92198928D01*
X148396518Y-92211188D01*
X148336000Y-92229546D01*
X148275482Y-92211188D01*
X148151000Y-92198928D01*
X147251000Y-92198928D01*
X147126518Y-92211188D01*
X147066000Y-92229546D01*
X147005482Y-92211188D01*
X146881000Y-92198928D01*
X145981000Y-92198928D01*
X145856518Y-92211188D01*
X145796000Y-92229546D01*
X145735482Y-92211188D01*
X145611000Y-92198928D01*
X144711000Y-92198928D01*
X144586518Y-92211188D01*
X144526000Y-92229546D01*
X144465482Y-92211188D01*
X144341000Y-92198928D01*
X143441000Y-92198928D01*
X143316518Y-92211188D01*
X143256000Y-92229546D01*
X143195482Y-92211188D01*
X143071000Y-92198928D01*
X142171000Y-92198928D01*
X142046518Y-92211188D01*
X141986000Y-92229546D01*
X141925482Y-92211188D01*
X141801000Y-92198928D01*
X141636750Y-92202000D01*
X141478000Y-92360750D01*
X141478000Y-93710000D01*
X141498000Y-93710000D01*
X141498000Y-93964000D01*
X141478000Y-93964000D01*
X141478000Y-93984000D01*
X141224000Y-93984000D01*
X141224000Y-93964000D01*
X141204000Y-93964000D01*
X141204000Y-93710000D01*
X141224000Y-93710000D01*
X141224000Y-92360750D01*
X141092848Y-92229598D01*
X142464206Y-90858241D01*
X142492251Y-90835225D01*
X142584100Y-90723307D01*
X142598695Y-90696002D01*
X142652350Y-90595621D01*
X142694378Y-90457072D01*
X142708569Y-90312987D01*
X142705013Y-90276882D01*
X142705013Y-86327000D01*
X142927928Y-86327000D01*
X142940188Y-86451482D01*
X142976498Y-86571180D01*
X143035463Y-86681494D01*
X143114815Y-86778185D01*
X143211506Y-86857537D01*
X143321820Y-86916502D01*
X143441518Y-86952812D01*
X143566000Y-86965072D01*
X145780250Y-86962000D01*
X145939000Y-86803250D01*
X145939000Y-83954000D01*
X146193000Y-83954000D01*
X146193000Y-86803250D01*
X146351750Y-86962000D01*
X148566000Y-86965072D01*
X148690482Y-86952812D01*
X148810180Y-86916502D01*
X148920494Y-86857537D01*
X149017185Y-86778185D01*
X149096537Y-86681494D01*
X149155502Y-86571180D01*
X149191812Y-86451482D01*
X149204072Y-86327000D01*
X149201000Y-84112750D01*
X149042250Y-83954000D01*
X146193000Y-83954000D01*
X145939000Y-83954000D01*
X143089750Y-83954000D01*
X142931000Y-84112750D01*
X142927928Y-86327000D01*
X142705013Y-86327000D01*
X142705013Y-84741411D01*
X142708568Y-84705314D01*
X142705013Y-84669217D01*
X142705013Y-84669210D01*
X142694378Y-84561230D01*
X142691785Y-84552680D01*
X142673570Y-84492635D01*
X142652350Y-84422682D01*
X142584100Y-84294995D01*
X142536289Y-84236738D01*
X142515266Y-84211121D01*
X142515263Y-84211118D01*
X142492250Y-84183077D01*
X142464210Y-84160065D01*
X141451000Y-83146856D01*
X141451000Y-81327000D01*
X142927928Y-81327000D01*
X142931000Y-83541250D01*
X143089750Y-83700000D01*
X145939000Y-83700000D01*
X145939000Y-80850750D01*
X146193000Y-80850750D01*
X146193000Y-83700000D01*
X149042250Y-83700000D01*
X149201000Y-83541250D01*
X149204072Y-81327000D01*
X149191812Y-81202518D01*
X149155502Y-81082820D01*
X149096537Y-80972506D01*
X149017185Y-80875815D01*
X148920494Y-80796463D01*
X148810180Y-80737498D01*
X148690482Y-80701188D01*
X148566000Y-80688928D01*
X146351750Y-80692000D01*
X146193000Y-80850750D01*
X145939000Y-80850750D01*
X145780250Y-80692000D01*
X143566000Y-80688928D01*
X143441518Y-80701188D01*
X143321820Y-80737498D01*
X143211506Y-80796463D01*
X143114815Y-80875815D01*
X143035463Y-80972506D01*
X142976498Y-81082820D01*
X142940188Y-81202518D01*
X142927928Y-81327000D01*
X141451000Y-81327000D01*
X141451000Y-80518000D01*
X142105192Y-80518000D01*
X142221271Y-80566081D01*
X142401911Y-80602013D01*
X142586089Y-80602013D01*
X142766729Y-80566081D01*
X142936889Y-80495599D01*
X143076951Y-80402013D01*
X151625567Y-80402013D01*
X153124746Y-81901193D01*
G37*
X153124746Y-81901193D02*
X153147762Y-81929238D01*
X153259680Y-82021087D01*
X153387367Y-82089337D01*
X153525915Y-82131365D01*
X153633895Y-82142000D01*
X153633904Y-82142000D01*
X153669999Y-82145555D01*
X153706094Y-82142000D01*
X153936299Y-82142000D01*
X153927928Y-82227000D01*
X153927928Y-83127000D01*
X153940188Y-83251482D01*
X153958546Y-83312000D01*
X153940188Y-83372518D01*
X153927928Y-83497000D01*
X153927928Y-84397000D01*
X153940188Y-84521482D01*
X153958546Y-84582000D01*
X153940188Y-84642518D01*
X153927928Y-84767000D01*
X153927928Y-85667000D01*
X153940188Y-85791482D01*
X153958546Y-85852000D01*
X153940188Y-85912518D01*
X153927928Y-86037000D01*
X153927928Y-86937000D01*
X153940188Y-87061482D01*
X153958546Y-87122000D01*
X153940188Y-87182518D01*
X153927928Y-87307000D01*
X153927928Y-88207000D01*
X153940188Y-88331482D01*
X153958546Y-88392000D01*
X153940188Y-88452518D01*
X153927928Y-88577000D01*
X153927928Y-89477000D01*
X153940188Y-89601482D01*
X153958546Y-89662000D01*
X153940188Y-89722518D01*
X153927928Y-89847000D01*
X153927928Y-90747000D01*
X153940188Y-90871482D01*
X153958546Y-90932000D01*
X153940188Y-90992518D01*
X153927928Y-91117000D01*
X153927928Y-92017000D01*
X153940188Y-92141482D01*
X153958546Y-92202000D01*
X153262192Y-92202000D01*
X153231000Y-92198928D01*
X152331000Y-92198928D01*
X152206518Y-92211188D01*
X152146000Y-92229546D01*
X152085482Y-92211188D01*
X151961000Y-92198928D01*
X151061000Y-92198928D01*
X150936518Y-92211188D01*
X150876000Y-92229546D01*
X150815482Y-92211188D01*
X150691000Y-92198928D01*
X149791000Y-92198928D01*
X149666518Y-92211188D01*
X149606000Y-92229546D01*
X149545482Y-92211188D01*
X149421000Y-92198928D01*
X148521000Y-92198928D01*
X148396518Y-92211188D01*
X148336000Y-92229546D01*
X148275482Y-92211188D01*
X148151000Y-92198928D01*
X147251000Y-92198928D01*
X147126518Y-92211188D01*
X147066000Y-92229546D01*
X147005482Y-92211188D01*
X146881000Y-92198928D01*
X145981000Y-92198928D01*
X145856518Y-92211188D01*
X145796000Y-92229546D01*
X145735482Y-92211188D01*
X145611000Y-92198928D01*
X144711000Y-92198928D01*
X144586518Y-92211188D01*
X144526000Y-92229546D01*
X144465482Y-92211188D01*
X144341000Y-92198928D01*
X143441000Y-92198928D01*
X143316518Y-92211188D01*
X143256000Y-92229546D01*
X143195482Y-92211188D01*
X143071000Y-92198928D01*
X142171000Y-92198928D01*
X142046518Y-92211188D01*
X141986000Y-92229546D01*
X141925482Y-92211188D01*
X141801000Y-92198928D01*
X141636750Y-92202000D01*
X141478000Y-92360750D01*
X141478000Y-93710000D01*
X141498000Y-93710000D01*
X141498000Y-93964000D01*
X141478000Y-93964000D01*
X141478000Y-93984000D01*
X141224000Y-93984000D01*
X141224000Y-93964000D01*
X141204000Y-93964000D01*
X141204000Y-93710000D01*
X141224000Y-93710000D01*
X141224000Y-92360750D01*
X141092848Y-92229598D01*
X142464206Y-90858241D01*
X142492251Y-90835225D01*
X142584100Y-90723307D01*
X142598695Y-90696002D01*
X142652350Y-90595621D01*
X142694378Y-90457072D01*
X142708569Y-90312987D01*
X142705013Y-90276882D01*
X142705013Y-86327000D01*
X142927928Y-86327000D01*
X142940188Y-86451482D01*
X142976498Y-86571180D01*
X143035463Y-86681494D01*
X143114815Y-86778185D01*
X143211506Y-86857537D01*
X143321820Y-86916502D01*
X143441518Y-86952812D01*
X143566000Y-86965072D01*
X145780250Y-86962000D01*
X145939000Y-86803250D01*
X145939000Y-83954000D01*
X146193000Y-83954000D01*
X146193000Y-86803250D01*
X146351750Y-86962000D01*
X148566000Y-86965072D01*
X148690482Y-86952812D01*
X148810180Y-86916502D01*
X148920494Y-86857537D01*
X149017185Y-86778185D01*
X149096537Y-86681494D01*
X149155502Y-86571180D01*
X149191812Y-86451482D01*
X149204072Y-86327000D01*
X149201000Y-84112750D01*
X149042250Y-83954000D01*
X146193000Y-83954000D01*
X145939000Y-83954000D01*
X143089750Y-83954000D01*
X142931000Y-84112750D01*
X142927928Y-86327000D01*
X142705013Y-86327000D01*
X142705013Y-84741411D01*
X142708568Y-84705314D01*
X142705013Y-84669217D01*
X142705013Y-84669210D01*
X142694378Y-84561230D01*
X142691785Y-84552680D01*
X142673570Y-84492635D01*
X142652350Y-84422682D01*
X142584100Y-84294995D01*
X142536289Y-84236738D01*
X142515266Y-84211121D01*
X142515263Y-84211118D01*
X142492250Y-84183077D01*
X142464210Y-84160065D01*
X141451000Y-83146856D01*
X141451000Y-81327000D01*
X142927928Y-81327000D01*
X142931000Y-83541250D01*
X143089750Y-83700000D01*
X145939000Y-83700000D01*
X145939000Y-80850750D01*
X146193000Y-80850750D01*
X146193000Y-83700000D01*
X149042250Y-83700000D01*
X149201000Y-83541250D01*
X149204072Y-81327000D01*
X149191812Y-81202518D01*
X149155502Y-81082820D01*
X149096537Y-80972506D01*
X149017185Y-80875815D01*
X148920494Y-80796463D01*
X148810180Y-80737498D01*
X148690482Y-80701188D01*
X148566000Y-80688928D01*
X146351750Y-80692000D01*
X146193000Y-80850750D01*
X145939000Y-80850750D01*
X145780250Y-80692000D01*
X143566000Y-80688928D01*
X143441518Y-80701188D01*
X143321820Y-80737498D01*
X143211506Y-80796463D01*
X143114815Y-80875815D01*
X143035463Y-80972506D01*
X142976498Y-81082820D01*
X142940188Y-81202518D01*
X142927928Y-81327000D01*
X141451000Y-81327000D01*
X141451000Y-80518000D01*
X142105192Y-80518000D01*
X142221271Y-80566081D01*
X142401911Y-80602013D01*
X142586089Y-80602013D01*
X142766729Y-80566081D01*
X142936889Y-80495599D01*
X143076951Y-80402013D01*
X151625567Y-80402013D01*
X153124746Y-81901193D01*
G36*
X123783871Y-88896739D02*
G01*
X123657354Y-88964364D01*
X123530209Y-89068709D01*
X123504054Y-89100579D01*
X123198573Y-89406060D01*
X123166709Y-89432210D01*
X123096373Y-89517915D01*
X123062363Y-89559356D01*
X122984827Y-89704415D01*
X122937081Y-89861813D01*
X122920959Y-90025501D01*
X122925000Y-90066529D01*
X122924999Y-92456000D01*
X119061814Y-92456000D01*
X119044012Y-92448626D01*
X118761847Y-92392500D01*
X118474153Y-92392500D01*
X118191988Y-92448626D01*
X118174186Y-92456000D01*
X117410000Y-92456000D01*
X117410000Y-89402909D01*
X117786696Y-89402909D01*
X117861367Y-89649481D01*
X118121228Y-89772931D01*
X118400180Y-89843313D01*
X118687502Y-89857921D01*
X118972154Y-89816194D01*
X119243196Y-89719737D01*
X119374633Y-89649481D01*
X119449304Y-89402909D01*
X118618000Y-88571605D01*
X117786696Y-89402909D01*
X117410000Y-89402909D01*
X117410000Y-89163618D01*
X117607091Y-89223304D01*
X118432559Y-88397836D01*
X118496755Y-88392000D01*
X118797605Y-88392000D01*
X119628909Y-89223304D01*
X119875481Y-89148633D01*
X119998931Y-88888772D01*
X120069313Y-88609820D01*
X120083921Y-88322498D01*
X120042194Y-88037846D01*
X119945737Y-87766804D01*
X119875481Y-87635367D01*
X119628909Y-87560696D01*
X118797605Y-88392000D01*
X118496755Y-88392000D01*
X118502498Y-88391478D01*
X118533143Y-88384804D01*
X118555706Y-88374280D01*
X118575782Y-88359557D01*
X118592600Y-88341200D01*
X118902815Y-87927580D01*
X119449304Y-87381091D01*
X119444239Y-87364367D01*
X120847869Y-85960737D01*
X123783871Y-88896739D01*
G37*
X123783871Y-88896739D02*
X123657354Y-88964364D01*
X123530209Y-89068709D01*
X123504054Y-89100579D01*
X123198573Y-89406060D01*
X123166709Y-89432210D01*
X123096373Y-89517915D01*
X123062363Y-89559356D01*
X122984827Y-89704415D01*
X122937081Y-89861813D01*
X122920959Y-90025501D01*
X122925000Y-90066529D01*
X122924999Y-92456000D01*
X119061814Y-92456000D01*
X119044012Y-92448626D01*
X118761847Y-92392500D01*
X118474153Y-92392500D01*
X118191988Y-92448626D01*
X118174186Y-92456000D01*
X117410000Y-92456000D01*
X117410000Y-89402909D01*
X117786696Y-89402909D01*
X117861367Y-89649481D01*
X118121228Y-89772931D01*
X118400180Y-89843313D01*
X118687502Y-89857921D01*
X118972154Y-89816194D01*
X119243196Y-89719737D01*
X119374633Y-89649481D01*
X119449304Y-89402909D01*
X118618000Y-88571605D01*
X117786696Y-89402909D01*
X117410000Y-89402909D01*
X117410000Y-89163618D01*
X117607091Y-89223304D01*
X118432559Y-88397836D01*
X118496755Y-88392000D01*
X118797605Y-88392000D01*
X119628909Y-89223304D01*
X119875481Y-89148633D01*
X119998931Y-88888772D01*
X120069313Y-88609820D01*
X120083921Y-88322498D01*
X120042194Y-88037846D01*
X119945737Y-87766804D01*
X119875481Y-87635367D01*
X119628909Y-87560696D01*
X118797605Y-88392000D01*
X118496755Y-88392000D01*
X118502498Y-88391478D01*
X118533143Y-88384804D01*
X118555706Y-88374280D01*
X118575782Y-88359557D01*
X118592600Y-88341200D01*
X118902815Y-87927580D01*
X119449304Y-87381091D01*
X119444239Y-87364367D01*
X120847869Y-85960737D01*
X123783871Y-88896739D01*
G36*
X132715000Y-74803000D02*
G01*
X132717440Y-74827776D01*
X132724667Y-74851601D01*
X132736403Y-74873557D01*
X132752197Y-74892803D01*
X132771443Y-74908597D01*
X132793399Y-74920333D01*
X132817224Y-74927560D01*
X132842000Y-74930000D01*
X161290000Y-74930000D01*
X161314776Y-74927560D01*
X161338601Y-74920333D01*
X161360557Y-74908597D01*
X161379803Y-74892803D01*
X161395597Y-74873557D01*
X161407333Y-74851601D01*
X161414560Y-74827776D01*
X161417000Y-74803000D01*
X161417000Y-67359872D01*
X170515000Y-67359872D01*
X170515000Y-67800128D01*
X170600890Y-68231925D01*
X170769369Y-68638669D01*
X171013962Y-69004729D01*
X171325271Y-69316038D01*
X171691331Y-69560631D01*
X172098075Y-69729110D01*
X172529872Y-69815000D01*
X172970128Y-69815000D01*
X173401925Y-69729110D01*
X173808669Y-69560631D01*
X174174729Y-69316038D01*
X174486038Y-69004729D01*
X174730631Y-68638669D01*
X174899110Y-68231925D01*
X174985000Y-67800128D01*
X174985000Y-67359872D01*
X174899110Y-66928075D01*
X174730631Y-66521331D01*
X174486038Y-66155271D01*
X174174729Y-65843962D01*
X173808669Y-65599369D01*
X173401925Y-65430890D01*
X172970128Y-65345000D01*
X172529872Y-65345000D01*
X172098075Y-65430890D01*
X171691331Y-65599369D01*
X171325271Y-65843962D01*
X171013962Y-66155271D01*
X170769369Y-66521331D01*
X170600890Y-66928075D01*
X170515000Y-67359872D01*
X161417000Y-67359872D01*
X161417000Y-64240000D01*
X176090001Y-64240000D01*
X176090001Y-87448559D01*
X176013445Y-87333985D01*
X175810015Y-87130555D01*
X175570806Y-86970721D01*
X175305012Y-86860626D01*
X175022847Y-86804500D01*
X174735153Y-86804500D01*
X174452988Y-86860626D01*
X174187194Y-86970721D01*
X173947985Y-87130555D01*
X173744555Y-87333985D01*
X173584721Y-87573194D01*
X173474626Y-87838988D01*
X173418500Y-88121153D01*
X173418500Y-88408847D01*
X173464491Y-88640062D01*
X173304554Y-88800000D01*
X171324683Y-88800000D01*
X171310251Y-88773000D01*
X171346502Y-88705180D01*
X171382812Y-88585482D01*
X171395072Y-88461000D01*
X171392000Y-88296750D01*
X171233250Y-88138000D01*
X170434000Y-88138000D01*
X170434000Y-88158000D01*
X170180000Y-88158000D01*
X170180000Y-88138000D01*
X169380750Y-88138000D01*
X169222000Y-88296750D01*
X169218928Y-88461000D01*
X169231188Y-88585482D01*
X169267498Y-88705180D01*
X169303749Y-88773000D01*
X169267498Y-88840820D01*
X169231188Y-88960518D01*
X169218928Y-89085000D01*
X169218928Y-89985000D01*
X169231188Y-90109482D01*
X169267498Y-90229180D01*
X169326463Y-90339494D01*
X169405815Y-90436185D01*
X169502506Y-90515537D01*
X169572001Y-90552683D01*
X169572000Y-91145053D01*
X169306605Y-91410448D01*
X169224982Y-91385688D01*
X169100500Y-91373428D01*
X168211500Y-91373428D01*
X168087018Y-91385688D01*
X167967320Y-91421998D01*
X167894000Y-91461189D01*
X167820680Y-91421998D01*
X167700982Y-91385688D01*
X167576500Y-91373428D01*
X167377862Y-91373428D01*
X167477262Y-91274028D01*
X167579586Y-91120889D01*
X167643655Y-90966212D01*
X167820421Y-90789446D01*
X167852291Y-90763291D01*
X167956636Y-90636146D01*
X168004147Y-90547259D01*
X168063494Y-90515537D01*
X168160185Y-90436185D01*
X168239537Y-90339494D01*
X168298502Y-90229180D01*
X168334812Y-90109482D01*
X168347072Y-89985000D01*
X168347072Y-89085000D01*
X168334812Y-88960518D01*
X168298502Y-88840820D01*
X168262251Y-88773000D01*
X168298502Y-88705180D01*
X168334812Y-88585482D01*
X168347072Y-88461000D01*
X168344000Y-88296750D01*
X168185250Y-88138000D01*
X167386000Y-88138000D01*
X167386000Y-88158000D01*
X167132000Y-88158000D01*
X167132000Y-88138000D01*
X166332750Y-88138000D01*
X166264948Y-88205802D01*
X165843958Y-87784812D01*
X165820938Y-87756762D01*
X165709020Y-87664913D01*
X165685000Y-87652074D01*
X165685000Y-87651998D01*
X165684857Y-87651998D01*
X165651359Y-87634093D01*
X165652753Y-87629497D01*
X165685000Y-87597250D01*
X165680867Y-87561000D01*
X166170928Y-87561000D01*
X166174000Y-87725250D01*
X166332750Y-87884000D01*
X167132000Y-87884000D01*
X167132000Y-87084750D01*
X167386000Y-87084750D01*
X167386000Y-87884000D01*
X168185250Y-87884000D01*
X168344000Y-87725250D01*
X168347072Y-87561000D01*
X169218928Y-87561000D01*
X169222000Y-87725250D01*
X169380750Y-87884000D01*
X170180000Y-87884000D01*
X170180000Y-87084750D01*
X170434000Y-87084750D01*
X170434000Y-87884000D01*
X171233250Y-87884000D01*
X171392000Y-87725250D01*
X171395072Y-87561000D01*
X171382812Y-87436518D01*
X171346502Y-87316820D01*
X171287537Y-87206506D01*
X171208185Y-87109815D01*
X171111494Y-87030463D01*
X171001180Y-86971498D01*
X170881482Y-86935188D01*
X170757000Y-86922928D01*
X170592750Y-86926000D01*
X170434000Y-87084750D01*
X170180000Y-87084750D01*
X170021250Y-86926000D01*
X169857000Y-86922928D01*
X169732518Y-86935188D01*
X169612820Y-86971498D01*
X169502506Y-87030463D01*
X169405815Y-87109815D01*
X169326463Y-87206506D01*
X169267498Y-87316820D01*
X169231188Y-87436518D01*
X169218928Y-87561000D01*
X168347072Y-87561000D01*
X168334812Y-87436518D01*
X168298502Y-87316820D01*
X168239537Y-87206506D01*
X168160185Y-87109815D01*
X168063494Y-87030463D01*
X167953180Y-86971498D01*
X167833482Y-86935188D01*
X167709000Y-86922928D01*
X167544750Y-86926000D01*
X167386000Y-87084750D01*
X167132000Y-87084750D01*
X166973250Y-86926000D01*
X166809000Y-86922928D01*
X166684518Y-86935188D01*
X166564820Y-86971498D01*
X166454506Y-87030463D01*
X166357815Y-87109815D01*
X166278463Y-87206506D01*
X166219498Y-87316820D01*
X166183188Y-87436518D01*
X166170928Y-87561000D01*
X165680867Y-87561000D01*
X165677757Y-87533733D01*
X165688072Y-87429000D01*
X165688072Y-87129000D01*
X165675812Y-87004518D01*
X165639502Y-86884820D01*
X165580537Y-86774506D01*
X165501185Y-86677815D01*
X165404494Y-86598463D01*
X165294180Y-86539498D01*
X165174482Y-86503188D01*
X165050000Y-86490928D01*
X164763072Y-86490928D01*
X164763072Y-86144000D01*
X164750812Y-86019518D01*
X164714502Y-85899820D01*
X164655537Y-85789506D01*
X164576185Y-85692815D01*
X164561515Y-85680775D01*
X164683262Y-85559028D01*
X164785586Y-85405889D01*
X164856068Y-85235729D01*
X164892000Y-85055089D01*
X164892000Y-84870911D01*
X164856068Y-84690271D01*
X164785586Y-84520111D01*
X164683262Y-84366972D01*
X164553028Y-84236738D01*
X164399889Y-84134414D01*
X164229729Y-84063932D01*
X164049089Y-84028000D01*
X163864911Y-84028000D01*
X163684271Y-84063932D01*
X163514111Y-84134414D01*
X163360972Y-84236738D01*
X163327358Y-84270352D01*
X163293367Y-84280663D01*
X163165680Y-84348913D01*
X163053762Y-84440762D01*
X163030741Y-84468813D01*
X162980808Y-84518746D01*
X162952763Y-84541762D01*
X162860914Y-84653680D01*
X162806969Y-84754605D01*
X162792664Y-84781367D01*
X162750635Y-84919915D01*
X162736444Y-85064000D01*
X162740001Y-85100115D01*
X162740001Y-85515072D01*
X162729733Y-85516243D01*
X162625000Y-85505928D01*
X162325000Y-85505928D01*
X162200518Y-85518188D01*
X162080820Y-85554498D01*
X161970506Y-85613463D01*
X161890671Y-85678982D01*
X161859889Y-85658414D01*
X161689729Y-85587932D01*
X161509089Y-85552000D01*
X161324911Y-85552000D01*
X161144271Y-85587932D01*
X160974111Y-85658414D01*
X160820972Y-85760738D01*
X160767578Y-85814132D01*
X157204072Y-82250626D01*
X157204072Y-82227000D01*
X157191812Y-82102518D01*
X157173454Y-82042000D01*
X157191812Y-81981482D01*
X157204072Y-81857000D01*
X157204072Y-80957000D01*
X157191812Y-80832518D01*
X157173454Y-80772000D01*
X157191812Y-80711482D01*
X157204072Y-80587000D01*
X157204072Y-79687000D01*
X157191812Y-79562518D01*
X157173454Y-79502000D01*
X157191812Y-79441482D01*
X157204072Y-79317000D01*
X157204072Y-78417000D01*
X157191812Y-78292518D01*
X157173454Y-78232000D01*
X157191812Y-78171482D01*
X157204072Y-78047000D01*
X157204072Y-77147000D01*
X157191812Y-77022518D01*
X157173454Y-76962000D01*
X157191812Y-76901482D01*
X157204072Y-76777000D01*
X157201000Y-76612750D01*
X157042250Y-76454000D01*
X155693000Y-76454000D01*
X155693000Y-76474000D01*
X155439000Y-76474000D01*
X155439000Y-76454000D01*
X154089750Y-76454000D01*
X153931000Y-76612750D01*
X153927928Y-76777000D01*
X153936299Y-76862000D01*
X142346403Y-76862000D01*
X142310298Y-76858444D01*
X142274193Y-76862000D01*
X142166213Y-76872635D01*
X142027665Y-76914663D01*
X141899978Y-76982913D01*
X141788060Y-77074762D01*
X141765044Y-77102807D01*
X141143851Y-77724000D01*
X140204072Y-77724000D01*
X140204072Y-77147000D01*
X140191812Y-77022518D01*
X140173454Y-76962000D01*
X140191812Y-76901482D01*
X140204072Y-76777000D01*
X140201000Y-76612750D01*
X140042250Y-76454000D01*
X138693000Y-76454000D01*
X138693000Y-76474000D01*
X138439000Y-76474000D01*
X138439000Y-76454000D01*
X138419000Y-76454000D01*
X138419000Y-76200000D01*
X138439000Y-76200000D01*
X138439000Y-75400750D01*
X138693000Y-75400750D01*
X138693000Y-76200000D01*
X140042250Y-76200000D01*
X140201000Y-76041250D01*
X140204072Y-75877000D01*
X153927928Y-75877000D01*
X153931000Y-76041250D01*
X154089750Y-76200000D01*
X155439000Y-76200000D01*
X155439000Y-75400750D01*
X155693000Y-75400750D01*
X155693000Y-76200000D01*
X157042250Y-76200000D01*
X157201000Y-76041250D01*
X157204072Y-75877000D01*
X157191812Y-75752518D01*
X157155502Y-75632820D01*
X157096537Y-75522506D01*
X157017185Y-75425815D01*
X156920494Y-75346463D01*
X156810180Y-75287498D01*
X156690482Y-75251188D01*
X156566000Y-75238928D01*
X155851750Y-75242000D01*
X155693000Y-75400750D01*
X155439000Y-75400750D01*
X155280250Y-75242000D01*
X154566000Y-75238928D01*
X154441518Y-75251188D01*
X154321820Y-75287498D01*
X154211506Y-75346463D01*
X154114815Y-75425815D01*
X154035463Y-75522506D01*
X153976498Y-75632820D01*
X153940188Y-75752518D01*
X153927928Y-75877000D01*
X140204072Y-75877000D01*
X140191812Y-75752518D01*
X140155502Y-75632820D01*
X140096537Y-75522506D01*
X140017185Y-75425815D01*
X139920494Y-75346463D01*
X139810180Y-75287498D01*
X139690482Y-75251188D01*
X139566000Y-75238928D01*
X138851750Y-75242000D01*
X138693000Y-75400750D01*
X138439000Y-75400750D01*
X138280250Y-75242000D01*
X137566000Y-75238928D01*
X137441518Y-75251188D01*
X137321820Y-75287498D01*
X137277852Y-75311000D01*
X136547185Y-75311000D01*
X136537185Y-75298815D01*
X136440494Y-75219463D01*
X136330180Y-75160498D01*
X136210482Y-75124188D01*
X136086000Y-75111928D01*
X135921750Y-75115000D01*
X135763000Y-75273750D01*
X135763000Y-76073000D01*
X135783000Y-76073000D01*
X135783000Y-76327000D01*
X135763000Y-76327000D01*
X135763000Y-76347000D01*
X135509000Y-76347000D01*
X135509000Y-76327000D01*
X134709750Y-76327000D01*
X134551000Y-76485750D01*
X134547928Y-76650000D01*
X134558959Y-76762000D01*
X134076868Y-76762000D01*
X133064868Y-75750000D01*
X134547928Y-75750000D01*
X134551000Y-75914250D01*
X134709750Y-76073000D01*
X135509000Y-76073000D01*
X135509000Y-75273750D01*
X135350250Y-75115000D01*
X135186000Y-75111928D01*
X135061518Y-75124188D01*
X134941820Y-75160498D01*
X134831506Y-75219463D01*
X134734815Y-75298815D01*
X134655463Y-75395506D01*
X134596498Y-75505820D01*
X134560188Y-75625518D01*
X134547928Y-75750000D01*
X133064868Y-75750000D01*
X127062187Y-69747320D01*
X127068180Y-69745502D01*
X127178494Y-69686537D01*
X127275185Y-69607185D01*
X127354537Y-69510494D01*
X127413502Y-69400180D01*
X127440043Y-69312687D01*
X127517291Y-69249291D01*
X127543445Y-69217422D01*
X128069431Y-68691438D01*
X128101291Y-68665291D01*
X128142579Y-68614982D01*
X128205636Y-68538146D01*
X128283172Y-68393087D01*
X128300468Y-68336068D01*
X128303523Y-68326000D01*
X128353964Y-68326000D01*
X128378271Y-68336068D01*
X128558911Y-68372000D01*
X128743089Y-68372000D01*
X128923729Y-68336068D01*
X128948036Y-68326000D01*
X129585928Y-68326000D01*
X129585928Y-69156000D01*
X129598188Y-69280482D01*
X129634498Y-69400180D01*
X129693463Y-69510494D01*
X129772815Y-69607185D01*
X129869506Y-69686537D01*
X129979820Y-69745502D01*
X130099518Y-69781812D01*
X130224000Y-69794072D01*
X131724000Y-69794072D01*
X131848482Y-69781812D01*
X131968180Y-69745502D01*
X132078494Y-69686537D01*
X132175185Y-69607185D01*
X132254537Y-69510494D01*
X132313502Y-69400180D01*
X132349812Y-69280482D01*
X132362072Y-69156000D01*
X132362072Y-68156000D01*
X132349812Y-68031518D01*
X132313502Y-67911820D01*
X132283665Y-67856000D01*
X132313502Y-67800180D01*
X132349812Y-67680482D01*
X132362072Y-67556000D01*
X132362072Y-66556000D01*
X132349812Y-66431518D01*
X132313502Y-66311820D01*
X132283665Y-66256000D01*
X132313502Y-66200180D01*
X132349812Y-66080482D01*
X132362072Y-65956000D01*
X132359000Y-65741750D01*
X132200250Y-65583000D01*
X131101000Y-65583000D01*
X131101000Y-65603000D01*
X130847000Y-65603000D01*
X130847000Y-65583000D01*
X129747750Y-65583000D01*
X129589000Y-65741750D01*
X129585928Y-65956000D01*
X129598188Y-66080482D01*
X129624433Y-66167000D01*
X128343000Y-66167000D01*
X128343000Y-64956000D01*
X129585928Y-64956000D01*
X129589000Y-65170250D01*
X129747750Y-65329000D01*
X130847000Y-65329000D01*
X130847000Y-64479750D01*
X131101000Y-64479750D01*
X131101000Y-65329000D01*
X132200250Y-65329000D01*
X132359000Y-65170250D01*
X132362072Y-64956000D01*
X132349812Y-64831518D01*
X132313502Y-64711820D01*
X132254537Y-64601506D01*
X132175185Y-64504815D01*
X132078494Y-64425463D01*
X131968180Y-64366498D01*
X131848482Y-64330188D01*
X131724000Y-64317928D01*
X131259750Y-64321000D01*
X131101000Y-64479750D01*
X130847000Y-64479750D01*
X130688250Y-64321000D01*
X130224000Y-64317928D01*
X130099518Y-64330188D01*
X129979820Y-64366498D01*
X129869506Y-64425463D01*
X129772815Y-64504815D01*
X129693463Y-64601506D01*
X129634498Y-64711820D01*
X129598188Y-64831518D01*
X129585928Y-64956000D01*
X128343000Y-64956000D01*
X128343000Y-64811015D01*
X128347040Y-64769999D01*
X128343000Y-64728981D01*
X128330918Y-64606311D01*
X128283172Y-64448913D01*
X128205636Y-64303854D01*
X128153232Y-64240000D01*
X132715000Y-64240000D01*
X132715000Y-74803000D01*
G37*
X132715000Y-74803000D02*
X132717440Y-74827776D01*
X132724667Y-74851601D01*
X132736403Y-74873557D01*
X132752197Y-74892803D01*
X132771443Y-74908597D01*
X132793399Y-74920333D01*
X132817224Y-74927560D01*
X132842000Y-74930000D01*
X161290000Y-74930000D01*
X161314776Y-74927560D01*
X161338601Y-74920333D01*
X161360557Y-74908597D01*
X161379803Y-74892803D01*
X161395597Y-74873557D01*
X161407333Y-74851601D01*
X161414560Y-74827776D01*
X161417000Y-74803000D01*
X161417000Y-67359872D01*
X170515000Y-67359872D01*
X170515000Y-67800128D01*
X170600890Y-68231925D01*
X170769369Y-68638669D01*
X171013962Y-69004729D01*
X171325271Y-69316038D01*
X171691331Y-69560631D01*
X172098075Y-69729110D01*
X172529872Y-69815000D01*
X172970128Y-69815000D01*
X173401925Y-69729110D01*
X173808669Y-69560631D01*
X174174729Y-69316038D01*
X174486038Y-69004729D01*
X174730631Y-68638669D01*
X174899110Y-68231925D01*
X174985000Y-67800128D01*
X174985000Y-67359872D01*
X174899110Y-66928075D01*
X174730631Y-66521331D01*
X174486038Y-66155271D01*
X174174729Y-65843962D01*
X173808669Y-65599369D01*
X173401925Y-65430890D01*
X172970128Y-65345000D01*
X172529872Y-65345000D01*
X172098075Y-65430890D01*
X171691331Y-65599369D01*
X171325271Y-65843962D01*
X171013962Y-66155271D01*
X170769369Y-66521331D01*
X170600890Y-66928075D01*
X170515000Y-67359872D01*
X161417000Y-67359872D01*
X161417000Y-64240000D01*
X176090001Y-64240000D01*
X176090001Y-87448559D01*
X176013445Y-87333985D01*
X175810015Y-87130555D01*
X175570806Y-86970721D01*
X175305012Y-86860626D01*
X175022847Y-86804500D01*
X174735153Y-86804500D01*
X174452988Y-86860626D01*
X174187194Y-86970721D01*
X173947985Y-87130555D01*
X173744555Y-87333985D01*
X173584721Y-87573194D01*
X173474626Y-87838988D01*
X173418500Y-88121153D01*
X173418500Y-88408847D01*
X173464491Y-88640062D01*
X173304554Y-88800000D01*
X171324683Y-88800000D01*
X171310251Y-88773000D01*
X171346502Y-88705180D01*
X171382812Y-88585482D01*
X171395072Y-88461000D01*
X171392000Y-88296750D01*
X171233250Y-88138000D01*
X170434000Y-88138000D01*
X170434000Y-88158000D01*
X170180000Y-88158000D01*
X170180000Y-88138000D01*
X169380750Y-88138000D01*
X169222000Y-88296750D01*
X169218928Y-88461000D01*
X169231188Y-88585482D01*
X169267498Y-88705180D01*
X169303749Y-88773000D01*
X169267498Y-88840820D01*
X169231188Y-88960518D01*
X169218928Y-89085000D01*
X169218928Y-89985000D01*
X169231188Y-90109482D01*
X169267498Y-90229180D01*
X169326463Y-90339494D01*
X169405815Y-90436185D01*
X169502506Y-90515537D01*
X169572001Y-90552683D01*
X169572000Y-91145053D01*
X169306605Y-91410448D01*
X169224982Y-91385688D01*
X169100500Y-91373428D01*
X168211500Y-91373428D01*
X168087018Y-91385688D01*
X167967320Y-91421998D01*
X167894000Y-91461189D01*
X167820680Y-91421998D01*
X167700982Y-91385688D01*
X167576500Y-91373428D01*
X167377862Y-91373428D01*
X167477262Y-91274028D01*
X167579586Y-91120889D01*
X167643655Y-90966212D01*
X167820421Y-90789446D01*
X167852291Y-90763291D01*
X167956636Y-90636146D01*
X168004147Y-90547259D01*
X168063494Y-90515537D01*
X168160185Y-90436185D01*
X168239537Y-90339494D01*
X168298502Y-90229180D01*
X168334812Y-90109482D01*
X168347072Y-89985000D01*
X168347072Y-89085000D01*
X168334812Y-88960518D01*
X168298502Y-88840820D01*
X168262251Y-88773000D01*
X168298502Y-88705180D01*
X168334812Y-88585482D01*
X168347072Y-88461000D01*
X168344000Y-88296750D01*
X168185250Y-88138000D01*
X167386000Y-88138000D01*
X167386000Y-88158000D01*
X167132000Y-88158000D01*
X167132000Y-88138000D01*
X166332750Y-88138000D01*
X166264948Y-88205802D01*
X165843958Y-87784812D01*
X165820938Y-87756762D01*
X165709020Y-87664913D01*
X165685000Y-87652074D01*
X165685000Y-87651998D01*
X165684857Y-87651998D01*
X165651359Y-87634093D01*
X165652753Y-87629497D01*
X165685000Y-87597250D01*
X165680867Y-87561000D01*
X166170928Y-87561000D01*
X166174000Y-87725250D01*
X166332750Y-87884000D01*
X167132000Y-87884000D01*
X167132000Y-87084750D01*
X167386000Y-87084750D01*
X167386000Y-87884000D01*
X168185250Y-87884000D01*
X168344000Y-87725250D01*
X168347072Y-87561000D01*
X169218928Y-87561000D01*
X169222000Y-87725250D01*
X169380750Y-87884000D01*
X170180000Y-87884000D01*
X170180000Y-87084750D01*
X170434000Y-87084750D01*
X170434000Y-87884000D01*
X171233250Y-87884000D01*
X171392000Y-87725250D01*
X171395072Y-87561000D01*
X171382812Y-87436518D01*
X171346502Y-87316820D01*
X171287537Y-87206506D01*
X171208185Y-87109815D01*
X171111494Y-87030463D01*
X171001180Y-86971498D01*
X170881482Y-86935188D01*
X170757000Y-86922928D01*
X170592750Y-86926000D01*
X170434000Y-87084750D01*
X170180000Y-87084750D01*
X170021250Y-86926000D01*
X169857000Y-86922928D01*
X169732518Y-86935188D01*
X169612820Y-86971498D01*
X169502506Y-87030463D01*
X169405815Y-87109815D01*
X169326463Y-87206506D01*
X169267498Y-87316820D01*
X169231188Y-87436518D01*
X169218928Y-87561000D01*
X168347072Y-87561000D01*
X168334812Y-87436518D01*
X168298502Y-87316820D01*
X168239537Y-87206506D01*
X168160185Y-87109815D01*
X168063494Y-87030463D01*
X167953180Y-86971498D01*
X167833482Y-86935188D01*
X167709000Y-86922928D01*
X167544750Y-86926000D01*
X167386000Y-87084750D01*
X167132000Y-87084750D01*
X166973250Y-86926000D01*
X166809000Y-86922928D01*
X166684518Y-86935188D01*
X166564820Y-86971498D01*
X166454506Y-87030463D01*
X166357815Y-87109815D01*
X166278463Y-87206506D01*
X166219498Y-87316820D01*
X166183188Y-87436518D01*
X166170928Y-87561000D01*
X165680867Y-87561000D01*
X165677757Y-87533733D01*
X165688072Y-87429000D01*
X165688072Y-87129000D01*
X165675812Y-87004518D01*
X165639502Y-86884820D01*
X165580537Y-86774506D01*
X165501185Y-86677815D01*
X165404494Y-86598463D01*
X165294180Y-86539498D01*
X165174482Y-86503188D01*
X165050000Y-86490928D01*
X164763072Y-86490928D01*
X164763072Y-86144000D01*
X164750812Y-86019518D01*
X164714502Y-85899820D01*
X164655537Y-85789506D01*
X164576185Y-85692815D01*
X164561515Y-85680775D01*
X164683262Y-85559028D01*
X164785586Y-85405889D01*
X164856068Y-85235729D01*
X164892000Y-85055089D01*
X164892000Y-84870911D01*
X164856068Y-84690271D01*
X164785586Y-84520111D01*
X164683262Y-84366972D01*
X164553028Y-84236738D01*
X164399889Y-84134414D01*
X164229729Y-84063932D01*
X164049089Y-84028000D01*
X163864911Y-84028000D01*
X163684271Y-84063932D01*
X163514111Y-84134414D01*
X163360972Y-84236738D01*
X163327358Y-84270352D01*
X163293367Y-84280663D01*
X163165680Y-84348913D01*
X163053762Y-84440762D01*
X163030741Y-84468813D01*
X162980808Y-84518746D01*
X162952763Y-84541762D01*
X162860914Y-84653680D01*
X162806969Y-84754605D01*
X162792664Y-84781367D01*
X162750635Y-84919915D01*
X162736444Y-85064000D01*
X162740001Y-85100115D01*
X162740001Y-85515072D01*
X162729733Y-85516243D01*
X162625000Y-85505928D01*
X162325000Y-85505928D01*
X162200518Y-85518188D01*
X162080820Y-85554498D01*
X161970506Y-85613463D01*
X161890671Y-85678982D01*
X161859889Y-85658414D01*
X161689729Y-85587932D01*
X161509089Y-85552000D01*
X161324911Y-85552000D01*
X161144271Y-85587932D01*
X160974111Y-85658414D01*
X160820972Y-85760738D01*
X160767578Y-85814132D01*
X157204072Y-82250626D01*
X157204072Y-82227000D01*
X157191812Y-82102518D01*
X157173454Y-82042000D01*
X157191812Y-81981482D01*
X157204072Y-81857000D01*
X157204072Y-80957000D01*
X157191812Y-80832518D01*
X157173454Y-80772000D01*
X157191812Y-80711482D01*
X157204072Y-80587000D01*
X157204072Y-79687000D01*
X157191812Y-79562518D01*
X157173454Y-79502000D01*
X157191812Y-79441482D01*
X157204072Y-79317000D01*
X157204072Y-78417000D01*
X157191812Y-78292518D01*
X157173454Y-78232000D01*
X157191812Y-78171482D01*
X157204072Y-78047000D01*
X157204072Y-77147000D01*
X157191812Y-77022518D01*
X157173454Y-76962000D01*
X157191812Y-76901482D01*
X157204072Y-76777000D01*
X157201000Y-76612750D01*
X157042250Y-76454000D01*
X155693000Y-76454000D01*
X155693000Y-76474000D01*
X155439000Y-76474000D01*
X155439000Y-76454000D01*
X154089750Y-76454000D01*
X153931000Y-76612750D01*
X153927928Y-76777000D01*
X153936299Y-76862000D01*
X142346403Y-76862000D01*
X142310298Y-76858444D01*
X142274193Y-76862000D01*
X142166213Y-76872635D01*
X142027665Y-76914663D01*
X141899978Y-76982913D01*
X141788060Y-77074762D01*
X141765044Y-77102807D01*
X141143851Y-77724000D01*
X140204072Y-77724000D01*
X140204072Y-77147000D01*
X140191812Y-77022518D01*
X140173454Y-76962000D01*
X140191812Y-76901482D01*
X140204072Y-76777000D01*
X140201000Y-76612750D01*
X140042250Y-76454000D01*
X138693000Y-76454000D01*
X138693000Y-76474000D01*
X138439000Y-76474000D01*
X138439000Y-76454000D01*
X138419000Y-76454000D01*
X138419000Y-76200000D01*
X138439000Y-76200000D01*
X138439000Y-75400750D01*
X138693000Y-75400750D01*
X138693000Y-76200000D01*
X140042250Y-76200000D01*
X140201000Y-76041250D01*
X140204072Y-75877000D01*
X153927928Y-75877000D01*
X153931000Y-76041250D01*
X154089750Y-76200000D01*
X155439000Y-76200000D01*
X155439000Y-75400750D01*
X155693000Y-75400750D01*
X155693000Y-76200000D01*
X157042250Y-76200000D01*
X157201000Y-76041250D01*
X157204072Y-75877000D01*
X157191812Y-75752518D01*
X157155502Y-75632820D01*
X157096537Y-75522506D01*
X157017185Y-75425815D01*
X156920494Y-75346463D01*
X156810180Y-75287498D01*
X156690482Y-75251188D01*
X156566000Y-75238928D01*
X155851750Y-75242000D01*
X155693000Y-75400750D01*
X155439000Y-75400750D01*
X155280250Y-75242000D01*
X154566000Y-75238928D01*
X154441518Y-75251188D01*
X154321820Y-75287498D01*
X154211506Y-75346463D01*
X154114815Y-75425815D01*
X154035463Y-75522506D01*
X153976498Y-75632820D01*
X153940188Y-75752518D01*
X153927928Y-75877000D01*
X140204072Y-75877000D01*
X140191812Y-75752518D01*
X140155502Y-75632820D01*
X140096537Y-75522506D01*
X140017185Y-75425815D01*
X139920494Y-75346463D01*
X139810180Y-75287498D01*
X139690482Y-75251188D01*
X139566000Y-75238928D01*
X138851750Y-75242000D01*
X138693000Y-75400750D01*
X138439000Y-75400750D01*
X138280250Y-75242000D01*
X137566000Y-75238928D01*
X137441518Y-75251188D01*
X137321820Y-75287498D01*
X137277852Y-75311000D01*
X136547185Y-75311000D01*
X136537185Y-75298815D01*
X136440494Y-75219463D01*
X136330180Y-75160498D01*
X136210482Y-75124188D01*
X136086000Y-75111928D01*
X135921750Y-75115000D01*
X135763000Y-75273750D01*
X135763000Y-76073000D01*
X135783000Y-76073000D01*
X135783000Y-76327000D01*
X135763000Y-76327000D01*
X135763000Y-76347000D01*
X135509000Y-76347000D01*
X135509000Y-76327000D01*
X134709750Y-76327000D01*
X134551000Y-76485750D01*
X134547928Y-76650000D01*
X134558959Y-76762000D01*
X134076868Y-76762000D01*
X133064868Y-75750000D01*
X134547928Y-75750000D01*
X134551000Y-75914250D01*
X134709750Y-76073000D01*
X135509000Y-76073000D01*
X135509000Y-75273750D01*
X135350250Y-75115000D01*
X135186000Y-75111928D01*
X135061518Y-75124188D01*
X134941820Y-75160498D01*
X134831506Y-75219463D01*
X134734815Y-75298815D01*
X134655463Y-75395506D01*
X134596498Y-75505820D01*
X134560188Y-75625518D01*
X134547928Y-75750000D01*
X133064868Y-75750000D01*
X127062187Y-69747320D01*
X127068180Y-69745502D01*
X127178494Y-69686537D01*
X127275185Y-69607185D01*
X127354537Y-69510494D01*
X127413502Y-69400180D01*
X127440043Y-69312687D01*
X127517291Y-69249291D01*
X127543445Y-69217422D01*
X128069431Y-68691438D01*
X128101291Y-68665291D01*
X128142579Y-68614982D01*
X128205636Y-68538146D01*
X128283172Y-68393087D01*
X128300468Y-68336068D01*
X128303523Y-68326000D01*
X128353964Y-68326000D01*
X128378271Y-68336068D01*
X128558911Y-68372000D01*
X128743089Y-68372000D01*
X128923729Y-68336068D01*
X128948036Y-68326000D01*
X129585928Y-68326000D01*
X129585928Y-69156000D01*
X129598188Y-69280482D01*
X129634498Y-69400180D01*
X129693463Y-69510494D01*
X129772815Y-69607185D01*
X129869506Y-69686537D01*
X129979820Y-69745502D01*
X130099518Y-69781812D01*
X130224000Y-69794072D01*
X131724000Y-69794072D01*
X131848482Y-69781812D01*
X131968180Y-69745502D01*
X132078494Y-69686537D01*
X132175185Y-69607185D01*
X132254537Y-69510494D01*
X132313502Y-69400180D01*
X132349812Y-69280482D01*
X132362072Y-69156000D01*
X132362072Y-68156000D01*
X132349812Y-68031518D01*
X132313502Y-67911820D01*
X132283665Y-67856000D01*
X132313502Y-67800180D01*
X132349812Y-67680482D01*
X132362072Y-67556000D01*
X132362072Y-66556000D01*
X132349812Y-66431518D01*
X132313502Y-66311820D01*
X132283665Y-66256000D01*
X132313502Y-66200180D01*
X132349812Y-66080482D01*
X132362072Y-65956000D01*
X132359000Y-65741750D01*
X132200250Y-65583000D01*
X131101000Y-65583000D01*
X131101000Y-65603000D01*
X130847000Y-65603000D01*
X130847000Y-65583000D01*
X129747750Y-65583000D01*
X129589000Y-65741750D01*
X129585928Y-65956000D01*
X129598188Y-66080482D01*
X129624433Y-66167000D01*
X128343000Y-66167000D01*
X128343000Y-64956000D01*
X129585928Y-64956000D01*
X129589000Y-65170250D01*
X129747750Y-65329000D01*
X130847000Y-65329000D01*
X130847000Y-64479750D01*
X131101000Y-64479750D01*
X131101000Y-65329000D01*
X132200250Y-65329000D01*
X132359000Y-65170250D01*
X132362072Y-64956000D01*
X132349812Y-64831518D01*
X132313502Y-64711820D01*
X132254537Y-64601506D01*
X132175185Y-64504815D01*
X132078494Y-64425463D01*
X131968180Y-64366498D01*
X131848482Y-64330188D01*
X131724000Y-64317928D01*
X131259750Y-64321000D01*
X131101000Y-64479750D01*
X130847000Y-64479750D01*
X130688250Y-64321000D01*
X130224000Y-64317928D01*
X130099518Y-64330188D01*
X129979820Y-64366498D01*
X129869506Y-64425463D01*
X129772815Y-64504815D01*
X129693463Y-64601506D01*
X129634498Y-64711820D01*
X129598188Y-64831518D01*
X129585928Y-64956000D01*
X128343000Y-64956000D01*
X128343000Y-64811015D01*
X128347040Y-64769999D01*
X128343000Y-64728981D01*
X128330918Y-64606311D01*
X128283172Y-64448913D01*
X128205636Y-64303854D01*
X128153232Y-64240000D01*
X132715000Y-64240000D01*
X132715000Y-74803000D01*
G36*
X163080820Y-87483502D02*
G01*
X163124503Y-87496753D01*
X163156750Y-87529000D01*
X163220267Y-87521757D01*
X163325000Y-87532072D01*
X163625000Y-87532072D01*
X163671627Y-87527480D01*
X163672243Y-87533733D01*
X163665000Y-87597250D01*
X163697247Y-87629497D01*
X163710498Y-87673180D01*
X163767061Y-87779000D01*
X163710498Y-87884820D01*
X163697247Y-87928503D01*
X163665000Y-87960750D01*
X163672243Y-88024267D01*
X163661928Y-88129000D01*
X163661928Y-88429000D01*
X163667951Y-88490158D01*
X163625000Y-88485928D01*
X163325000Y-88485928D01*
X163225000Y-88495777D01*
X163125000Y-88485928D01*
X162825000Y-88485928D01*
X162758565Y-88492471D01*
X162757757Y-88484267D01*
X162765000Y-88420750D01*
X162732753Y-88388503D01*
X162719502Y-88344820D01*
X162662939Y-88239000D01*
X162719502Y-88133180D01*
X162732753Y-88089497D01*
X162765000Y-88057250D01*
X162757757Y-87993733D01*
X162768072Y-87889000D01*
X162768072Y-87589000D01*
X162761810Y-87525415D01*
X162793250Y-87529000D01*
X162825497Y-87496753D01*
X162869180Y-87483502D01*
X162975000Y-87426939D01*
X163080820Y-87483502D01*
G37*
X163080820Y-87483502D02*
X163124503Y-87496753D01*
X163156750Y-87529000D01*
X163220267Y-87521757D01*
X163325000Y-87532072D01*
X163625000Y-87532072D01*
X163671627Y-87527480D01*
X163672243Y-87533733D01*
X163665000Y-87597250D01*
X163697247Y-87629497D01*
X163710498Y-87673180D01*
X163767061Y-87779000D01*
X163710498Y-87884820D01*
X163697247Y-87928503D01*
X163665000Y-87960750D01*
X163672243Y-88024267D01*
X163661928Y-88129000D01*
X163661928Y-88429000D01*
X163667951Y-88490158D01*
X163625000Y-88485928D01*
X163325000Y-88485928D01*
X163225000Y-88495777D01*
X163125000Y-88485928D01*
X162825000Y-88485928D01*
X162758565Y-88492471D01*
X162757757Y-88484267D01*
X162765000Y-88420750D01*
X162732753Y-88388503D01*
X162719502Y-88344820D01*
X162662939Y-88239000D01*
X162719502Y-88133180D01*
X162732753Y-88089497D01*
X162765000Y-88057250D01*
X162757757Y-87993733D01*
X162768072Y-87889000D01*
X162768072Y-87589000D01*
X162761810Y-87525415D01*
X162793250Y-87529000D01*
X162825497Y-87496753D01*
X162869180Y-87483502D01*
X162975000Y-87426939D01*
X163080820Y-87483502D01*
G36*
X124072315Y-80384315D02*
G01*
X123992963Y-80481006D01*
X123933998Y-80591320D01*
X123897688Y-80711018D01*
X123885428Y-80835500D01*
X123885428Y-81724500D01*
X123897688Y-81848982D01*
X123933998Y-81968680D01*
X123992963Y-82078994D01*
X124072315Y-82175685D01*
X124169006Y-82255037D01*
X124279320Y-82314002D01*
X124399018Y-82350312D01*
X124523500Y-82362572D01*
X125412500Y-82362572D01*
X125536982Y-82350312D01*
X125656680Y-82314002D01*
X125730000Y-82274811D01*
X125803320Y-82314002D01*
X125923018Y-82350312D01*
X126047500Y-82362572D01*
X126936500Y-82362572D01*
X127060982Y-82350312D01*
X127180680Y-82314002D01*
X127290994Y-82255037D01*
X127387685Y-82175685D01*
X127467037Y-82078994D01*
X127526002Y-81968680D01*
X127549229Y-81892110D01*
X127658738Y-81802238D01*
X127681758Y-81774188D01*
X127998947Y-81457000D01*
X128261929Y-81457000D01*
X128261929Y-81672001D01*
X128274189Y-81796483D01*
X128310499Y-81916181D01*
X128350862Y-81991693D01*
X127260104Y-83082452D01*
X127180680Y-83039998D01*
X127060982Y-83003688D01*
X126936500Y-82991428D01*
X126047500Y-82991428D01*
X125923018Y-83003688D01*
X125803320Y-83039998D01*
X125730000Y-83079189D01*
X125656680Y-83039998D01*
X125536982Y-83003688D01*
X125412500Y-82991428D01*
X124523500Y-82991428D01*
X124399018Y-83003688D01*
X124279320Y-83039998D01*
X124169006Y-83098963D01*
X124072315Y-83178315D01*
X123992963Y-83275006D01*
X123933998Y-83385320D01*
X123897688Y-83505018D01*
X123885428Y-83629500D01*
X123885428Y-84518500D01*
X123897688Y-84642982D01*
X123933998Y-84762680D01*
X123992963Y-84872994D01*
X124072315Y-84969685D01*
X124169006Y-85049037D01*
X124279320Y-85108002D01*
X124355892Y-85131230D01*
X124445763Y-85240738D01*
X124473808Y-85263754D01*
X125123402Y-85913348D01*
X125095000Y-85941750D01*
X125095000Y-86741000D01*
X125115000Y-86741000D01*
X125115000Y-86995000D01*
X125095000Y-86995000D01*
X125095000Y-87015000D01*
X124841000Y-87015000D01*
X124841000Y-86995000D01*
X124821000Y-86995000D01*
X124821000Y-86741000D01*
X124841000Y-86741000D01*
X124841000Y-85941750D01*
X124682250Y-85783000D01*
X124518000Y-85779928D01*
X124393518Y-85792188D01*
X124273820Y-85828498D01*
X124163506Y-85887463D01*
X124066815Y-85966815D01*
X123987463Y-86063506D01*
X123928498Y-86173820D01*
X123892188Y-86293518D01*
X123879928Y-86418000D01*
X123883000Y-86582250D01*
X124041748Y-86740998D01*
X123989866Y-86740998D01*
X120824945Y-83576078D01*
X120798790Y-83544208D01*
X120671645Y-83439863D01*
X120526586Y-83362327D01*
X120369188Y-83314581D01*
X120246518Y-83302499D01*
X120246517Y-83302499D01*
X120205499Y-83298459D01*
X120164481Y-83302499D01*
X120078500Y-83302499D01*
X120078500Y-83168153D01*
X120022374Y-82885988D01*
X119912279Y-82620194D01*
X119752445Y-82380985D01*
X119549015Y-82177555D01*
X119346142Y-82042000D01*
X119549015Y-81906445D01*
X119752445Y-81703015D01*
X119912279Y-81463806D01*
X120022374Y-81198012D01*
X120078500Y-80915847D01*
X120078500Y-80628153D01*
X120032509Y-80396938D01*
X120065447Y-80364000D01*
X124097069Y-80364000D01*
X124072315Y-80384315D01*
G37*
X124072315Y-80384315D02*
X123992963Y-80481006D01*
X123933998Y-80591320D01*
X123897688Y-80711018D01*
X123885428Y-80835500D01*
X123885428Y-81724500D01*
X123897688Y-81848982D01*
X123933998Y-81968680D01*
X123992963Y-82078994D01*
X124072315Y-82175685D01*
X124169006Y-82255037D01*
X124279320Y-82314002D01*
X124399018Y-82350312D01*
X124523500Y-82362572D01*
X125412500Y-82362572D01*
X125536982Y-82350312D01*
X125656680Y-82314002D01*
X125730000Y-82274811D01*
X125803320Y-82314002D01*
X125923018Y-82350312D01*
X126047500Y-82362572D01*
X126936500Y-82362572D01*
X127060982Y-82350312D01*
X127180680Y-82314002D01*
X127290994Y-82255037D01*
X127387685Y-82175685D01*
X127467037Y-82078994D01*
X127526002Y-81968680D01*
X127549229Y-81892110D01*
X127658738Y-81802238D01*
X127681758Y-81774188D01*
X127998947Y-81457000D01*
X128261929Y-81457000D01*
X128261929Y-81672001D01*
X128274189Y-81796483D01*
X128310499Y-81916181D01*
X128350862Y-81991693D01*
X127260104Y-83082452D01*
X127180680Y-83039998D01*
X127060982Y-83003688D01*
X126936500Y-82991428D01*
X126047500Y-82991428D01*
X125923018Y-83003688D01*
X125803320Y-83039998D01*
X125730000Y-83079189D01*
X125656680Y-83039998D01*
X125536982Y-83003688D01*
X125412500Y-82991428D01*
X124523500Y-82991428D01*
X124399018Y-83003688D01*
X124279320Y-83039998D01*
X124169006Y-83098963D01*
X124072315Y-83178315D01*
X123992963Y-83275006D01*
X123933998Y-83385320D01*
X123897688Y-83505018D01*
X123885428Y-83629500D01*
X123885428Y-84518500D01*
X123897688Y-84642982D01*
X123933998Y-84762680D01*
X123992963Y-84872994D01*
X124072315Y-84969685D01*
X124169006Y-85049037D01*
X124279320Y-85108002D01*
X124355892Y-85131230D01*
X124445763Y-85240738D01*
X124473808Y-85263754D01*
X125123402Y-85913348D01*
X125095000Y-85941750D01*
X125095000Y-86741000D01*
X125115000Y-86741000D01*
X125115000Y-86995000D01*
X125095000Y-86995000D01*
X125095000Y-87015000D01*
X124841000Y-87015000D01*
X124841000Y-86995000D01*
X124821000Y-86995000D01*
X124821000Y-86741000D01*
X124841000Y-86741000D01*
X124841000Y-85941750D01*
X124682250Y-85783000D01*
X124518000Y-85779928D01*
X124393518Y-85792188D01*
X124273820Y-85828498D01*
X124163506Y-85887463D01*
X124066815Y-85966815D01*
X123987463Y-86063506D01*
X123928498Y-86173820D01*
X123892188Y-86293518D01*
X123879928Y-86418000D01*
X123883000Y-86582250D01*
X124041748Y-86740998D01*
X123989866Y-86740998D01*
X120824945Y-83576078D01*
X120798790Y-83544208D01*
X120671645Y-83439863D01*
X120526586Y-83362327D01*
X120369188Y-83314581D01*
X120246518Y-83302499D01*
X120246517Y-83302499D01*
X120205499Y-83298459D01*
X120164481Y-83302499D01*
X120078500Y-83302499D01*
X120078500Y-83168153D01*
X120022374Y-82885988D01*
X119912279Y-82620194D01*
X119752445Y-82380985D01*
X119549015Y-82177555D01*
X119346142Y-82042000D01*
X119549015Y-81906445D01*
X119752445Y-81703015D01*
X119912279Y-81463806D01*
X120022374Y-81198012D01*
X120078500Y-80915847D01*
X120078500Y-80628153D01*
X120032509Y-80396938D01*
X120065447Y-80364000D01*
X124097069Y-80364000D01*
X124072315Y-80384315D01*
M02*
